%TF.GenerationSoftware,KiCad,Pcbnew,(6.0.6)*%
%TF.CreationDate,2022-11-23T01:26:38+07:00*%
%TF.ProjectId,555_Badge,3535355f-4261-4646-9765-2e6b69636164,v01*%
%TF.SameCoordinates,Original*%
%TF.FileFunction,Soldermask,Top*%
%TF.FilePolarity,Negative*%
%FSLAX46Y46*%
G04 Gerber Fmt 4.6, Leading zero omitted, Abs format (unit mm)*
G04 Created by KiCad (PCBNEW (6.0.6)) date 2022-11-23 01:26:38*
%MOMM*%
%LPD*%
G01*
G04 APERTURE LIST*
G04 Aperture macros list*
%AMRoundRect*
0 Rectangle with rounded corners*
0 $1 Rounding radius*
0 $2 $3 $4 $5 $6 $7 $8 $9 X,Y pos of 4 corners*
0 Add a 4 corners polygon primitive as box body*
4,1,4,$2,$3,$4,$5,$6,$7,$8,$9,$2,$3,0*
0 Add four circle primitives for the rounded corners*
1,1,$1+$1,$2,$3*
1,1,$1+$1,$4,$5*
1,1,$1+$1,$6,$7*
1,1,$1+$1,$8,$9*
0 Add four rect primitives between the rounded corners*
20,1,$1+$1,$2,$3,$4,$5,0*
20,1,$1+$1,$4,$5,$6,$7,0*
20,1,$1+$1,$6,$7,$8,$9,0*
20,1,$1+$1,$8,$9,$2,$3,0*%
G04 Aperture macros list end*
%ADD10C,1.701600*%
%ADD11O,1.701600X1.701600*%
%ADD12C,1.625600*%
%ADD13RoundRect,0.050800X-0.900000X0.900000X-0.900000X-0.900000X0.900000X-0.900000X0.900000X0.900000X0*%
%ADD14C,1.901600*%
%ADD15RoundRect,0.050800X0.950000X-0.950000X0.950000X0.950000X-0.950000X0.950000X-0.950000X-0.950000X0*%
%ADD16C,2.001600*%
%ADD17RoundRect,0.050800X1.085000X-1.085000X1.085000X1.085000X-1.085000X1.085000X-1.085000X-1.085000X0*%
%ADD18C,2.601600*%
%ADD19RoundRect,0.050800X-0.800000X0.800000X-0.800000X-0.800000X0.800000X-0.800000X0.800000X0.800000X0*%
%ADD20O,1.498600X1.117600*%
%ADD21RoundRect,0.050800X0.698500X-0.508000X0.698500X0.508000X-0.698500X0.508000X-0.698500X-0.508000X0*%
G04 APERTURE END LIST*
D10*
%TO.C,R7*%
X169926000Y-109220000D03*
D11*
X169926000Y-101600000D03*
%TD*%
D12*
%TO.C,U1*%
X152654000Y-123698000D03*
X155194000Y-123698000D03*
X157734000Y-123698000D03*
X160274000Y-123698000D03*
X160274000Y-116078000D03*
X157734000Y-116078000D03*
X155194000Y-116078000D03*
X152654000Y-116078000D03*
%TD*%
D10*
%TO.C,R2*%
X162306000Y-109220000D03*
D11*
X162306000Y-101600000D03*
%TD*%
D13*
%TO.C,D1*%
X148082000Y-72639000D03*
D14*
X148082000Y-75179000D03*
%TD*%
D13*
%TO.C,D2*%
X161798000Y-72644000D03*
D14*
X161798000Y-75184000D03*
%TD*%
D10*
%TO.C,R6*%
X166116000Y-109220000D03*
D11*
X166116000Y-101600000D03*
%TD*%
D15*
%TO.C,S1*%
X153416000Y-108552000D03*
D16*
X153416000Y-106052000D03*
X153416000Y-103552000D03*
%TD*%
D17*
%TO.C,BAT1*%
X138430000Y-121805700D03*
D18*
X138430000Y-101805700D03*
%TD*%
D10*
%TO.C,R5*%
X178562000Y-114300000D03*
D11*
X170942000Y-114300000D03*
%TD*%
%TO.C,R4*%
X177546000Y-101600000D03*
D10*
X177546000Y-109220000D03*
%TD*%
%TO.C,C1*%
X166370000Y-121948888D03*
D19*
X166370000Y-119948888D03*
%TD*%
D10*
%TO.C,R1*%
X158750000Y-101600000D03*
D11*
X158750000Y-109220000D03*
%TD*%
%TO.C,R3*%
X173736000Y-109220000D03*
D10*
X173736000Y-101600000D03*
%TD*%
D20*
%TO.C,Q1*%
X165968000Y-113030000D03*
X165968000Y-114300000D03*
D21*
X165968000Y-115570000D03*
%TD*%
D19*
%TO.C,C2*%
X175768000Y-119721621D03*
D10*
X175768000Y-122221621D03*
%TD*%
M02*
