%TF.GenerationSoftware,KiCad,Pcbnew,(6.0.6)*%
%TF.CreationDate,2022-11-23T01:26:38+07:00*%
%TF.ProjectId,555_Badge,3535355f-4261-4646-9765-2e6b69636164,v01*%
%TF.SameCoordinates,Original*%
%TF.FileFunction,Copper,L1,Top*%
%TF.FilePolarity,Positive*%
%FSLAX46Y46*%
G04 Gerber Fmt 4.6, Leading zero omitted, Abs format (unit mm)*
G04 Created by KiCad (PCBNEW (6.0.6)) date 2022-11-23 01:26:38*
%MOMM*%
%LPD*%
G01*
G04 APERTURE LIST*
%TA.AperFunction,ComponentPad*%
%ADD10C,1.600000*%
%TD*%
%TA.AperFunction,ComponentPad*%
%ADD11O,1.600000X1.600000*%
%TD*%
%TA.AperFunction,ComponentPad*%
%ADD12C,1.524000*%
%TD*%
%TA.AperFunction,ComponentPad*%
%ADD13R,1.800000X1.800000*%
%TD*%
%TA.AperFunction,ComponentPad*%
%ADD14C,1.800000*%
%TD*%
%TA.AperFunction,ComponentPad*%
%ADD15R,1.900000X1.900000*%
%TD*%
%TA.AperFunction,ComponentPad*%
%ADD16C,1.900000*%
%TD*%
%TA.AperFunction,ComponentPad*%
%ADD17R,2.170000X2.170000*%
%TD*%
%TA.AperFunction,ComponentPad*%
%ADD18C,2.500000*%
%TD*%
%TA.AperFunction,ComponentPad*%
%ADD19R,1.600000X1.600000*%
%TD*%
%TA.AperFunction,ComponentPad*%
%ADD20O,1.397000X1.016000*%
%TD*%
%TA.AperFunction,ComponentPad*%
%ADD21R,1.397000X1.016000*%
%TD*%
%TA.AperFunction,Conductor*%
%ADD22C,0.254000*%
%TD*%
%TA.AperFunction,Conductor*%
%ADD23C,0.762000*%
%TD*%
G04 APERTURE END LIST*
D10*
%TO.P,R7,1*%
%TO.N,VCC*%
X169926000Y-109220000D03*
D11*
%TO.P,R7,2*%
%TO.N,Net-(D2-Pad2)*%
X169926000Y-101600000D03*
%TD*%
D12*
%TO.P,U1,1,GND*%
%TO.N,GND*%
X152654000Y-123698000D03*
%TO.P,U1,2,~{TRIG}*%
%TO.N,Net-(C1-Pad1)*%
X155194000Y-123698000D03*
%TO.P,U1,3,OUT*%
%TO.N,Net-(R3-Pad1)*%
X157734000Y-123698000D03*
%TO.P,U1,4,~{RST}*%
%TO.N,VCC*%
X160274000Y-123698000D03*
%TO.P,U1,5,CV*%
%TO.N,unconnected-(U1-Pad5)*%
X160274000Y-116078000D03*
%TO.P,U1,6,THRESH*%
%TO.N,Net-(C1-Pad1)*%
X157734000Y-116078000D03*
%TO.P,U1,7,DIS*%
%TO.N,Net-(U1-Pad7)*%
X155194000Y-116078000D03*
%TO.P,U1,8,VDD*%
%TO.N,VCC*%
X152654000Y-116078000D03*
%TD*%
D10*
%TO.P,R2,1*%
%TO.N,Net-(U1-Pad7)*%
X162306000Y-109220000D03*
D11*
%TO.P,R2,2*%
%TO.N,Net-(C1-Pad1)*%
X162306000Y-101600000D03*
%TD*%
D13*
%TO.P,D1,1,K*%
%TO.N,Net-(D1-Pad1)*%
X148082000Y-72639000D03*
D14*
%TO.P,D1,2,A*%
%TO.N,Net-(D1-Pad2)*%
X148082000Y-75179000D03*
%TD*%
D13*
%TO.P,D2,1,K*%
%TO.N,Net-(D1-Pad1)*%
X161798000Y-72644000D03*
D14*
%TO.P,D2,2,A*%
%TO.N,Net-(D2-Pad2)*%
X161798000Y-75184000D03*
%TD*%
D10*
%TO.P,R6,1*%
%TO.N,VCC*%
X166116000Y-109220000D03*
D11*
%TO.P,R6,2*%
%TO.N,Net-(D1-Pad2)*%
X166116000Y-101600000D03*
%TD*%
D15*
%TO.P,S1,1*%
%TO.N,unconnected-(S1-Pad1)*%
X153416000Y-108552000D03*
D16*
%TO.P,S1,2*%
%TO.N,VCC*%
X153416000Y-106052000D03*
%TO.P,S1,3*%
%TO.N,Net-(BAT1-PadPos)*%
X153416000Y-103552000D03*
%TD*%
D17*
%TO.P,BAT1,Neg*%
%TO.N,GND*%
X138430000Y-121805700D03*
D18*
%TO.P,BAT1,Pos*%
%TO.N,Net-(BAT1-PadPos)*%
X138430000Y-101805700D03*
%TD*%
D10*
%TO.P,R5,1*%
%TO.N,Net-(C2-Pad1)*%
X178562000Y-114300000D03*
D11*
%TO.P,R5,2*%
%TO.N,Net-(Q1-Pad2)*%
X170942000Y-114300000D03*
%TD*%
%TO.P,R4,2*%
%TO.N,GND*%
X177546000Y-101600000D03*
D10*
%TO.P,R4,1*%
%TO.N,Net-(C2-Pad1)*%
X177546000Y-109220000D03*
%TD*%
%TO.P,C1,2*%
%TO.N,GND*%
X166370000Y-121948888D03*
D19*
%TO.P,C1,1*%
%TO.N,Net-(C1-Pad1)*%
X166370000Y-119948888D03*
%TD*%
D10*
%TO.P,R1,1*%
%TO.N,VCC*%
X158750000Y-101600000D03*
D11*
%TO.P,R1,2*%
%TO.N,Net-(U1-Pad7)*%
X158750000Y-109220000D03*
%TD*%
%TO.P,R3,2*%
%TO.N,Net-(C2-Pad1)*%
X173736000Y-109220000D03*
D10*
%TO.P,R3,1*%
%TO.N,Net-(R3-Pad1)*%
X173736000Y-101600000D03*
%TD*%
D20*
%TO.P,Q1,3,C*%
%TO.N,Net-(D1-Pad1)*%
X165968000Y-113030000D03*
%TO.P,Q1,2,B*%
%TO.N,Net-(Q1-Pad2)*%
X165968000Y-114300000D03*
D21*
%TO.P,Q1,1,E*%
%TO.N,GND*%
X165968000Y-115570000D03*
%TD*%
D19*
%TO.P,C2,1*%
%TO.N,Net-(C2-Pad1)*%
X175768000Y-119721621D03*
D10*
%TO.P,C2,2*%
%TO.N,GND*%
X175768000Y-122221621D03*
%TD*%
D22*
%TO.N,Net-(D1-Pad2)*%
X148082000Y-78232000D02*
X148082000Y-75179000D01*
X160274000Y-78232000D02*
X148082000Y-78232000D01*
X166116000Y-84074000D02*
X160274000Y-78232000D01*
X166116000Y-101600000D02*
X166116000Y-84074000D01*
%TO.N,GND*%
X167551000Y-121129888D02*
X167551000Y-117153000D01*
X166732000Y-121948888D02*
X167551000Y-121129888D01*
X166370000Y-121948888D02*
X166732000Y-121948888D01*
X167551000Y-117153000D02*
X165968000Y-115570000D01*
%TO.N,Net-(D1-Pad1)*%
X165100000Y-72644000D02*
X161798000Y-72644000D01*
X171958000Y-79502000D02*
X165100000Y-72644000D01*
%TO.N,Net-(D2-Pad2)*%
X169926000Y-83312000D02*
X169926000Y-101600000D01*
X161798000Y-75184000D02*
X169926000Y-83312000D01*
%TO.N,Net-(D1-Pad1)*%
X161793000Y-72639000D02*
X161798000Y-72644000D01*
X148082000Y-72639000D02*
X161793000Y-72639000D01*
X171958000Y-110744000D02*
X171958000Y-79502000D01*
X169672000Y-113030000D02*
X171958000Y-110744000D01*
X165968000Y-113030000D02*
X169672000Y-113030000D01*
%TO.N,GND*%
X168148000Y-123698000D02*
X167386000Y-122936000D01*
X174291621Y-123698000D02*
X168148000Y-123698000D01*
X175768000Y-122221621D02*
X174291621Y-123698000D01*
X167386000Y-122936000D02*
X167357112Y-122936000D01*
X167357112Y-122936000D02*
X166370000Y-121948888D01*
%TO.N,Net-(C2-Pad1)*%
X177546000Y-109220000D02*
X173736000Y-109220000D01*
X178562000Y-110236000D02*
X177546000Y-109220000D01*
X178562000Y-114300000D02*
X178562000Y-110236000D01*
%TO.N,Net-(Q1-Pad2)*%
X165968000Y-114300000D02*
X170942000Y-114300000D01*
%TO.N,Net-(C1-Pad1)*%
X158810888Y-119948888D02*
X166370000Y-119948888D01*
X157734000Y-116078000D02*
X157734000Y-118872000D01*
X157734000Y-118872000D02*
X158810888Y-119948888D01*
%TO.N,Net-(U1-Pad7)*%
X158750000Y-109220000D02*
X162306000Y-109220000D01*
X155194000Y-112776000D02*
X158750000Y-109220000D01*
X155194000Y-116078000D02*
X155194000Y-112776000D01*
%TO.N,VCC*%
X152654000Y-116078000D02*
X160274000Y-123698000D01*
X151831000Y-115255000D02*
X152654000Y-116078000D01*
X151831000Y-106293498D02*
X151831000Y-115255000D01*
X152072498Y-106052000D02*
X151831000Y-106293498D01*
X153416000Y-106052000D02*
X152072498Y-106052000D01*
D23*
X166116000Y-106186000D02*
X166116000Y-109220000D01*
X165982000Y-106052000D02*
X169044000Y-106052000D01*
X165982000Y-106052000D02*
X166116000Y-106186000D01*
X158884000Y-106052000D02*
X165982000Y-106052000D01*
D22*
X158750000Y-105918000D02*
X158884000Y-106052000D01*
D23*
X158750000Y-101600000D02*
X158750000Y-105918000D01*
X153416000Y-106052000D02*
X158884000Y-106052000D01*
D22*
%TO.N,Net-(BAT1-PadPos)*%
X153416000Y-102870000D02*
X153416000Y-103552000D01*
D23*
X152351700Y-101805700D02*
X153416000Y-102870000D01*
X138430000Y-101805700D02*
X152351700Y-101805700D01*
%TO.N,VCC*%
X169044000Y-106052000D02*
X169926000Y-106934000D01*
X169926000Y-106934000D02*
X169926000Y-109220000D01*
D22*
%TO.N,Net-(C2-Pad1)*%
X178562000Y-115316000D02*
X178562000Y-114300000D01*
X175768000Y-118110000D02*
X178562000Y-115316000D01*
X175768000Y-119721621D02*
X175768000Y-118110000D01*
%TD*%
%TA.AperFunction,Conductor*%
%TO.N,GND*%
G36*
X180535621Y-41676502D02*
G01*
X180582114Y-41730158D01*
X180593500Y-41782500D01*
X180593500Y-126619500D01*
X180573498Y-126687621D01*
X180519842Y-126734114D01*
X180467500Y-126745500D01*
X127380500Y-126745500D01*
X127312379Y-126725498D01*
X127265886Y-126671842D01*
X127254500Y-126619500D01*
X127254500Y-124756777D01*
X151959777Y-124756777D01*
X151969074Y-124768793D01*
X152012069Y-124798898D01*
X152021555Y-124804376D01*
X152212993Y-124893645D01*
X152223285Y-124897391D01*
X152427309Y-124952059D01*
X152438104Y-124953962D01*
X152648525Y-124972372D01*
X152659475Y-124972372D01*
X152869896Y-124953962D01*
X152880691Y-124952059D01*
X153084715Y-124897391D01*
X153095007Y-124893645D01*
X153286445Y-124804376D01*
X153295931Y-124798898D01*
X153339764Y-124768207D01*
X153348139Y-124757729D01*
X153341071Y-124744281D01*
X152666812Y-124070022D01*
X152652868Y-124062408D01*
X152651035Y-124062539D01*
X152644420Y-124066790D01*
X151966207Y-124745003D01*
X151959777Y-124756777D01*
X127254500Y-124756777D01*
X127254500Y-123703475D01*
X151379628Y-123703475D01*
X151398038Y-123913896D01*
X151399941Y-123924691D01*
X151454609Y-124128715D01*
X151458355Y-124139007D01*
X151547623Y-124330441D01*
X151553103Y-124339932D01*
X151583794Y-124383765D01*
X151594271Y-124392140D01*
X151607718Y-124385072D01*
X152281978Y-123710812D01*
X152288356Y-123699132D01*
X153018408Y-123699132D01*
X153018539Y-123700965D01*
X153022790Y-123707580D01*
X153701003Y-124385793D01*
X153712777Y-124392223D01*
X153724793Y-124382926D01*
X153754897Y-124339932D01*
X153760377Y-124330441D01*
X153849645Y-124139007D01*
X153853391Y-124128715D01*
X153908059Y-123924691D01*
X153909963Y-123913895D01*
X153925782Y-123733075D01*
X153941034Y-123694084D01*
X153940210Y-123692418D01*
X154160741Y-123692418D01*
X154174833Y-123719229D01*
X154176861Y-123733513D01*
X154189362Y-123882386D01*
X154244310Y-124074009D01*
X154335430Y-124251311D01*
X154459253Y-124407537D01*
X154611063Y-124536737D01*
X154616441Y-124539743D01*
X154616443Y-124539744D01*
X154658397Y-124563191D01*
X154785076Y-124633989D01*
X154790935Y-124635893D01*
X154790938Y-124635894D01*
X154826701Y-124647514D01*
X154974665Y-124695591D01*
X154980775Y-124696320D01*
X154980777Y-124696320D01*
X155048314Y-124704373D01*
X155172609Y-124719194D01*
X155178744Y-124718722D01*
X155178746Y-124718722D01*
X155365226Y-124704373D01*
X155365231Y-124704372D01*
X155371367Y-124703900D01*
X155377297Y-124702244D01*
X155377299Y-124702244D01*
X155467369Y-124677096D01*
X155563370Y-124650292D01*
X155568870Y-124647514D01*
X155735802Y-124563191D01*
X155735804Y-124563190D01*
X155741303Y-124560412D01*
X155898390Y-124437682D01*
X155920962Y-124411532D01*
X156024618Y-124291446D01*
X156024619Y-124291444D01*
X156028647Y-124286778D01*
X156127112Y-124113448D01*
X156190035Y-123924294D01*
X156214192Y-123733075D01*
X156214578Y-123730023D01*
X156214579Y-123730013D01*
X156215020Y-123726520D01*
X156215418Y-123698000D01*
X156214020Y-123683739D01*
X156712682Y-123683739D01*
X156729362Y-123882386D01*
X156784310Y-124074009D01*
X156875430Y-124251311D01*
X156999253Y-124407537D01*
X157151063Y-124536737D01*
X157156441Y-124539743D01*
X157156443Y-124539744D01*
X157198397Y-124563191D01*
X157325076Y-124633989D01*
X157330935Y-124635893D01*
X157330938Y-124635894D01*
X157366701Y-124647514D01*
X157514665Y-124695591D01*
X157520775Y-124696320D01*
X157520777Y-124696320D01*
X157588314Y-124704373D01*
X157712609Y-124719194D01*
X157718744Y-124718722D01*
X157718746Y-124718722D01*
X157905226Y-124704373D01*
X157905231Y-124704372D01*
X157911367Y-124703900D01*
X157917297Y-124702244D01*
X157917299Y-124702244D01*
X158007369Y-124677096D01*
X158103370Y-124650292D01*
X158108870Y-124647514D01*
X158275802Y-124563191D01*
X158275804Y-124563190D01*
X158281303Y-124560412D01*
X158438390Y-124437682D01*
X158460962Y-124411532D01*
X158564618Y-124291446D01*
X158564619Y-124291444D01*
X158568647Y-124286778D01*
X158667112Y-124113448D01*
X158730035Y-123924294D01*
X158754192Y-123733075D01*
X158754578Y-123730023D01*
X158754579Y-123730013D01*
X158755020Y-123726520D01*
X158755418Y-123698000D01*
X158735965Y-123499606D01*
X158734184Y-123493707D01*
X158734183Y-123493702D01*
X158680129Y-123314667D01*
X158678348Y-123308768D01*
X158610082Y-123180378D01*
X158587655Y-123138198D01*
X158587653Y-123138195D01*
X158584761Y-123132756D01*
X158580871Y-123127986D01*
X158580868Y-123127982D01*
X158462663Y-122983049D01*
X158462660Y-122983046D01*
X158458768Y-122978274D01*
X158305170Y-122851206D01*
X158129815Y-122756392D01*
X157939385Y-122697444D01*
X157933260Y-122696800D01*
X157933259Y-122696800D01*
X157747260Y-122677251D01*
X157747258Y-122677251D01*
X157741131Y-122676607D01*
X157618252Y-122687790D01*
X157548746Y-122694115D01*
X157548745Y-122694115D01*
X157542605Y-122694674D01*
X157536691Y-122696415D01*
X157536689Y-122696415D01*
X157406539Y-122734721D01*
X157351370Y-122750958D01*
X157174709Y-122843314D01*
X157169909Y-122847174D01*
X157169908Y-122847174D01*
X157164893Y-122851206D01*
X157019351Y-122968225D01*
X156891214Y-123120933D01*
X156795179Y-123295621D01*
X156793318Y-123301488D01*
X156793317Y-123301490D01*
X156791051Y-123308633D01*
X156734902Y-123485635D01*
X156712682Y-123683739D01*
X156214020Y-123683739D01*
X156195965Y-123499606D01*
X156194184Y-123493707D01*
X156194183Y-123493702D01*
X156140129Y-123314667D01*
X156138348Y-123308768D01*
X156070082Y-123180378D01*
X156047655Y-123138198D01*
X156047653Y-123138195D01*
X156044761Y-123132756D01*
X156040871Y-123127986D01*
X156040868Y-123127982D01*
X155922663Y-122983049D01*
X155922660Y-122983046D01*
X155918768Y-122978274D01*
X155765170Y-122851206D01*
X155589815Y-122756392D01*
X155399385Y-122697444D01*
X155393260Y-122696800D01*
X155393259Y-122696800D01*
X155207260Y-122677251D01*
X155207258Y-122677251D01*
X155201131Y-122676607D01*
X155078252Y-122687790D01*
X155008746Y-122694115D01*
X155008745Y-122694115D01*
X155002605Y-122694674D01*
X154996691Y-122696415D01*
X154996689Y-122696415D01*
X154866539Y-122734721D01*
X154811370Y-122750958D01*
X154634709Y-122843314D01*
X154629909Y-122847174D01*
X154629908Y-122847174D01*
X154624893Y-122851206D01*
X154479351Y-122968225D01*
X154351214Y-123120933D01*
X154255179Y-123295621D01*
X154253318Y-123301488D01*
X154253317Y-123301490D01*
X154251051Y-123308633D01*
X154194902Y-123485635D01*
X154193335Y-123499606D01*
X154175710Y-123656744D01*
X154160741Y-123692418D01*
X153940210Y-123692418D01*
X153926395Y-123664502D01*
X153924974Y-123653682D01*
X153909962Y-123482104D01*
X153908059Y-123471309D01*
X153853391Y-123267285D01*
X153849645Y-123256993D01*
X153760377Y-123065559D01*
X153754897Y-123056068D01*
X153724206Y-123012235D01*
X153713729Y-123003860D01*
X153700282Y-123010928D01*
X153026022Y-123685188D01*
X153018408Y-123699132D01*
X152288356Y-123699132D01*
X152289592Y-123696868D01*
X152289461Y-123695035D01*
X152285210Y-123688420D01*
X151606997Y-123010207D01*
X151595223Y-123003777D01*
X151583207Y-123013074D01*
X151553103Y-123056068D01*
X151547623Y-123065559D01*
X151458355Y-123256993D01*
X151454609Y-123267285D01*
X151399941Y-123471309D01*
X151398038Y-123482104D01*
X151379628Y-123692525D01*
X151379628Y-123703475D01*
X127254500Y-123703475D01*
X127254500Y-122935369D01*
X136837001Y-122935369D01*
X136837371Y-122942190D01*
X136842895Y-122993052D01*
X136846521Y-123008304D01*
X136891676Y-123128754D01*
X136900214Y-123144349D01*
X136976715Y-123246424D01*
X136989276Y-123258985D01*
X137091351Y-123335486D01*
X137106946Y-123344024D01*
X137227394Y-123389178D01*
X137242649Y-123392805D01*
X137293514Y-123398331D01*
X137300328Y-123398700D01*
X138157885Y-123398700D01*
X138173124Y-123394225D01*
X138174329Y-123392835D01*
X138176000Y-123385152D01*
X138176000Y-123380584D01*
X138684000Y-123380584D01*
X138688475Y-123395823D01*
X138689865Y-123397028D01*
X138697548Y-123398699D01*
X139559669Y-123398699D01*
X139566490Y-123398329D01*
X139617352Y-123392805D01*
X139632604Y-123389179D01*
X139753054Y-123344024D01*
X139768649Y-123335486D01*
X139870724Y-123258985D01*
X139883285Y-123246424D01*
X139959786Y-123144349D01*
X139968324Y-123128754D01*
X140013478Y-123008306D01*
X140017105Y-122993051D01*
X140022631Y-122942186D01*
X140023000Y-122935372D01*
X140023000Y-122638271D01*
X151959860Y-122638271D01*
X151966928Y-122651718D01*
X152641188Y-123325978D01*
X152655132Y-123333592D01*
X152656965Y-123333461D01*
X152663580Y-123329210D01*
X153341793Y-122650997D01*
X153348223Y-122639223D01*
X153338926Y-122627207D01*
X153295931Y-122597102D01*
X153286445Y-122591624D01*
X153095007Y-122502355D01*
X153084715Y-122498609D01*
X152880691Y-122443941D01*
X152869896Y-122442038D01*
X152659475Y-122423628D01*
X152648525Y-122423628D01*
X152438104Y-122442038D01*
X152427309Y-122443941D01*
X152223285Y-122498609D01*
X152212993Y-122502355D01*
X152021559Y-122591623D01*
X152012068Y-122597103D01*
X151968235Y-122627794D01*
X151959860Y-122638271D01*
X140023000Y-122638271D01*
X140023000Y-122077815D01*
X140018525Y-122062576D01*
X140017135Y-122061371D01*
X140009452Y-122059700D01*
X138702115Y-122059700D01*
X138686876Y-122064175D01*
X138685671Y-122065565D01*
X138684000Y-122073248D01*
X138684000Y-123380584D01*
X138176000Y-123380584D01*
X138176000Y-122077815D01*
X138171525Y-122062576D01*
X138170135Y-122061371D01*
X138162452Y-122059700D01*
X136855116Y-122059700D01*
X136839877Y-122064175D01*
X136838672Y-122065565D01*
X136837001Y-122073248D01*
X136837001Y-122935369D01*
X127254500Y-122935369D01*
X127254500Y-121533585D01*
X136837000Y-121533585D01*
X136841475Y-121548824D01*
X136842865Y-121550029D01*
X136850548Y-121551700D01*
X138157885Y-121551700D01*
X138173124Y-121547225D01*
X138174329Y-121545835D01*
X138176000Y-121538152D01*
X138176000Y-121533585D01*
X138684000Y-121533585D01*
X138688475Y-121548824D01*
X138689865Y-121550029D01*
X138697548Y-121551700D01*
X140004884Y-121551700D01*
X140020123Y-121547225D01*
X140021328Y-121545835D01*
X140022999Y-121538152D01*
X140022999Y-120676031D01*
X140022629Y-120669210D01*
X140017105Y-120618348D01*
X140013479Y-120603096D01*
X139968324Y-120482646D01*
X139959786Y-120467051D01*
X139883285Y-120364976D01*
X139870724Y-120352415D01*
X139768649Y-120275914D01*
X139753054Y-120267376D01*
X139632606Y-120222222D01*
X139617351Y-120218595D01*
X139566486Y-120213069D01*
X139559672Y-120212700D01*
X138702115Y-120212700D01*
X138686876Y-120217175D01*
X138685671Y-120218565D01*
X138684000Y-120226248D01*
X138684000Y-121533585D01*
X138176000Y-121533585D01*
X138176000Y-120230816D01*
X138171525Y-120215577D01*
X138170135Y-120214372D01*
X138162452Y-120212701D01*
X137300331Y-120212701D01*
X137293510Y-120213071D01*
X137242648Y-120218595D01*
X137227396Y-120222221D01*
X137106946Y-120267376D01*
X137091351Y-120275914D01*
X136989276Y-120352415D01*
X136976715Y-120364976D01*
X136900214Y-120467051D01*
X136891676Y-120482646D01*
X136846522Y-120603094D01*
X136842895Y-120618349D01*
X136837369Y-120669214D01*
X136837000Y-120676028D01*
X136837000Y-121533585D01*
X127254500Y-121533585D01*
X127254500Y-101805700D01*
X136920848Y-101805700D01*
X136939428Y-102041783D01*
X136940582Y-102046590D01*
X136940583Y-102046596D01*
X136969852Y-102168509D01*
X136994711Y-102272054D01*
X136996604Y-102276625D01*
X136996605Y-102276627D01*
X137080061Y-102478105D01*
X137085336Y-102490841D01*
X137209070Y-102692757D01*
X137362868Y-102872832D01*
X137542943Y-103026630D01*
X137744859Y-103150364D01*
X137749429Y-103152257D01*
X137749433Y-103152259D01*
X137959073Y-103239095D01*
X137959075Y-103239096D01*
X137963646Y-103240989D01*
X138043499Y-103260160D01*
X138189104Y-103295117D01*
X138189110Y-103295118D01*
X138193917Y-103296272D01*
X138430000Y-103314852D01*
X138666083Y-103296272D01*
X138670890Y-103295118D01*
X138670896Y-103295117D01*
X138816501Y-103260160D01*
X138896354Y-103240989D01*
X138900925Y-103239096D01*
X138900927Y-103239095D01*
X139110567Y-103152259D01*
X139110571Y-103152257D01*
X139115141Y-103150364D01*
X139317057Y-103026630D01*
X139497132Y-102872832D01*
X139650930Y-102692757D01*
X139768215Y-102501365D01*
X139820863Y-102453734D01*
X139875648Y-102441200D01*
X152036278Y-102441200D01*
X152104399Y-102461202D01*
X152125373Y-102478105D01*
X152384434Y-102737166D01*
X152418460Y-102799478D01*
X152413395Y-102870293D01*
X152402547Y-102891836D01*
X152401494Y-102893172D01*
X152398805Y-102898283D01*
X152398803Y-102898286D01*
X152387403Y-102919954D01*
X152298420Y-103089083D01*
X152232774Y-103300498D01*
X152232095Y-103306233D01*
X152232095Y-103306234D01*
X152229098Y-103331557D01*
X152206755Y-103520335D01*
X152221233Y-103741233D01*
X152275724Y-103955793D01*
X152368404Y-104156830D01*
X152496167Y-104337611D01*
X152654736Y-104492082D01*
X152659532Y-104495287D01*
X152659535Y-104495289D01*
X152734253Y-104545214D01*
X152838800Y-104615070D01*
X152844103Y-104617348D01*
X152844106Y-104617350D01*
X153006862Y-104687275D01*
X153061555Y-104732543D01*
X153083092Y-104800194D01*
X153064635Y-104868750D01*
X153012044Y-104916444D01*
X153000735Y-104921255D01*
X152895228Y-104960179D01*
X152704980Y-105073365D01*
X152538544Y-105219325D01*
X152534977Y-105223850D01*
X152534972Y-105223855D01*
X152482434Y-105290500D01*
X152401494Y-105393172D01*
X152398805Y-105398283D01*
X152398803Y-105398286D01*
X152382149Y-105429940D01*
X152298420Y-105589083D01*
X152297169Y-105593112D01*
X152252940Y-105647998D01*
X152181078Y-105670500D01*
X152126638Y-105670500D01*
X152102322Y-105667913D01*
X152100899Y-105667846D01*
X152090718Y-105665654D01*
X152057179Y-105669624D01*
X152057150Y-105669627D01*
X152051176Y-105669979D01*
X152051184Y-105670072D01*
X152046006Y-105670500D01*
X152040806Y-105670500D01*
X152035677Y-105671354D01*
X152035674Y-105671354D01*
X152021663Y-105673686D01*
X152015784Y-105674523D01*
X151974931Y-105679358D01*
X151974930Y-105679358D01*
X151964591Y-105680582D01*
X151956292Y-105684567D01*
X151947215Y-105686078D01*
X151901847Y-105710558D01*
X151896584Y-105713239D01*
X151850100Y-105735560D01*
X151845806Y-105739169D01*
X151843880Y-105741095D01*
X151841922Y-105742891D01*
X151841865Y-105742921D01*
X151841747Y-105742792D01*
X151841182Y-105743290D01*
X151835441Y-105746388D01*
X151828372Y-105754035D01*
X151828371Y-105754036D01*
X151798644Y-105786195D01*
X151795214Y-105789761D01*
X151599521Y-105985454D01*
X151580505Y-106000813D01*
X151579444Y-106001779D01*
X151570696Y-106007427D01*
X151564250Y-106015604D01*
X151549771Y-106033970D01*
X151545794Y-106038445D01*
X151545865Y-106038506D01*
X151542512Y-106042463D01*
X151538829Y-106046146D01*
X151535803Y-106050381D01*
X151535801Y-106050383D01*
X151527547Y-106061934D01*
X151523984Y-106066680D01*
X151492066Y-106107168D01*
X151489015Y-106115855D01*
X151483666Y-106123341D01*
X151480683Y-106133317D01*
X151480682Y-106133318D01*
X151468902Y-106172709D01*
X151467072Y-106178341D01*
X151449984Y-106227000D01*
X151449500Y-106232589D01*
X151449500Y-106235300D01*
X151449385Y-106237967D01*
X151449366Y-106238030D01*
X151449192Y-106238023D01*
X151449145Y-106238769D01*
X151447275Y-106245022D01*
X151447684Y-106255426D01*
X151449403Y-106299176D01*
X151449500Y-106304123D01*
X151449500Y-115200865D01*
X151446914Y-115225164D01*
X151446846Y-115226602D01*
X151444655Y-115236780D01*
X151448170Y-115266484D01*
X151448627Y-115270342D01*
X151448979Y-115276320D01*
X151449072Y-115276312D01*
X151449500Y-115281490D01*
X151449500Y-115286692D01*
X151450354Y-115291822D01*
X151452686Y-115305832D01*
X151453522Y-115311704D01*
X151455488Y-115328318D01*
X151457388Y-115344366D01*
X151459582Y-115362907D01*
X151463567Y-115371206D01*
X151465078Y-115380283D01*
X151489558Y-115425651D01*
X151492239Y-115430914D01*
X151511127Y-115470250D01*
X151511130Y-115470254D01*
X151514560Y-115477398D01*
X151518170Y-115481692D01*
X151520102Y-115483624D01*
X151521889Y-115485573D01*
X151521918Y-115485626D01*
X151521788Y-115485745D01*
X151522289Y-115486313D01*
X151525388Y-115492057D01*
X151533033Y-115499124D01*
X151565209Y-115528867D01*
X151568775Y-115532297D01*
X151660266Y-115623788D01*
X151694292Y-115686100D01*
X151691273Y-115750980D01*
X151654902Y-115865635D01*
X151632682Y-116063739D01*
X151649362Y-116262386D01*
X151704310Y-116454009D01*
X151707125Y-116459486D01*
X151772144Y-116586000D01*
X151795430Y-116631311D01*
X151919253Y-116787537D01*
X152071063Y-116916737D01*
X152076441Y-116919743D01*
X152076443Y-116919744D01*
X152184972Y-116980398D01*
X152245076Y-117013989D01*
X152250935Y-117015893D01*
X152250938Y-117015894D01*
X152311703Y-117035638D01*
X152434665Y-117075591D01*
X152440775Y-117076320D01*
X152440777Y-117076320D01*
X152508314Y-117084373D01*
X152632609Y-117099194D01*
X152638744Y-117098722D01*
X152638746Y-117098722D01*
X152825226Y-117084373D01*
X152825231Y-117084372D01*
X152831367Y-117083900D01*
X152837301Y-117082243D01*
X152837308Y-117082242D01*
X152986382Y-117040620D01*
X153057372Y-117041566D01*
X153109361Y-117072883D01*
X159280266Y-123243789D01*
X159314292Y-123306101D01*
X159311273Y-123370980D01*
X159274902Y-123485635D01*
X159252682Y-123683739D01*
X159269362Y-123882386D01*
X159324310Y-124074009D01*
X159415430Y-124251311D01*
X159539253Y-124407537D01*
X159691063Y-124536737D01*
X159696441Y-124539743D01*
X159696443Y-124539744D01*
X159738397Y-124563191D01*
X159865076Y-124633989D01*
X159870935Y-124635893D01*
X159870938Y-124635894D01*
X159906701Y-124647514D01*
X160054665Y-124695591D01*
X160060775Y-124696320D01*
X160060777Y-124696320D01*
X160128314Y-124704373D01*
X160252609Y-124719194D01*
X160258744Y-124718722D01*
X160258746Y-124718722D01*
X160445226Y-124704373D01*
X160445231Y-124704372D01*
X160451367Y-124703900D01*
X160457297Y-124702244D01*
X160457299Y-124702244D01*
X160547369Y-124677096D01*
X160643370Y-124650292D01*
X160648870Y-124647514D01*
X160815802Y-124563191D01*
X160815804Y-124563190D01*
X160821303Y-124560412D01*
X160978390Y-124437682D01*
X161000962Y-124411532D01*
X161104618Y-124291446D01*
X161104619Y-124291444D01*
X161108647Y-124286778D01*
X161207112Y-124113448D01*
X161270035Y-123924294D01*
X161294192Y-123733075D01*
X161294578Y-123730023D01*
X161294579Y-123730013D01*
X161295020Y-123726520D01*
X161295418Y-123698000D01*
X161275965Y-123499606D01*
X161274184Y-123493707D01*
X161274183Y-123493702D01*
X161220129Y-123314667D01*
X161218348Y-123308768D01*
X161217771Y-123307683D01*
X175046493Y-123307683D01*
X175055789Y-123319698D01*
X175106994Y-123355552D01*
X175116489Y-123361035D01*
X175313947Y-123453111D01*
X175324239Y-123456857D01*
X175534688Y-123513246D01*
X175545481Y-123515149D01*
X175762525Y-123534138D01*
X175773475Y-123534138D01*
X175990519Y-123515149D01*
X176001312Y-123513246D01*
X176211761Y-123456857D01*
X176222053Y-123453111D01*
X176419511Y-123361035D01*
X176429006Y-123355552D01*
X176481048Y-123319112D01*
X176489424Y-123308633D01*
X176482356Y-123295187D01*
X175780812Y-122593643D01*
X175766868Y-122586029D01*
X175765035Y-122586160D01*
X175758420Y-122590411D01*
X175052923Y-123295908D01*
X175046493Y-123307683D01*
X161217771Y-123307683D01*
X161150082Y-123180378D01*
X161127655Y-123138198D01*
X161127653Y-123138195D01*
X161124761Y-123132756D01*
X161120871Y-123127986D01*
X161120868Y-123127982D01*
X161044993Y-123034950D01*
X165648493Y-123034950D01*
X165657789Y-123046965D01*
X165708994Y-123082819D01*
X165718489Y-123088302D01*
X165915947Y-123180378D01*
X165926239Y-123184124D01*
X166136688Y-123240513D01*
X166147481Y-123242416D01*
X166364525Y-123261405D01*
X166375475Y-123261405D01*
X166592519Y-123242416D01*
X166603312Y-123240513D01*
X166813761Y-123184124D01*
X166824053Y-123180378D01*
X167021511Y-123088302D01*
X167031006Y-123082819D01*
X167083048Y-123046379D01*
X167091424Y-123035900D01*
X167084356Y-123022454D01*
X166382812Y-122320910D01*
X166368868Y-122313296D01*
X166367035Y-122313427D01*
X166360420Y-122317678D01*
X165654923Y-123023175D01*
X165648493Y-123034950D01*
X161044993Y-123034950D01*
X161002663Y-122983049D01*
X161002660Y-122983046D01*
X160998768Y-122978274D01*
X160845170Y-122851206D01*
X160669815Y-122756392D01*
X160479385Y-122697444D01*
X160473260Y-122696800D01*
X160473259Y-122696800D01*
X160287260Y-122677251D01*
X160287258Y-122677251D01*
X160281131Y-122676607D01*
X160158252Y-122687790D01*
X160088746Y-122694115D01*
X160088745Y-122694115D01*
X160082605Y-122694674D01*
X160076691Y-122696415D01*
X160076689Y-122696415D01*
X160012321Y-122715360D01*
X159943908Y-122735495D01*
X159872913Y-122735541D01*
X159819239Y-122703717D01*
X153647595Y-116532072D01*
X153613569Y-116469760D01*
X153617132Y-116403206D01*
X153648087Y-116310150D01*
X153648088Y-116310146D01*
X153650035Y-116304294D01*
X153665693Y-116180351D01*
X153674578Y-116110023D01*
X153674579Y-116110013D01*
X153675020Y-116106520D01*
X153675418Y-116078000D01*
X153674020Y-116063739D01*
X154172682Y-116063739D01*
X154189362Y-116262386D01*
X154244310Y-116454009D01*
X154247125Y-116459486D01*
X154312144Y-116586000D01*
X154335430Y-116631311D01*
X154459253Y-116787537D01*
X154611063Y-116916737D01*
X154616441Y-116919743D01*
X154616443Y-116919744D01*
X154724972Y-116980398D01*
X154785076Y-117013989D01*
X154790935Y-117015893D01*
X154790938Y-117015894D01*
X154851703Y-117035638D01*
X154974665Y-117075591D01*
X154980775Y-117076320D01*
X154980777Y-117076320D01*
X155048314Y-117084373D01*
X155172609Y-117099194D01*
X155178744Y-117098722D01*
X155178746Y-117098722D01*
X155365226Y-117084373D01*
X155365231Y-117084372D01*
X155371367Y-117083900D01*
X155377297Y-117082244D01*
X155377299Y-117082244D01*
X155467368Y-117057096D01*
X155563370Y-117030292D01*
X155568870Y-117027514D01*
X155735802Y-116943191D01*
X155735804Y-116943190D01*
X155741303Y-116940412D01*
X155898390Y-116817682D01*
X155920962Y-116791532D01*
X156024618Y-116671446D01*
X156024619Y-116671444D01*
X156028647Y-116666778D01*
X156127112Y-116493448D01*
X156190035Y-116304294D01*
X156205693Y-116180351D01*
X156214578Y-116110023D01*
X156214579Y-116110013D01*
X156215020Y-116106520D01*
X156215418Y-116078000D01*
X156214020Y-116063739D01*
X156712682Y-116063739D01*
X156729362Y-116262386D01*
X156784310Y-116454009D01*
X156787125Y-116459486D01*
X156852144Y-116586000D01*
X156875430Y-116631311D01*
X156999253Y-116787537D01*
X157151063Y-116916737D01*
X157287971Y-116993252D01*
X157337676Y-117043944D01*
X157352500Y-117103239D01*
X157352500Y-118817865D01*
X157349914Y-118842164D01*
X157349846Y-118843602D01*
X157347655Y-118853780D01*
X157348879Y-118864120D01*
X157351627Y-118887342D01*
X157351979Y-118893320D01*
X157352072Y-118893312D01*
X157352500Y-118898490D01*
X157352500Y-118903692D01*
X157353354Y-118908822D01*
X157355686Y-118922832D01*
X157356523Y-118928711D01*
X157360866Y-118965404D01*
X157362582Y-118979907D01*
X157366567Y-118988206D01*
X157368078Y-118997283D01*
X157392558Y-119042651D01*
X157395239Y-119047914D01*
X157414127Y-119087250D01*
X157414130Y-119087254D01*
X157417560Y-119094398D01*
X157421170Y-119098692D01*
X157423102Y-119100624D01*
X157424889Y-119102573D01*
X157424918Y-119102626D01*
X157424788Y-119102745D01*
X157425289Y-119103313D01*
X157428388Y-119109057D01*
X157436033Y-119116124D01*
X157468209Y-119145867D01*
X157471775Y-119149297D01*
X158502842Y-120180364D01*
X158518206Y-120199387D01*
X158519170Y-120200446D01*
X158524817Y-120209192D01*
X158532996Y-120215640D01*
X158532998Y-120215642D01*
X158551365Y-120230122D01*
X158555838Y-120234097D01*
X158555899Y-120234025D01*
X158559856Y-120237378D01*
X158563537Y-120241059D01*
X158567769Y-120244083D01*
X158579327Y-120252343D01*
X158584073Y-120255906D01*
X158624558Y-120287822D01*
X158633243Y-120290872D01*
X158640731Y-120296223D01*
X158690138Y-120310998D01*
X158695725Y-120312814D01*
X158744390Y-120329904D01*
X158749979Y-120330388D01*
X158752690Y-120330388D01*
X158755359Y-120330503D01*
X158755420Y-120330522D01*
X158755413Y-120330696D01*
X158756160Y-120330743D01*
X158762413Y-120332613D01*
X158816577Y-120330485D01*
X158821523Y-120330388D01*
X165189501Y-120330388D01*
X165257622Y-120350390D01*
X165304115Y-120404046D01*
X165315501Y-120456388D01*
X165315501Y-120773954D01*
X165322612Y-120809706D01*
X165327277Y-120833160D01*
X165330266Y-120848189D01*
X165337161Y-120858508D01*
X165337162Y-120858510D01*
X165386516Y-120932372D01*
X165383802Y-120934186D01*
X165408263Y-120978982D01*
X165403198Y-121049797D01*
X165374237Y-121094860D01*
X165368084Y-121101013D01*
X165361028Y-121109421D01*
X165236069Y-121287881D01*
X165230586Y-121297377D01*
X165138510Y-121494835D01*
X165134764Y-121505127D01*
X165078375Y-121715576D01*
X165076472Y-121726369D01*
X165057483Y-121943413D01*
X165057483Y-121954363D01*
X165076472Y-122171407D01*
X165078375Y-122182200D01*
X165134764Y-122392649D01*
X165138510Y-122402941D01*
X165230586Y-122600399D01*
X165236069Y-122609894D01*
X165272509Y-122661936D01*
X165282988Y-122670312D01*
X165296434Y-122663244D01*
X166280905Y-121678773D01*
X166343217Y-121644747D01*
X166414032Y-121649812D01*
X166459095Y-121678773D01*
X167444287Y-122663965D01*
X167456062Y-122670395D01*
X167468077Y-122661099D01*
X167503931Y-122609894D01*
X167509414Y-122600399D01*
X167601490Y-122402941D01*
X167605236Y-122392649D01*
X167649595Y-122227096D01*
X174455483Y-122227096D01*
X174474472Y-122444140D01*
X174476375Y-122454933D01*
X174532764Y-122665382D01*
X174536510Y-122675674D01*
X174628586Y-122873132D01*
X174634069Y-122882627D01*
X174670509Y-122934669D01*
X174680988Y-122943045D01*
X174694434Y-122935977D01*
X175395978Y-122234433D01*
X175402356Y-122222753D01*
X176132408Y-122222753D01*
X176132539Y-122224586D01*
X176136790Y-122231201D01*
X176842287Y-122936698D01*
X176854062Y-122943128D01*
X176866077Y-122933832D01*
X176901931Y-122882627D01*
X176907414Y-122873132D01*
X176999490Y-122675674D01*
X177003236Y-122665382D01*
X177059625Y-122454933D01*
X177061528Y-122444140D01*
X177080517Y-122227096D01*
X177080517Y-122216146D01*
X177061528Y-121999102D01*
X177059625Y-121988309D01*
X177003236Y-121777860D01*
X176999490Y-121767568D01*
X176907414Y-121570110D01*
X176901931Y-121560615D01*
X176865491Y-121508573D01*
X176855012Y-121500197D01*
X176841566Y-121507265D01*
X176140022Y-122208809D01*
X176132408Y-122222753D01*
X175402356Y-122222753D01*
X175403592Y-122220489D01*
X175403461Y-122218656D01*
X175399210Y-122212041D01*
X174693713Y-121506544D01*
X174681938Y-121500114D01*
X174669923Y-121509410D01*
X174634069Y-121560615D01*
X174628586Y-121570110D01*
X174536510Y-121767568D01*
X174532764Y-121777860D01*
X174476375Y-121988309D01*
X174474472Y-121999102D01*
X174455483Y-122216146D01*
X174455483Y-122227096D01*
X167649595Y-122227096D01*
X167661625Y-122182200D01*
X167663528Y-122171407D01*
X167682517Y-121954363D01*
X167682517Y-121943413D01*
X167663528Y-121726369D01*
X167661625Y-121715576D01*
X167605236Y-121505127D01*
X167601490Y-121494835D01*
X167509414Y-121297377D01*
X167503931Y-121287881D01*
X167378972Y-121109421D01*
X167371916Y-121101013D01*
X167365763Y-121094860D01*
X167331737Y-121032548D01*
X167336802Y-120961733D01*
X167355014Y-120933395D01*
X167353484Y-120932372D01*
X167402839Y-120858508D01*
X167409734Y-120848189D01*
X167424500Y-120773955D01*
X167424499Y-119123822D01*
X167409734Y-119049587D01*
X167353484Y-118965404D01*
X167269301Y-118909154D01*
X167195067Y-118894388D01*
X166370134Y-118894388D01*
X165544934Y-118894389D01*
X165509182Y-118901500D01*
X165482874Y-118906732D01*
X165482872Y-118906733D01*
X165470699Y-118909154D01*
X165460379Y-118916049D01*
X165460378Y-118916050D01*
X165441430Y-118928711D01*
X165386516Y-118965404D01*
X165330266Y-119049587D01*
X165315500Y-119123821D01*
X165315500Y-119441388D01*
X165295498Y-119509509D01*
X165241842Y-119556002D01*
X165189500Y-119567388D01*
X159021101Y-119567388D01*
X158952980Y-119547386D01*
X158932006Y-119530483D01*
X158152405Y-118750882D01*
X158118379Y-118688570D01*
X158115500Y-118661787D01*
X158115500Y-117101681D01*
X158135502Y-117033560D01*
X158184690Y-116989215D01*
X158275799Y-116943193D01*
X158275805Y-116943189D01*
X158281303Y-116940412D01*
X158438390Y-116817682D01*
X158460962Y-116791532D01*
X158564618Y-116671446D01*
X158564619Y-116671444D01*
X158568647Y-116666778D01*
X158667112Y-116493448D01*
X158730035Y-116304294D01*
X158745693Y-116180351D01*
X158754578Y-116110023D01*
X158754579Y-116110013D01*
X158755020Y-116106520D01*
X158755418Y-116078000D01*
X158754020Y-116063739D01*
X159252682Y-116063739D01*
X159269362Y-116262386D01*
X159324310Y-116454009D01*
X159327125Y-116459486D01*
X159392144Y-116586000D01*
X159415430Y-116631311D01*
X159539253Y-116787537D01*
X159691063Y-116916737D01*
X159696441Y-116919743D01*
X159696443Y-116919744D01*
X159804972Y-116980398D01*
X159865076Y-117013989D01*
X159870935Y-117015893D01*
X159870938Y-117015894D01*
X159931703Y-117035638D01*
X160054665Y-117075591D01*
X160060775Y-117076320D01*
X160060777Y-117076320D01*
X160128314Y-117084373D01*
X160252609Y-117099194D01*
X160258744Y-117098722D01*
X160258746Y-117098722D01*
X160445226Y-117084373D01*
X160445231Y-117084372D01*
X160451367Y-117083900D01*
X160457297Y-117082244D01*
X160457299Y-117082244D01*
X160547368Y-117057096D01*
X160643370Y-117030292D01*
X160648870Y-117027514D01*
X160815802Y-116943191D01*
X160815804Y-116943190D01*
X160821303Y-116940412D01*
X160978390Y-116817682D01*
X161000962Y-116791532D01*
X161104618Y-116671446D01*
X161104619Y-116671444D01*
X161108647Y-116666778D01*
X161207112Y-116493448D01*
X161270035Y-116304294D01*
X161285693Y-116180351D01*
X161292980Y-116122669D01*
X164761501Y-116122669D01*
X164761871Y-116129490D01*
X164767395Y-116180352D01*
X164771021Y-116195604D01*
X164816176Y-116316054D01*
X164824714Y-116331649D01*
X164901215Y-116433724D01*
X164913776Y-116446285D01*
X165015851Y-116522786D01*
X165031446Y-116531324D01*
X165151894Y-116576478D01*
X165167149Y-116580105D01*
X165218014Y-116585631D01*
X165224828Y-116586000D01*
X165695885Y-116586000D01*
X165711124Y-116581525D01*
X165712329Y-116580135D01*
X165714000Y-116572452D01*
X165714000Y-116567884D01*
X166222000Y-116567884D01*
X166226475Y-116583123D01*
X166227865Y-116584328D01*
X166235548Y-116585999D01*
X166711169Y-116585999D01*
X166717990Y-116585629D01*
X166768852Y-116580105D01*
X166784104Y-116576479D01*
X166904554Y-116531324D01*
X166920149Y-116522786D01*
X167022224Y-116446285D01*
X167034785Y-116433724D01*
X167111286Y-116331649D01*
X167119824Y-116316054D01*
X167164978Y-116195606D01*
X167168605Y-116180351D01*
X167174131Y-116129486D01*
X167174500Y-116122672D01*
X167174500Y-115842115D01*
X167170025Y-115826876D01*
X167168635Y-115825671D01*
X167160952Y-115824000D01*
X166240115Y-115824000D01*
X166224876Y-115828475D01*
X166223671Y-115829865D01*
X166222000Y-115837548D01*
X166222000Y-116567884D01*
X165714000Y-116567884D01*
X165714000Y-115842115D01*
X165709525Y-115826876D01*
X165708135Y-115825671D01*
X165700452Y-115824000D01*
X164779616Y-115824000D01*
X164764377Y-115828475D01*
X164763172Y-115829865D01*
X164761501Y-115837548D01*
X164761501Y-116122669D01*
X161292980Y-116122669D01*
X161294578Y-116110023D01*
X161294579Y-116110013D01*
X161295020Y-116106520D01*
X161295418Y-116078000D01*
X161275965Y-115879606D01*
X161274184Y-115873707D01*
X161274183Y-115873702D01*
X161220129Y-115694667D01*
X161218348Y-115688768D01*
X161158135Y-115575523D01*
X161127655Y-115518198D01*
X161127653Y-115518195D01*
X161124761Y-115512756D01*
X161120871Y-115507986D01*
X161120868Y-115507982D01*
X161002663Y-115363049D01*
X161002660Y-115363046D01*
X160998768Y-115358274D01*
X160991870Y-115352567D01*
X160892477Y-115270342D01*
X160845170Y-115231206D01*
X160669815Y-115136392D01*
X160479385Y-115077444D01*
X160473260Y-115076800D01*
X160473259Y-115076800D01*
X160287260Y-115057251D01*
X160287258Y-115057251D01*
X160281131Y-115056607D01*
X160163259Y-115067334D01*
X160088746Y-115074115D01*
X160088745Y-115074115D01*
X160082605Y-115074674D01*
X160076691Y-115076415D01*
X160076689Y-115076415D01*
X159994075Y-115100730D01*
X159891370Y-115130958D01*
X159714709Y-115223314D01*
X159709909Y-115227174D01*
X159709908Y-115227174D01*
X159704893Y-115231206D01*
X159559351Y-115348225D01*
X159431214Y-115500933D01*
X159335179Y-115675621D01*
X159274902Y-115865635D01*
X159252682Y-116063739D01*
X158754020Y-116063739D01*
X158735965Y-115879606D01*
X158734184Y-115873707D01*
X158734183Y-115873702D01*
X158680129Y-115694667D01*
X158678348Y-115688768D01*
X158618135Y-115575523D01*
X158587655Y-115518198D01*
X158587653Y-115518195D01*
X158584761Y-115512756D01*
X158580871Y-115507986D01*
X158580868Y-115507982D01*
X158462663Y-115363049D01*
X158462660Y-115363046D01*
X158458768Y-115358274D01*
X158451870Y-115352567D01*
X158352477Y-115270342D01*
X158305170Y-115231206D01*
X158129815Y-115136392D01*
X157939385Y-115077444D01*
X157933260Y-115076800D01*
X157933259Y-115076800D01*
X157747260Y-115057251D01*
X157747258Y-115057251D01*
X157741131Y-115056607D01*
X157623259Y-115067334D01*
X157548746Y-115074115D01*
X157548745Y-115074115D01*
X157542605Y-115074674D01*
X157536691Y-115076415D01*
X157536689Y-115076415D01*
X157454075Y-115100730D01*
X157351370Y-115130958D01*
X157174709Y-115223314D01*
X157169909Y-115227174D01*
X157169908Y-115227174D01*
X157164893Y-115231206D01*
X157019351Y-115348225D01*
X156891214Y-115500933D01*
X156795179Y-115675621D01*
X156734902Y-115865635D01*
X156712682Y-116063739D01*
X156214020Y-116063739D01*
X156195965Y-115879606D01*
X156194184Y-115873707D01*
X156194183Y-115873702D01*
X156140129Y-115694667D01*
X156138348Y-115688768D01*
X156078135Y-115575523D01*
X156047655Y-115518198D01*
X156047653Y-115518195D01*
X156044761Y-115512756D01*
X156040871Y-115507986D01*
X156040868Y-115507982D01*
X155922663Y-115363049D01*
X155922660Y-115363046D01*
X155918768Y-115358274D01*
X155911870Y-115352567D01*
X155812477Y-115270342D01*
X155765170Y-115231206D01*
X155733857Y-115214275D01*
X155641571Y-115164376D01*
X155591162Y-115114381D01*
X155575500Y-115053540D01*
X155575500Y-112986212D01*
X155595502Y-112918091D01*
X155612405Y-112897117D01*
X158265722Y-110243801D01*
X158328034Y-110209775D01*
X158393753Y-110213063D01*
X158447813Y-110230628D01*
X158522466Y-110254884D01*
X158727809Y-110279370D01*
X158733944Y-110278898D01*
X158733946Y-110278898D01*
X158927856Y-110263977D01*
X158927860Y-110263976D01*
X158933998Y-110263504D01*
X159133178Y-110207892D01*
X159138682Y-110205112D01*
X159138684Y-110205111D01*
X159312262Y-110117431D01*
X159312264Y-110117430D01*
X159317763Y-110114652D01*
X159480722Y-109987334D01*
X159484748Y-109982670D01*
X159484751Y-109982667D01*
X159611819Y-109835457D01*
X159611820Y-109835455D01*
X159615848Y-109830789D01*
X159670356Y-109734838D01*
X159709881Y-109665263D01*
X159760921Y-109615912D01*
X159819437Y-109601500D01*
X161239495Y-109601500D01*
X161307616Y-109621502D01*
X161351561Y-109669906D01*
X161412514Y-109788509D01*
X161412517Y-109788513D01*
X161415334Y-109793995D01*
X161543786Y-109956061D01*
X161548479Y-109960055D01*
X161548480Y-109960056D01*
X161611397Y-110013602D01*
X161701271Y-110090091D01*
X161881789Y-110190980D01*
X162078466Y-110254884D01*
X162283809Y-110279370D01*
X162289944Y-110278898D01*
X162289946Y-110278898D01*
X162483856Y-110263977D01*
X162483860Y-110263976D01*
X162489998Y-110263504D01*
X162689178Y-110207892D01*
X162694682Y-110205112D01*
X162694684Y-110205111D01*
X162868262Y-110117431D01*
X162868264Y-110117430D01*
X162873763Y-110114652D01*
X163036722Y-109987334D01*
X163040748Y-109982670D01*
X163040751Y-109982667D01*
X163167819Y-109835457D01*
X163167820Y-109835455D01*
X163171848Y-109830789D01*
X163250478Y-109692377D01*
X163270950Y-109656340D01*
X163270952Y-109656336D01*
X163273995Y-109650979D01*
X163339270Y-109454753D01*
X163365189Y-109249586D01*
X163365602Y-109220000D01*
X163345422Y-109014189D01*
X163285651Y-108816217D01*
X163188565Y-108633625D01*
X163184674Y-108628855D01*
X163184672Y-108628851D01*
X163061758Y-108478143D01*
X163061755Y-108478140D01*
X163057863Y-108473368D01*
X163050966Y-108467662D01*
X162903271Y-108345478D01*
X162903266Y-108345475D01*
X162898522Y-108341550D01*
X162893103Y-108338620D01*
X162893100Y-108338618D01*
X162722032Y-108246122D01*
X162722027Y-108246120D01*
X162716612Y-108243192D01*
X162519063Y-108182040D01*
X162512938Y-108181396D01*
X162512937Y-108181396D01*
X162319526Y-108161068D01*
X162319524Y-108161068D01*
X162313397Y-108160424D01*
X162187229Y-108171906D01*
X162113591Y-108178607D01*
X162113590Y-108178607D01*
X162107450Y-108179166D01*
X161909066Y-108237554D01*
X161903601Y-108240411D01*
X161731261Y-108330508D01*
X161731257Y-108330511D01*
X161725801Y-108333363D01*
X161564635Y-108462943D01*
X161431708Y-108621360D01*
X161428739Y-108626760D01*
X161428738Y-108626762D01*
X161348232Y-108773201D01*
X161297887Y-108823260D01*
X161237818Y-108838500D01*
X159817207Y-108838500D01*
X159749086Y-108818498D01*
X159705956Y-108771654D01*
X159632565Y-108633625D01*
X159628674Y-108628855D01*
X159628672Y-108628851D01*
X159505758Y-108478143D01*
X159505755Y-108478140D01*
X159501863Y-108473368D01*
X159494966Y-108467662D01*
X159347271Y-108345478D01*
X159347266Y-108345475D01*
X159342522Y-108341550D01*
X159337103Y-108338620D01*
X159337100Y-108338618D01*
X159166032Y-108246122D01*
X159166027Y-108246120D01*
X159160612Y-108243192D01*
X158963063Y-108182040D01*
X158956938Y-108181396D01*
X158956937Y-108181396D01*
X158763526Y-108161068D01*
X158763524Y-108161068D01*
X158757397Y-108160424D01*
X158631229Y-108171906D01*
X158557591Y-108178607D01*
X158557590Y-108178607D01*
X158551450Y-108179166D01*
X158353066Y-108237554D01*
X158347601Y-108240411D01*
X158175261Y-108330508D01*
X158175257Y-108330511D01*
X158169801Y-108333363D01*
X158008635Y-108462943D01*
X157875708Y-108621360D01*
X157776082Y-108802578D01*
X157713553Y-108999696D01*
X157690501Y-109205206D01*
X157707806Y-109411278D01*
X157709505Y-109417203D01*
X157756741Y-109581936D01*
X157756290Y-109652931D01*
X157724717Y-109705761D01*
X154962521Y-112467956D01*
X154943505Y-112483315D01*
X154942444Y-112484281D01*
X154933696Y-112489929D01*
X154927250Y-112498106D01*
X154912771Y-112516472D01*
X154908794Y-112520947D01*
X154908865Y-112521008D01*
X154905512Y-112524965D01*
X154901829Y-112528648D01*
X154898803Y-112532883D01*
X154898801Y-112532885D01*
X154890547Y-112544436D01*
X154886984Y-112549182D01*
X154855066Y-112589670D01*
X154852015Y-112598357D01*
X154846666Y-112605843D01*
X154843683Y-112615819D01*
X154843682Y-112615820D01*
X154831902Y-112655211D01*
X154830072Y-112660843D01*
X154812984Y-112709502D01*
X154812500Y-112715091D01*
X154812500Y-112717802D01*
X154812385Y-112720469D01*
X154812366Y-112720532D01*
X154812192Y-112720525D01*
X154812145Y-112721271D01*
X154810275Y-112727524D01*
X154810684Y-112737928D01*
X154812403Y-112781678D01*
X154812500Y-112786625D01*
X154812500Y-115054059D01*
X154792498Y-115122180D01*
X154744876Y-115165720D01*
X154634709Y-115223314D01*
X154629909Y-115227174D01*
X154629908Y-115227174D01*
X154624893Y-115231206D01*
X154479351Y-115348225D01*
X154351214Y-115500933D01*
X154255179Y-115675621D01*
X154194902Y-115865635D01*
X154172682Y-116063739D01*
X153674020Y-116063739D01*
X153655965Y-115879606D01*
X153654184Y-115873707D01*
X153654183Y-115873702D01*
X153600129Y-115694667D01*
X153598348Y-115688768D01*
X153538135Y-115575523D01*
X153507655Y-115518198D01*
X153507653Y-115518195D01*
X153504761Y-115512756D01*
X153500871Y-115507986D01*
X153500868Y-115507982D01*
X153382663Y-115363049D01*
X153382660Y-115363046D01*
X153378768Y-115358274D01*
X153371870Y-115352567D01*
X153272477Y-115270342D01*
X153225170Y-115231206D01*
X153049815Y-115136392D01*
X152859385Y-115077444D01*
X152853260Y-115076800D01*
X152853259Y-115076800D01*
X152667260Y-115057251D01*
X152667258Y-115057251D01*
X152661131Y-115056607D01*
X152543259Y-115067334D01*
X152468746Y-115074115D01*
X152468745Y-115074115D01*
X152462605Y-115074674D01*
X152456691Y-115076415D01*
X152456689Y-115076415D01*
X152374075Y-115100730D01*
X152303079Y-115100776D01*
X152243328Y-115062430D01*
X152213794Y-114997868D01*
X152212500Y-114979857D01*
X152212500Y-109863814D01*
X152232502Y-109795693D01*
X152286158Y-109749200D01*
X152356432Y-109739096D01*
X152366665Y-109741904D01*
X152366699Y-109741734D01*
X152440933Y-109756500D01*
X153415842Y-109756500D01*
X154391066Y-109756499D01*
X154427764Y-109749200D01*
X154453126Y-109744156D01*
X154453128Y-109744155D01*
X154465301Y-109741734D01*
X154475621Y-109734839D01*
X154475622Y-109734838D01*
X154539168Y-109692377D01*
X154549484Y-109685484D01*
X154605734Y-109601301D01*
X154620500Y-109527067D01*
X154620499Y-107576934D01*
X154605734Y-107502699D01*
X154549484Y-107418516D01*
X154465301Y-107362266D01*
X154391067Y-107347500D01*
X154050848Y-107347500D01*
X153982727Y-107327498D01*
X153936234Y-107273842D01*
X153926130Y-107203568D01*
X153955624Y-107138988D01*
X153989277Y-107111569D01*
X154101159Y-107048912D01*
X154271359Y-106907359D01*
X154412912Y-106737159D01*
X154413926Y-106738003D01*
X154463924Y-106697321D01*
X154512692Y-106687500D01*
X165354500Y-106687500D01*
X165422621Y-106707502D01*
X165469114Y-106761158D01*
X165480500Y-106813500D01*
X165480500Y-108317456D01*
X165460498Y-108385577D01*
X165433452Y-108415653D01*
X165374635Y-108462943D01*
X165241708Y-108621360D01*
X165142082Y-108802578D01*
X165079553Y-108999696D01*
X165056501Y-109205206D01*
X165073806Y-109411278D01*
X165130807Y-109610066D01*
X165133625Y-109615548D01*
X165133626Y-109615552D01*
X165222514Y-109788509D01*
X165222517Y-109788513D01*
X165225334Y-109793995D01*
X165353786Y-109956061D01*
X165358479Y-109960055D01*
X165358480Y-109960056D01*
X165421397Y-110013602D01*
X165511271Y-110090091D01*
X165691789Y-110190980D01*
X165888466Y-110254884D01*
X166093809Y-110279370D01*
X166099944Y-110278898D01*
X166099946Y-110278898D01*
X166293856Y-110263977D01*
X166293860Y-110263976D01*
X166299998Y-110263504D01*
X166499178Y-110207892D01*
X166504682Y-110205112D01*
X166504684Y-110205111D01*
X166678262Y-110117431D01*
X166678264Y-110117430D01*
X166683763Y-110114652D01*
X166846722Y-109987334D01*
X166850748Y-109982670D01*
X166850751Y-109982667D01*
X166977819Y-109835457D01*
X166977820Y-109835455D01*
X166981848Y-109830789D01*
X167060478Y-109692377D01*
X167080950Y-109656340D01*
X167080952Y-109656336D01*
X167083995Y-109650979D01*
X167149270Y-109454753D01*
X167175189Y-109249586D01*
X167175602Y-109220000D01*
X167155422Y-109014189D01*
X167095651Y-108816217D01*
X166998565Y-108633625D01*
X166994674Y-108628855D01*
X166994672Y-108628851D01*
X166871758Y-108478143D01*
X166871755Y-108478140D01*
X166867863Y-108473368D01*
X166855262Y-108462943D01*
X166797185Y-108414898D01*
X166757446Y-108356064D01*
X166751500Y-108317813D01*
X166751500Y-106813500D01*
X166771502Y-106745379D01*
X166825158Y-106698886D01*
X166877500Y-106687500D01*
X168728578Y-106687500D01*
X168796699Y-106707502D01*
X168817673Y-106724405D01*
X169253595Y-107160327D01*
X169287621Y-107222639D01*
X169290500Y-107249422D01*
X169290500Y-108317456D01*
X169270498Y-108385577D01*
X169243452Y-108415653D01*
X169184635Y-108462943D01*
X169051708Y-108621360D01*
X168952082Y-108802578D01*
X168889553Y-108999696D01*
X168866501Y-109205206D01*
X168883806Y-109411278D01*
X168940807Y-109610066D01*
X168943625Y-109615548D01*
X168943626Y-109615552D01*
X169032514Y-109788509D01*
X169032517Y-109788513D01*
X169035334Y-109793995D01*
X169163786Y-109956061D01*
X169168479Y-109960055D01*
X169168480Y-109960056D01*
X169231397Y-110013602D01*
X169321271Y-110090091D01*
X169501789Y-110190980D01*
X169698466Y-110254884D01*
X169903809Y-110279370D01*
X169909944Y-110278898D01*
X169909946Y-110278898D01*
X170103856Y-110263977D01*
X170103860Y-110263976D01*
X170109998Y-110263504D01*
X170309178Y-110207892D01*
X170314682Y-110205112D01*
X170314684Y-110205111D01*
X170488262Y-110117431D01*
X170488264Y-110117430D01*
X170493763Y-110114652D01*
X170656722Y-109987334D01*
X170660748Y-109982670D01*
X170660751Y-109982667D01*
X170787819Y-109835457D01*
X170787820Y-109835455D01*
X170791848Y-109830789D01*
X170870478Y-109692377D01*
X170890950Y-109656340D01*
X170890952Y-109656336D01*
X170893995Y-109650979D01*
X170959270Y-109454753D01*
X170985189Y-109249586D01*
X170985602Y-109220000D01*
X170965422Y-109014189D01*
X170905651Y-108816217D01*
X170808565Y-108633625D01*
X170804674Y-108628855D01*
X170804672Y-108628851D01*
X170681758Y-108478143D01*
X170681755Y-108478140D01*
X170677863Y-108473368D01*
X170665262Y-108462943D01*
X170607185Y-108414898D01*
X170567446Y-108356064D01*
X170561500Y-108317813D01*
X170561500Y-107013020D01*
X170562029Y-107001791D01*
X170563708Y-106994281D01*
X170561562Y-106926001D01*
X170561500Y-106922044D01*
X170561500Y-106894017D01*
X170560989Y-106889971D01*
X170560057Y-106878136D01*
X170558913Y-106841722D01*
X170558664Y-106833795D01*
X170552987Y-106814254D01*
X170548978Y-106794894D01*
X170547421Y-106782566D01*
X170547420Y-106782563D01*
X170546427Y-106774701D01*
X170543510Y-106767335D01*
X170543509Y-106767329D01*
X170530091Y-106733439D01*
X170526246Y-106722210D01*
X170513869Y-106679607D01*
X170509836Y-106672788D01*
X170509834Y-106672783D01*
X170503510Y-106662091D01*
X170494813Y-106644341D01*
X170487319Y-106625412D01*
X170461240Y-106589517D01*
X170454722Y-106579595D01*
X170436170Y-106548224D01*
X170436166Y-106548219D01*
X170432134Y-106541401D01*
X170417747Y-106527014D01*
X170404906Y-106511980D01*
X170397602Y-106501927D01*
X170392942Y-106495513D01*
X170358750Y-106467227D01*
X170349971Y-106459238D01*
X169549250Y-105658517D01*
X169541674Y-105650191D01*
X169537553Y-105643697D01*
X169487734Y-105596914D01*
X169484893Y-105594160D01*
X169465094Y-105574361D01*
X169461969Y-105571937D01*
X169461960Y-105571929D01*
X169461874Y-105571863D01*
X169452849Y-105564155D01*
X169426285Y-105539210D01*
X169420506Y-105533783D01*
X169402669Y-105523977D01*
X169386153Y-105513127D01*
X169370067Y-105500650D01*
X169329334Y-105483024D01*
X169318686Y-105477807D01*
X169307058Y-105471415D01*
X169279803Y-105456431D01*
X169272128Y-105454460D01*
X169272122Y-105454458D01*
X169260089Y-105451369D01*
X169241387Y-105444966D01*
X169222708Y-105436883D01*
X169188872Y-105431524D01*
X169178873Y-105429940D01*
X169167260Y-105427535D01*
X169124282Y-105416500D01*
X169103935Y-105416500D01*
X169084224Y-105414949D01*
X169071950Y-105413005D01*
X169064121Y-105411765D01*
X169056229Y-105412511D01*
X169019944Y-105415941D01*
X169008086Y-105416500D01*
X166041935Y-105416500D01*
X166022224Y-105414949D01*
X166009950Y-105413005D01*
X166002121Y-105411765D01*
X165994229Y-105412511D01*
X165957944Y-105415941D01*
X165946086Y-105416500D01*
X159511500Y-105416500D01*
X159443379Y-105396498D01*
X159396886Y-105342842D01*
X159385500Y-105290500D01*
X159385500Y-102503184D01*
X159405502Y-102435063D01*
X159433927Y-102403895D01*
X159475861Y-102371133D01*
X159475868Y-102371127D01*
X159480722Y-102367334D01*
X159484748Y-102362670D01*
X159484751Y-102362667D01*
X159611819Y-102215457D01*
X159611820Y-102215455D01*
X159615848Y-102210789D01*
X159704887Y-102054053D01*
X159714950Y-102036340D01*
X159714952Y-102036336D01*
X159717995Y-102030979D01*
X159750632Y-101932866D01*
X159781325Y-101840601D01*
X159781326Y-101840598D01*
X159783270Y-101834753D01*
X159809189Y-101629586D01*
X159809602Y-101600000D01*
X159808151Y-101585206D01*
X161246501Y-101585206D01*
X161263806Y-101791278D01*
X161320807Y-101990066D01*
X161323625Y-101995548D01*
X161323626Y-101995552D01*
X161412514Y-102168509D01*
X161412517Y-102168513D01*
X161415334Y-102173995D01*
X161543786Y-102336061D01*
X161548479Y-102340055D01*
X161548480Y-102340056D01*
X161695938Y-102465552D01*
X161701271Y-102470091D01*
X161881789Y-102570980D01*
X162078466Y-102634884D01*
X162283809Y-102659370D01*
X162289944Y-102658898D01*
X162289946Y-102658898D01*
X162483856Y-102643977D01*
X162483860Y-102643976D01*
X162489998Y-102643504D01*
X162689178Y-102587892D01*
X162694682Y-102585112D01*
X162694684Y-102585111D01*
X162868262Y-102497431D01*
X162868264Y-102497430D01*
X162873763Y-102494652D01*
X163036722Y-102367334D01*
X163040748Y-102362670D01*
X163040751Y-102362667D01*
X163167819Y-102215457D01*
X163167820Y-102215455D01*
X163171848Y-102210789D01*
X163260887Y-102054053D01*
X163270950Y-102036340D01*
X163270952Y-102036336D01*
X163273995Y-102030979D01*
X163306632Y-101932866D01*
X163337325Y-101840601D01*
X163337326Y-101840598D01*
X163339270Y-101834753D01*
X163365189Y-101629586D01*
X163365602Y-101600000D01*
X163345422Y-101394189D01*
X163285651Y-101196217D01*
X163188565Y-101013625D01*
X163184674Y-101008855D01*
X163184672Y-101008851D01*
X163061758Y-100858143D01*
X163061755Y-100858140D01*
X163057863Y-100853368D01*
X163050966Y-100847662D01*
X162903271Y-100725478D01*
X162903266Y-100725475D01*
X162898522Y-100721550D01*
X162893103Y-100718620D01*
X162893100Y-100718618D01*
X162722032Y-100626122D01*
X162722027Y-100626120D01*
X162716612Y-100623192D01*
X162519063Y-100562040D01*
X162512938Y-100561396D01*
X162512937Y-100561396D01*
X162319526Y-100541068D01*
X162319524Y-100541068D01*
X162313397Y-100540424D01*
X162187229Y-100551906D01*
X162113591Y-100558607D01*
X162113590Y-100558607D01*
X162107450Y-100559166D01*
X161909066Y-100617554D01*
X161903601Y-100620411D01*
X161731261Y-100710508D01*
X161731257Y-100710511D01*
X161725801Y-100713363D01*
X161564635Y-100842943D01*
X161431708Y-101001360D01*
X161332082Y-101182578D01*
X161269553Y-101379696D01*
X161268867Y-101385813D01*
X161268866Y-101385817D01*
X161265905Y-101412217D01*
X161246501Y-101585206D01*
X159808151Y-101585206D01*
X159789422Y-101394189D01*
X159729651Y-101196217D01*
X159632565Y-101013625D01*
X159628674Y-101008855D01*
X159628672Y-101008851D01*
X159505758Y-100858143D01*
X159505755Y-100858140D01*
X159501863Y-100853368D01*
X159494966Y-100847662D01*
X159347271Y-100725478D01*
X159347266Y-100725475D01*
X159342522Y-100721550D01*
X159337103Y-100718620D01*
X159337100Y-100718618D01*
X159166032Y-100626122D01*
X159166027Y-100626120D01*
X159160612Y-100623192D01*
X158963063Y-100562040D01*
X158956938Y-100561396D01*
X158956937Y-100561396D01*
X158763526Y-100541068D01*
X158763524Y-100541068D01*
X158757397Y-100540424D01*
X158631229Y-100551906D01*
X158557591Y-100558607D01*
X158557590Y-100558607D01*
X158551450Y-100559166D01*
X158353066Y-100617554D01*
X158347601Y-100620411D01*
X158175261Y-100710508D01*
X158175257Y-100710511D01*
X158169801Y-100713363D01*
X158008635Y-100842943D01*
X157875708Y-101001360D01*
X157776082Y-101182578D01*
X157713553Y-101379696D01*
X157712867Y-101385813D01*
X157712866Y-101385817D01*
X157709905Y-101412217D01*
X157690501Y-101585206D01*
X157707806Y-101791278D01*
X157764807Y-101990066D01*
X157767625Y-101995548D01*
X157767626Y-101995552D01*
X157856514Y-102168509D01*
X157856517Y-102168513D01*
X157859334Y-102173995D01*
X157987786Y-102336061D01*
X158028996Y-102371133D01*
X158070163Y-102406169D01*
X158109076Y-102465552D01*
X158114500Y-102502123D01*
X158114500Y-105290500D01*
X158094498Y-105358621D01*
X158040842Y-105405114D01*
X157988500Y-105416500D01*
X154507991Y-105416500D01*
X154439870Y-105396498D01*
X154407033Y-105365889D01*
X154318406Y-105247203D01*
X154318405Y-105247202D01*
X154314953Y-105242579D01*
X154310717Y-105238663D01*
X154156634Y-105096231D01*
X154156632Y-105096229D01*
X154152394Y-105092312D01*
X153965174Y-104974185D01*
X153826679Y-104918931D01*
X153770819Y-104875110D01*
X153747519Y-104808046D01*
X153764175Y-104739031D01*
X153815499Y-104689976D01*
X153832867Y-104682588D01*
X153902545Y-104658935D01*
X153908013Y-104657079D01*
X154101159Y-104548912D01*
X154271359Y-104407359D01*
X154412912Y-104237159D01*
X154521079Y-104044013D01*
X154592237Y-103834390D01*
X154624002Y-103615309D01*
X154625660Y-103552000D01*
X154605404Y-103331557D01*
X154596645Y-103300498D01*
X154546884Y-103124061D01*
X154545315Y-103118497D01*
X154447405Y-102919954D01*
X154412430Y-102873116D01*
X154318406Y-102747203D01*
X154318405Y-102747202D01*
X154314953Y-102742579D01*
X154310717Y-102738663D01*
X154156634Y-102596231D01*
X154156632Y-102596229D01*
X154152394Y-102592312D01*
X153965174Y-102474185D01*
X153912289Y-102453086D01*
X153869884Y-102425151D01*
X152856950Y-101412217D01*
X152849374Y-101403891D01*
X152845253Y-101397397D01*
X152795434Y-101350614D01*
X152792593Y-101347860D01*
X152772794Y-101328061D01*
X152769669Y-101325637D01*
X152769660Y-101325629D01*
X152769574Y-101325563D01*
X152760549Y-101317855D01*
X152733985Y-101292910D01*
X152728206Y-101287483D01*
X152710369Y-101277677D01*
X152693853Y-101266827D01*
X152677767Y-101254350D01*
X152637034Y-101236724D01*
X152626386Y-101231507D01*
X152614758Y-101225115D01*
X152587503Y-101210131D01*
X152579828Y-101208160D01*
X152579822Y-101208158D01*
X152567789Y-101205069D01*
X152549087Y-101198666D01*
X152530408Y-101190583D01*
X152496572Y-101185224D01*
X152486573Y-101183640D01*
X152474960Y-101181235D01*
X152431982Y-101170200D01*
X152411635Y-101170200D01*
X152391924Y-101168649D01*
X152379650Y-101166705D01*
X152371821Y-101165465D01*
X152363929Y-101166211D01*
X152327644Y-101169641D01*
X152315786Y-101170200D01*
X139875648Y-101170200D01*
X139807527Y-101150198D01*
X139768215Y-101110035D01*
X139698727Y-100996641D01*
X139650930Y-100918643D01*
X139497132Y-100738568D01*
X139317057Y-100584770D01*
X139115141Y-100461036D01*
X139110571Y-100459143D01*
X139110567Y-100459141D01*
X138900927Y-100372305D01*
X138900925Y-100372304D01*
X138896354Y-100370411D01*
X138816501Y-100351240D01*
X138670896Y-100316283D01*
X138670890Y-100316282D01*
X138666083Y-100315128D01*
X138430000Y-100296548D01*
X138193917Y-100315128D01*
X138189110Y-100316282D01*
X138189104Y-100316283D01*
X138043499Y-100351240D01*
X137963646Y-100370411D01*
X137959075Y-100372304D01*
X137959073Y-100372305D01*
X137749433Y-100459141D01*
X137749429Y-100459143D01*
X137744859Y-100461036D01*
X137542943Y-100584770D01*
X137362868Y-100738568D01*
X137209070Y-100918643D01*
X137085336Y-101120559D01*
X137083443Y-101125129D01*
X137083441Y-101125133D01*
X136996605Y-101334773D01*
X136994711Y-101339346D01*
X136939428Y-101569617D01*
X136920848Y-101805700D01*
X127254500Y-101805700D01*
X127254500Y-75148649D01*
X146922951Y-75148649D01*
X146936829Y-75360377D01*
X146989058Y-75566031D01*
X146991477Y-75571278D01*
X147072439Y-75746898D01*
X147077890Y-75758723D01*
X147200350Y-75932000D01*
X147352337Y-76080059D01*
X147357133Y-76083264D01*
X147357136Y-76083266D01*
X147499186Y-76178180D01*
X147528760Y-76197941D01*
X147534063Y-76200219D01*
X147534066Y-76200221D01*
X147624238Y-76238962D01*
X147678931Y-76284231D01*
X147700500Y-76354730D01*
X147700500Y-78209759D01*
X147700030Y-78220630D01*
X147696417Y-78262346D01*
X147698928Y-78272454D01*
X147706922Y-78304635D01*
X147708927Y-78314321D01*
X147716078Y-78357283D01*
X147721024Y-78366449D01*
X147722599Y-78371049D01*
X147724524Y-78375498D01*
X147727035Y-78385607D01*
X147732685Y-78394357D01*
X147750670Y-78422211D01*
X147755707Y-78430729D01*
X147771442Y-78459892D01*
X147771445Y-78459895D01*
X147776388Y-78469057D01*
X147784030Y-78476122D01*
X147787011Y-78479965D01*
X147790283Y-78483560D01*
X147795929Y-78492304D01*
X147804106Y-78498750D01*
X147830147Y-78519279D01*
X147837664Y-78525699D01*
X147869652Y-78555269D01*
X147879177Y-78559480D01*
X147883241Y-78562150D01*
X147887491Y-78564486D01*
X147895670Y-78570934D01*
X147936773Y-78585369D01*
X147945966Y-78589008D01*
X147985813Y-78606624D01*
X147996185Y-78607523D01*
X148003858Y-78609493D01*
X148008023Y-78610390D01*
X148015502Y-78613016D01*
X148021091Y-78613500D01*
X148059759Y-78613500D01*
X148070630Y-78613970D01*
X148112346Y-78617583D01*
X148122455Y-78615072D01*
X148132837Y-78614255D01*
X148132887Y-78614884D01*
X148144199Y-78613500D01*
X160063788Y-78613500D01*
X160131909Y-78633502D01*
X160152883Y-78650405D01*
X165697595Y-84195117D01*
X165731621Y-84257429D01*
X165734500Y-84284212D01*
X165734500Y-100533177D01*
X165714498Y-100601298D01*
X165666875Y-100644839D01*
X165541261Y-100710508D01*
X165541257Y-100710511D01*
X165535801Y-100713363D01*
X165374635Y-100842943D01*
X165241708Y-101001360D01*
X165142082Y-101182578D01*
X165079553Y-101379696D01*
X165078867Y-101385813D01*
X165078866Y-101385817D01*
X165075905Y-101412217D01*
X165056501Y-101585206D01*
X165073806Y-101791278D01*
X165130807Y-101990066D01*
X165133625Y-101995548D01*
X165133626Y-101995552D01*
X165222514Y-102168509D01*
X165222517Y-102168513D01*
X165225334Y-102173995D01*
X165353786Y-102336061D01*
X165358479Y-102340055D01*
X165358480Y-102340056D01*
X165505938Y-102465552D01*
X165511271Y-102470091D01*
X165691789Y-102570980D01*
X165888466Y-102634884D01*
X166093809Y-102659370D01*
X166099944Y-102658898D01*
X166099946Y-102658898D01*
X166293856Y-102643977D01*
X166293860Y-102643976D01*
X166299998Y-102643504D01*
X166499178Y-102587892D01*
X166504682Y-102585112D01*
X166504684Y-102585111D01*
X166678262Y-102497431D01*
X166678264Y-102497430D01*
X166683763Y-102494652D01*
X166846722Y-102367334D01*
X166850748Y-102362670D01*
X166850751Y-102362667D01*
X166977819Y-102215457D01*
X166977820Y-102215455D01*
X166981848Y-102210789D01*
X167070887Y-102054053D01*
X167080950Y-102036340D01*
X167080952Y-102036336D01*
X167083995Y-102030979D01*
X167116632Y-101932866D01*
X167147325Y-101840601D01*
X167147326Y-101840598D01*
X167149270Y-101834753D01*
X167175189Y-101629586D01*
X167175602Y-101600000D01*
X167155422Y-101394189D01*
X167095651Y-101196217D01*
X166998565Y-101013625D01*
X166994674Y-101008855D01*
X166994672Y-101008851D01*
X166871758Y-100858143D01*
X166871755Y-100858140D01*
X166867863Y-100853368D01*
X166860966Y-100847662D01*
X166713271Y-100725478D01*
X166713266Y-100725475D01*
X166708522Y-100721550D01*
X166563570Y-100643175D01*
X166513163Y-100593181D01*
X166497500Y-100532340D01*
X166497500Y-84128140D01*
X166500087Y-84103824D01*
X166500154Y-84102401D01*
X166502346Y-84092220D01*
X166498373Y-84058652D01*
X166498021Y-84052678D01*
X166497928Y-84052686D01*
X166497500Y-84047508D01*
X166497500Y-84042308D01*
X166496646Y-84037176D01*
X166494314Y-84023165D01*
X166493477Y-84017286D01*
X166488642Y-83976433D01*
X166488642Y-83976432D01*
X166487418Y-83966093D01*
X166483433Y-83957794D01*
X166481922Y-83948717D01*
X166457442Y-83903349D01*
X166454761Y-83898086D01*
X166435869Y-83858743D01*
X166432440Y-83851602D01*
X166428831Y-83847308D01*
X166426905Y-83845382D01*
X166425109Y-83843424D01*
X166425079Y-83843367D01*
X166425208Y-83843249D01*
X166424710Y-83842684D01*
X166421612Y-83836943D01*
X166381804Y-83800145D01*
X166378239Y-83796716D01*
X160582044Y-78000521D01*
X160566685Y-77981505D01*
X160565719Y-77980444D01*
X160560071Y-77971696D01*
X160533528Y-77950771D01*
X160529053Y-77946794D01*
X160528992Y-77946865D01*
X160525035Y-77943512D01*
X160521352Y-77939829D01*
X160505561Y-77928545D01*
X160500815Y-77924982D01*
X160468507Y-77899512D01*
X160468506Y-77899511D01*
X160460330Y-77893066D01*
X160451643Y-77890015D01*
X160444157Y-77884666D01*
X160434181Y-77881683D01*
X160434180Y-77881682D01*
X160394789Y-77869902D01*
X160389157Y-77868072D01*
X160340498Y-77850984D01*
X160334909Y-77850500D01*
X160332198Y-77850500D01*
X160329531Y-77850385D01*
X160329468Y-77850366D01*
X160329475Y-77850192D01*
X160328729Y-77850145D01*
X160322476Y-77848275D01*
X160273692Y-77850192D01*
X160268322Y-77850403D01*
X160263375Y-77850500D01*
X148589500Y-77850500D01*
X148521379Y-77830498D01*
X148474886Y-77776842D01*
X148463500Y-77724500D01*
X148463500Y-76359078D01*
X148483502Y-76290957D01*
X148537158Y-76244464D01*
X148547076Y-76240528D01*
X148548117Y-76240064D01*
X148553589Y-76238207D01*
X148558632Y-76235383D01*
X148733670Y-76137357D01*
X148733674Y-76137354D01*
X148738717Y-76134530D01*
X148901852Y-75998852D01*
X149037530Y-75835717D01*
X149040354Y-75830674D01*
X149040357Y-75830670D01*
X149138383Y-75655632D01*
X149138384Y-75655630D01*
X149141207Y-75650589D01*
X149175949Y-75548240D01*
X149207554Y-75455136D01*
X149207555Y-75455131D01*
X149209410Y-75449667D01*
X149220820Y-75370979D01*
X149239324Y-75243355D01*
X149239857Y-75239681D01*
X149241446Y-75179000D01*
X149222031Y-74967708D01*
X149213490Y-74937421D01*
X149166004Y-74769051D01*
X149166003Y-74769049D01*
X149164436Y-74763492D01*
X149152999Y-74740299D01*
X149073145Y-74578372D01*
X149070590Y-74573191D01*
X148943636Y-74403179D01*
X148924431Y-74385426D01*
X148792066Y-74263069D01*
X148792063Y-74263067D01*
X148787826Y-74259150D01*
X148608377Y-74145926D01*
X148411300Y-74067300D01*
X148405640Y-74066174D01*
X148405636Y-74066173D01*
X148289528Y-74043078D01*
X148226618Y-74010170D01*
X148191486Y-73948475D01*
X148195286Y-73877581D01*
X148236812Y-73819995D01*
X148302878Y-73794000D01*
X148314101Y-73793499D01*
X149007066Y-73793499D01*
X149043990Y-73786155D01*
X149069126Y-73781156D01*
X149069128Y-73781155D01*
X149081301Y-73778734D01*
X149091621Y-73771839D01*
X149091622Y-73771838D01*
X149155168Y-73729377D01*
X149165484Y-73722484D01*
X149221734Y-73638301D01*
X149236500Y-73564067D01*
X149236500Y-73146500D01*
X149256502Y-73078379D01*
X149310158Y-73031886D01*
X149362500Y-73020500D01*
X160517501Y-73020500D01*
X160585622Y-73040502D01*
X160632115Y-73094158D01*
X160643501Y-73146500D01*
X160643501Y-73569066D01*
X160658266Y-73643301D01*
X160714516Y-73727484D01*
X160798699Y-73783734D01*
X160872933Y-73798500D01*
X161566089Y-73798500D01*
X161634210Y-73818502D01*
X161680703Y-73872158D01*
X161690807Y-73942432D01*
X161661313Y-74007012D01*
X161601587Y-74045396D01*
X161587432Y-74048679D01*
X161497913Y-74064061D01*
X161298846Y-74137501D01*
X161293885Y-74140453D01*
X161293884Y-74140453D01*
X161121463Y-74243032D01*
X161121460Y-74243034D01*
X161116495Y-74245988D01*
X161112155Y-74249794D01*
X161112151Y-74249797D01*
X160967010Y-74377083D01*
X160956968Y-74385890D01*
X160953393Y-74390425D01*
X160953392Y-74390426D01*
X160829549Y-74547520D01*
X160825607Y-74552520D01*
X160726812Y-74740299D01*
X160663891Y-74942938D01*
X160638951Y-75153649D01*
X160652829Y-75365377D01*
X160705058Y-75571031D01*
X160793890Y-75763723D01*
X160916350Y-75937000D01*
X160920484Y-75941027D01*
X161059071Y-76076032D01*
X161068337Y-76085059D01*
X161073133Y-76088264D01*
X161073136Y-76088266D01*
X161215186Y-76183180D01*
X161244760Y-76202941D01*
X161250063Y-76205219D01*
X161250066Y-76205221D01*
X161434404Y-76284419D01*
X161439711Y-76286699D01*
X161515750Y-76303905D01*
X161641025Y-76332252D01*
X161641030Y-76332253D01*
X161646662Y-76333527D01*
X161652433Y-76333754D01*
X161652435Y-76333754D01*
X161717911Y-76336326D01*
X161858681Y-76341857D01*
X161963674Y-76326634D01*
X162062953Y-76312239D01*
X162062958Y-76312238D01*
X162068667Y-76311410D01*
X162074131Y-76309555D01*
X162074136Y-76309554D01*
X162194229Y-76268788D01*
X162231304Y-76256203D01*
X162302238Y-76253247D01*
X162360899Y-76286421D01*
X169507595Y-83433117D01*
X169541621Y-83495429D01*
X169544500Y-83522212D01*
X169544500Y-100533177D01*
X169524498Y-100601298D01*
X169476875Y-100644839D01*
X169351261Y-100710508D01*
X169351257Y-100710511D01*
X169345801Y-100713363D01*
X169184635Y-100842943D01*
X169051708Y-101001360D01*
X168952082Y-101182578D01*
X168889553Y-101379696D01*
X168888867Y-101385813D01*
X168888866Y-101385817D01*
X168885905Y-101412217D01*
X168866501Y-101585206D01*
X168883806Y-101791278D01*
X168940807Y-101990066D01*
X168943625Y-101995548D01*
X168943626Y-101995552D01*
X169032514Y-102168509D01*
X169032517Y-102168513D01*
X169035334Y-102173995D01*
X169163786Y-102336061D01*
X169168479Y-102340055D01*
X169168480Y-102340056D01*
X169315938Y-102465552D01*
X169321271Y-102470091D01*
X169501789Y-102570980D01*
X169698466Y-102634884D01*
X169903809Y-102659370D01*
X169909944Y-102658898D01*
X169909946Y-102658898D01*
X170103856Y-102643977D01*
X170103860Y-102643976D01*
X170109998Y-102643504D01*
X170309178Y-102587892D01*
X170314682Y-102585112D01*
X170314684Y-102585111D01*
X170488262Y-102497431D01*
X170488264Y-102497430D01*
X170493763Y-102494652D01*
X170656722Y-102367334D01*
X170660748Y-102362670D01*
X170660751Y-102362667D01*
X170787819Y-102215457D01*
X170787820Y-102215455D01*
X170791848Y-102210789D01*
X170880887Y-102054053D01*
X170890950Y-102036340D01*
X170890952Y-102036336D01*
X170893995Y-102030979D01*
X170926632Y-101932866D01*
X170957325Y-101840601D01*
X170957326Y-101840598D01*
X170959270Y-101834753D01*
X170985189Y-101629586D01*
X170985602Y-101600000D01*
X170965422Y-101394189D01*
X170905651Y-101196217D01*
X170808565Y-101013625D01*
X170804674Y-101008855D01*
X170804672Y-101008851D01*
X170681758Y-100858143D01*
X170681755Y-100858140D01*
X170677863Y-100853368D01*
X170670966Y-100847662D01*
X170523271Y-100725478D01*
X170523266Y-100725475D01*
X170518522Y-100721550D01*
X170373570Y-100643175D01*
X170323163Y-100593181D01*
X170307500Y-100532340D01*
X170307500Y-83366140D01*
X170310087Y-83341824D01*
X170310154Y-83340401D01*
X170312346Y-83330220D01*
X170308373Y-83296652D01*
X170308021Y-83290678D01*
X170307928Y-83290686D01*
X170307500Y-83285508D01*
X170307500Y-83280308D01*
X170306646Y-83275176D01*
X170304314Y-83261165D01*
X170303477Y-83255286D01*
X170298642Y-83214433D01*
X170298642Y-83214432D01*
X170297418Y-83204093D01*
X170293433Y-83195794D01*
X170291922Y-83186717D01*
X170267442Y-83141349D01*
X170264761Y-83136086D01*
X170245869Y-83096743D01*
X170242440Y-83089602D01*
X170238831Y-83085308D01*
X170236905Y-83083382D01*
X170235109Y-83081424D01*
X170235079Y-83081367D01*
X170235208Y-83081249D01*
X170234710Y-83080684D01*
X170231612Y-83074943D01*
X170191804Y-83038145D01*
X170188239Y-83034716D01*
X162900421Y-75746898D01*
X162866395Y-75684586D01*
X162870203Y-75617304D01*
X162925410Y-75454667D01*
X162926964Y-75443953D01*
X162955324Y-75248355D01*
X162955857Y-75244681D01*
X162957446Y-75184000D01*
X162938031Y-74972708D01*
X162935053Y-74962147D01*
X162882004Y-74774051D01*
X162882003Y-74774049D01*
X162880436Y-74768492D01*
X162866787Y-74740813D01*
X162789145Y-74583372D01*
X162786590Y-74578191D01*
X162659636Y-74408179D01*
X162635022Y-74385426D01*
X162508066Y-74268069D01*
X162508063Y-74268067D01*
X162503826Y-74264150D01*
X162324377Y-74150926D01*
X162127300Y-74072300D01*
X162121640Y-74071174D01*
X162121636Y-74071173D01*
X162005528Y-74048078D01*
X161942618Y-74015170D01*
X161907486Y-73953475D01*
X161911286Y-73882581D01*
X161952812Y-73824995D01*
X162018878Y-73799000D01*
X162030101Y-73798499D01*
X162723066Y-73798499D01*
X162758818Y-73791388D01*
X162785126Y-73786156D01*
X162785128Y-73786155D01*
X162797301Y-73783734D01*
X162807621Y-73776839D01*
X162807622Y-73776838D01*
X162871168Y-73734377D01*
X162881484Y-73727484D01*
X162937734Y-73643301D01*
X162952500Y-73569067D01*
X162952500Y-73151500D01*
X162972502Y-73083379D01*
X163026158Y-73036886D01*
X163078500Y-73025500D01*
X164889788Y-73025500D01*
X164957909Y-73045502D01*
X164978883Y-73062405D01*
X171539595Y-79623117D01*
X171573621Y-79685429D01*
X171576500Y-79712212D01*
X171576500Y-110533788D01*
X171556498Y-110601909D01*
X171539595Y-110622883D01*
X169550882Y-112611595D01*
X169488570Y-112645621D01*
X169461787Y-112648500D01*
X166888217Y-112648500D01*
X166820096Y-112628498D01*
X166786735Y-112597182D01*
X166785684Y-112595753D01*
X166719954Y-112506436D01*
X166649247Y-112446366D01*
X166590028Y-112396055D01*
X166590024Y-112396052D01*
X166584449Y-112391316D01*
X166426096Y-112310457D01*
X166418991Y-112308718D01*
X166418987Y-112308717D01*
X166323679Y-112285396D01*
X166253388Y-112268196D01*
X166247786Y-112267848D01*
X166247783Y-112267848D01*
X166244109Y-112267620D01*
X166244099Y-112267620D01*
X166242170Y-112267500D01*
X165732975Y-112267500D01*
X165640098Y-112278328D01*
X165608165Y-112282051D01*
X165608163Y-112282051D01*
X165600893Y-112282899D01*
X165594016Y-112285395D01*
X165594013Y-112285396D01*
X165440638Y-112341069D01*
X165433759Y-112343566D01*
X165285065Y-112441054D01*
X165162786Y-112570135D01*
X165073481Y-112723884D01*
X165021942Y-112894054D01*
X165010932Y-113071516D01*
X165012172Y-113078732D01*
X165012172Y-113078734D01*
X165039803Y-113239535D01*
X165041043Y-113246751D01*
X165110659Y-113410359D01*
X165216046Y-113553564D01*
X165221630Y-113558308D01*
X165235586Y-113570165D01*
X165274550Y-113629514D01*
X165275242Y-113700507D01*
X165245479Y-113752842D01*
X165162786Y-113840135D01*
X165073481Y-113993884D01*
X165021942Y-114164054D01*
X165010932Y-114341516D01*
X165012172Y-114348732D01*
X165012172Y-114348734D01*
X165040412Y-114513078D01*
X165032235Y-114583602D01*
X164991797Y-114635243D01*
X164913772Y-114693719D01*
X164901215Y-114706276D01*
X164824714Y-114808351D01*
X164816176Y-114823946D01*
X164771022Y-114944394D01*
X164767395Y-114959649D01*
X164761869Y-115010514D01*
X164761500Y-115017328D01*
X164761500Y-115297885D01*
X164765975Y-115313124D01*
X164767365Y-115314329D01*
X164775048Y-115316000D01*
X167156384Y-115316000D01*
X167171623Y-115311525D01*
X167172828Y-115310135D01*
X167174499Y-115302452D01*
X167174499Y-115017331D01*
X167174129Y-115010510D01*
X167168605Y-114959648D01*
X167164979Y-114944396D01*
X167130240Y-114851730D01*
X167125057Y-114780922D01*
X167158978Y-114718553D01*
X167221233Y-114684424D01*
X167248222Y-114681500D01*
X169875495Y-114681500D01*
X169943616Y-114701502D01*
X169987561Y-114749906D01*
X170048514Y-114868509D01*
X170048517Y-114868513D01*
X170051334Y-114873995D01*
X170179786Y-115036061D01*
X170184479Y-115040055D01*
X170184480Y-115040056D01*
X170290899Y-115130625D01*
X170337271Y-115170091D01*
X170517789Y-115270980D01*
X170714466Y-115334884D01*
X170919809Y-115359370D01*
X170925944Y-115358898D01*
X170925946Y-115358898D01*
X171119856Y-115343977D01*
X171119860Y-115343976D01*
X171125998Y-115343504D01*
X171325178Y-115287892D01*
X171330682Y-115285112D01*
X171330684Y-115285111D01*
X171504262Y-115197431D01*
X171504264Y-115197430D01*
X171509763Y-115194652D01*
X171672722Y-115067334D01*
X171676748Y-115062670D01*
X171676751Y-115062667D01*
X171803819Y-114915457D01*
X171803820Y-114915455D01*
X171807848Y-114910789D01*
X171881623Y-114780922D01*
X171906950Y-114736340D01*
X171906952Y-114736336D01*
X171909995Y-114730979D01*
X171975270Y-114534753D01*
X172001189Y-114329586D01*
X172001602Y-114300000D01*
X171981422Y-114094189D01*
X171921651Y-113896217D01*
X171855440Y-113771692D01*
X171827459Y-113719067D01*
X171827457Y-113719064D01*
X171824565Y-113713625D01*
X171820674Y-113708855D01*
X171820672Y-113708851D01*
X171697758Y-113558143D01*
X171697755Y-113558140D01*
X171693863Y-113553368D01*
X171689114Y-113549439D01*
X171539271Y-113425478D01*
X171539266Y-113425475D01*
X171534522Y-113421550D01*
X171529103Y-113418620D01*
X171529100Y-113418618D01*
X171358032Y-113326122D01*
X171358027Y-113326120D01*
X171352612Y-113323192D01*
X171155063Y-113262040D01*
X171148938Y-113261396D01*
X171148937Y-113261396D01*
X170955526Y-113241068D01*
X170955524Y-113241068D01*
X170949397Y-113240424D01*
X170823229Y-113251906D01*
X170749591Y-113258607D01*
X170749590Y-113258607D01*
X170743450Y-113259166D01*
X170545066Y-113317554D01*
X170539601Y-113320411D01*
X170367261Y-113410508D01*
X170367257Y-113410511D01*
X170361801Y-113413363D01*
X170200635Y-113542943D01*
X170067708Y-113701360D01*
X170064739Y-113706760D01*
X170064738Y-113706762D01*
X169984232Y-113853201D01*
X169933887Y-113903260D01*
X169873818Y-113918500D01*
X166888217Y-113918500D01*
X166820096Y-113898498D01*
X166786735Y-113867182D01*
X166724295Y-113782335D01*
X166719954Y-113776436D01*
X166714370Y-113771692D01*
X166700414Y-113759835D01*
X166661450Y-113700486D01*
X166660758Y-113629493D01*
X166690521Y-113577158D01*
X166768180Y-113495179D01*
X166773214Y-113489865D01*
X166782304Y-113474215D01*
X166833814Y-113425357D01*
X166891258Y-113411500D01*
X169617865Y-113411500D01*
X169642164Y-113414086D01*
X169643602Y-113414154D01*
X169653780Y-113416345D01*
X169687341Y-113412373D01*
X169693320Y-113412021D01*
X169693312Y-113411928D01*
X169698490Y-113411500D01*
X169703692Y-113411500D01*
X169722846Y-113408312D01*
X169728704Y-113407478D01*
X169745318Y-113405512D01*
X169769567Y-113402642D01*
X169769568Y-113402642D01*
X169779907Y-113401418D01*
X169788206Y-113397433D01*
X169797283Y-113395922D01*
X169842651Y-113371442D01*
X169847914Y-113368761D01*
X169887250Y-113349873D01*
X169887254Y-113349870D01*
X169894398Y-113346440D01*
X169898692Y-113342830D01*
X169900624Y-113340898D01*
X169902573Y-113339111D01*
X169902626Y-113339082D01*
X169902745Y-113339212D01*
X169903313Y-113338711D01*
X169909057Y-113335612D01*
X169945867Y-113295791D01*
X169949296Y-113292226D01*
X172189479Y-111052044D01*
X172208495Y-111036685D01*
X172209556Y-111035719D01*
X172218304Y-111030071D01*
X172239229Y-111003528D01*
X172243208Y-110999050D01*
X172243137Y-110998990D01*
X172246490Y-110995033D01*
X172250171Y-110991352D01*
X172261469Y-110975543D01*
X172265032Y-110970798D01*
X172290485Y-110938510D01*
X172296934Y-110930330D01*
X172299984Y-110921645D01*
X172305334Y-110914158D01*
X172320109Y-110864753D01*
X172321930Y-110859150D01*
X172336388Y-110817981D01*
X172339016Y-110810498D01*
X172339500Y-110804909D01*
X172339500Y-110802196D01*
X172339615Y-110799531D01*
X172339634Y-110799468D01*
X172339808Y-110799475D01*
X172339855Y-110798729D01*
X172341725Y-110792476D01*
X172339597Y-110738322D01*
X172339500Y-110733375D01*
X172339500Y-109205206D01*
X172676501Y-109205206D01*
X172693806Y-109411278D01*
X172750807Y-109610066D01*
X172753625Y-109615548D01*
X172753626Y-109615552D01*
X172842514Y-109788509D01*
X172842517Y-109788513D01*
X172845334Y-109793995D01*
X172973786Y-109956061D01*
X172978479Y-109960055D01*
X172978480Y-109960056D01*
X173041397Y-110013602D01*
X173131271Y-110090091D01*
X173311789Y-110190980D01*
X173508466Y-110254884D01*
X173713809Y-110279370D01*
X173719944Y-110278898D01*
X173719946Y-110278898D01*
X173913856Y-110263977D01*
X173913860Y-110263976D01*
X173919998Y-110263504D01*
X174119178Y-110207892D01*
X174124682Y-110205112D01*
X174124684Y-110205111D01*
X174298262Y-110117431D01*
X174298264Y-110117430D01*
X174303763Y-110114652D01*
X174466722Y-109987334D01*
X174470748Y-109982670D01*
X174470751Y-109982667D01*
X174597819Y-109835457D01*
X174597820Y-109835455D01*
X174601848Y-109830789D01*
X174656356Y-109734838D01*
X174695881Y-109665263D01*
X174746921Y-109615912D01*
X174805437Y-109601500D01*
X176479495Y-109601500D01*
X176547616Y-109621502D01*
X176591561Y-109669906D01*
X176652514Y-109788509D01*
X176652517Y-109788513D01*
X176655334Y-109793995D01*
X176783786Y-109956061D01*
X176788479Y-109960055D01*
X176788480Y-109960056D01*
X176851397Y-110013602D01*
X176941271Y-110090091D01*
X177121789Y-110190980D01*
X177318466Y-110254884D01*
X177523809Y-110279370D01*
X177529944Y-110278898D01*
X177529946Y-110278898D01*
X177723856Y-110263977D01*
X177723860Y-110263976D01*
X177729998Y-110263504D01*
X177909225Y-110213463D01*
X177980214Y-110214409D01*
X178032203Y-110245726D01*
X178101049Y-110314571D01*
X178143596Y-110357119D01*
X178177621Y-110419431D01*
X178180500Y-110446214D01*
X178180500Y-113233177D01*
X178160498Y-113301298D01*
X178112875Y-113344839D01*
X178103246Y-113349873D01*
X177987261Y-113410508D01*
X177987257Y-113410511D01*
X177981801Y-113413363D01*
X177820635Y-113542943D01*
X177687708Y-113701360D01*
X177588082Y-113882578D01*
X177525553Y-114079696D01*
X177524867Y-114085813D01*
X177524866Y-114085817D01*
X177515271Y-114171359D01*
X177502501Y-114285206D01*
X177519806Y-114491278D01*
X177576807Y-114690066D01*
X177579625Y-114695548D01*
X177579626Y-114695552D01*
X177668514Y-114868509D01*
X177668517Y-114868513D01*
X177671334Y-114873995D01*
X177799786Y-115036061D01*
X177804479Y-115040055D01*
X177804480Y-115040056D01*
X177950556Y-115164376D01*
X177957271Y-115170091D01*
X177959338Y-115171246D01*
X178003035Y-115225528D01*
X178010587Y-115296122D01*
X177975696Y-115362781D01*
X175536521Y-117801956D01*
X175517505Y-117817315D01*
X175516444Y-117818281D01*
X175507696Y-117823929D01*
X175501250Y-117832106D01*
X175486771Y-117850472D01*
X175482794Y-117854947D01*
X175482865Y-117855008D01*
X175479512Y-117858965D01*
X175475829Y-117862648D01*
X175472803Y-117866883D01*
X175472801Y-117866885D01*
X175464547Y-117878436D01*
X175460984Y-117883182D01*
X175429066Y-117923670D01*
X175426015Y-117932357D01*
X175420666Y-117939843D01*
X175417683Y-117949819D01*
X175417682Y-117949820D01*
X175405902Y-117989211D01*
X175404072Y-117994843D01*
X175386984Y-118043502D01*
X175386500Y-118049091D01*
X175386500Y-118051802D01*
X175386385Y-118054469D01*
X175386366Y-118054532D01*
X175386192Y-118054525D01*
X175386145Y-118055271D01*
X175384275Y-118061524D01*
X175384684Y-118071928D01*
X175386403Y-118115678D01*
X175386500Y-118120625D01*
X175386500Y-118541122D01*
X175366498Y-118609243D01*
X175312842Y-118655736D01*
X175260500Y-118667122D01*
X174942934Y-118667122D01*
X174907182Y-118674233D01*
X174880874Y-118679465D01*
X174880872Y-118679466D01*
X174868699Y-118681887D01*
X174858379Y-118688782D01*
X174858378Y-118688783D01*
X174797985Y-118729137D01*
X174784516Y-118738137D01*
X174728266Y-118822320D01*
X174713500Y-118896554D01*
X174713501Y-120546687D01*
X174728266Y-120620922D01*
X174784516Y-120705105D01*
X174868699Y-120761355D01*
X174942933Y-120776121D01*
X175204544Y-120776121D01*
X175272665Y-120796123D01*
X175319158Y-120849779D01*
X175329262Y-120920053D01*
X175299768Y-120984633D01*
X175257794Y-121016316D01*
X175116489Y-121082207D01*
X175106994Y-121087690D01*
X175054952Y-121124130D01*
X175046576Y-121134609D01*
X175053644Y-121148055D01*
X175755188Y-121849599D01*
X175769132Y-121857213D01*
X175770965Y-121857082D01*
X175777580Y-121852831D01*
X176483077Y-121147334D01*
X176489507Y-121135559D01*
X176480211Y-121123544D01*
X176429006Y-121087690D01*
X176419511Y-121082207D01*
X176278205Y-121016315D01*
X176224920Y-120969397D01*
X176205459Y-120901120D01*
X176226001Y-120833160D01*
X176280024Y-120787095D01*
X176331454Y-120776120D01*
X176593066Y-120776120D01*
X176635058Y-120767768D01*
X176655126Y-120763777D01*
X176655128Y-120763776D01*
X176667301Y-120761355D01*
X176677621Y-120754460D01*
X176677622Y-120754459D01*
X176741168Y-120711998D01*
X176751484Y-120705105D01*
X176807734Y-120620922D01*
X176822500Y-120546688D01*
X176822499Y-118896555D01*
X176807734Y-118822320D01*
X176751484Y-118738137D01*
X176667301Y-118681887D01*
X176593067Y-118667121D01*
X176275500Y-118667121D01*
X176207379Y-118647119D01*
X176160886Y-118593463D01*
X176149500Y-118541121D01*
X176149500Y-118320212D01*
X176169502Y-118252091D01*
X176186405Y-118231117D01*
X178793476Y-115624046D01*
X178812499Y-115608682D01*
X178813558Y-115607718D01*
X178822304Y-115602071D01*
X178828752Y-115593892D01*
X178828754Y-115593890D01*
X178843234Y-115575523D01*
X178847209Y-115571050D01*
X178847137Y-115570989D01*
X178850490Y-115567032D01*
X178854171Y-115563351D01*
X178865455Y-115547560D01*
X178869019Y-115542814D01*
X178894487Y-115510508D01*
X178900934Y-115502330D01*
X178903984Y-115493645D01*
X178909335Y-115486157D01*
X178924110Y-115436750D01*
X178925926Y-115431163D01*
X178943016Y-115382498D01*
X178943500Y-115376909D01*
X178943500Y-115374198D01*
X178943615Y-115371529D01*
X178943634Y-115371468D01*
X178943808Y-115371475D01*
X178943855Y-115370728D01*
X178945725Y-115364475D01*
X178945316Y-115354065D01*
X178945858Y-115349775D01*
X178974240Y-115284698D01*
X179014055Y-115253100D01*
X179124262Y-115197431D01*
X179124264Y-115197430D01*
X179129763Y-115194652D01*
X179292722Y-115067334D01*
X179296748Y-115062670D01*
X179296751Y-115062667D01*
X179423819Y-114915457D01*
X179423820Y-114915455D01*
X179427848Y-114910789D01*
X179501623Y-114780922D01*
X179526950Y-114736340D01*
X179526952Y-114736336D01*
X179529995Y-114730979D01*
X179595270Y-114534753D01*
X179621189Y-114329586D01*
X179621602Y-114300000D01*
X179601422Y-114094189D01*
X179541651Y-113896217D01*
X179475440Y-113771692D01*
X179447459Y-113719067D01*
X179447457Y-113719064D01*
X179444565Y-113713625D01*
X179440674Y-113708855D01*
X179440672Y-113708851D01*
X179317758Y-113558143D01*
X179317755Y-113558140D01*
X179313863Y-113553368D01*
X179309114Y-113549439D01*
X179159271Y-113425478D01*
X179159266Y-113425475D01*
X179154522Y-113421550D01*
X179009570Y-113343175D01*
X178959163Y-113293181D01*
X178943500Y-113232340D01*
X178943500Y-110290135D01*
X178946086Y-110265836D01*
X178946154Y-110264398D01*
X178948345Y-110254220D01*
X178944373Y-110220658D01*
X178944021Y-110214680D01*
X178943928Y-110214688D01*
X178943500Y-110209510D01*
X178943500Y-110204308D01*
X178940312Y-110185154D01*
X178939477Y-110179289D01*
X178934642Y-110138433D01*
X178934642Y-110138432D01*
X178933418Y-110128093D01*
X178929433Y-110119794D01*
X178927922Y-110110717D01*
X178903442Y-110065349D01*
X178900761Y-110060086D01*
X178881873Y-110020750D01*
X178881870Y-110020746D01*
X178878440Y-110013602D01*
X178874830Y-110009308D01*
X178872898Y-110007376D01*
X178871111Y-110005427D01*
X178871082Y-110005374D01*
X178871212Y-110005255D01*
X178870711Y-110004687D01*
X178867612Y-109998943D01*
X178827805Y-109962146D01*
X178824238Y-109958716D01*
X178569647Y-109704124D01*
X178535622Y-109641812D01*
X178539184Y-109575258D01*
X178577325Y-109460601D01*
X178577326Y-109460598D01*
X178579270Y-109454753D01*
X178605189Y-109249586D01*
X178605602Y-109220000D01*
X178585422Y-109014189D01*
X178525651Y-108816217D01*
X178428565Y-108633625D01*
X178424674Y-108628855D01*
X178424672Y-108628851D01*
X178301758Y-108478143D01*
X178301755Y-108478140D01*
X178297863Y-108473368D01*
X178290966Y-108467662D01*
X178143271Y-108345478D01*
X178143266Y-108345475D01*
X178138522Y-108341550D01*
X178133103Y-108338620D01*
X178133100Y-108338618D01*
X177962032Y-108246122D01*
X177962027Y-108246120D01*
X177956612Y-108243192D01*
X177759063Y-108182040D01*
X177752938Y-108181396D01*
X177752937Y-108181396D01*
X177559526Y-108161068D01*
X177559524Y-108161068D01*
X177553397Y-108160424D01*
X177427229Y-108171906D01*
X177353591Y-108178607D01*
X177353590Y-108178607D01*
X177347450Y-108179166D01*
X177149066Y-108237554D01*
X177143601Y-108240411D01*
X176971261Y-108330508D01*
X176971257Y-108330511D01*
X176965801Y-108333363D01*
X176804635Y-108462943D01*
X176671708Y-108621360D01*
X176668739Y-108626760D01*
X176668738Y-108626762D01*
X176588232Y-108773201D01*
X176537887Y-108823260D01*
X176477818Y-108838500D01*
X174803207Y-108838500D01*
X174735086Y-108818498D01*
X174691956Y-108771654D01*
X174618565Y-108633625D01*
X174614674Y-108628855D01*
X174614672Y-108628851D01*
X174491758Y-108478143D01*
X174491755Y-108478140D01*
X174487863Y-108473368D01*
X174480966Y-108467662D01*
X174333271Y-108345478D01*
X174333266Y-108345475D01*
X174328522Y-108341550D01*
X174323103Y-108338620D01*
X174323100Y-108338618D01*
X174152032Y-108246122D01*
X174152027Y-108246120D01*
X174146612Y-108243192D01*
X173949063Y-108182040D01*
X173942938Y-108181396D01*
X173942937Y-108181396D01*
X173749526Y-108161068D01*
X173749524Y-108161068D01*
X173743397Y-108160424D01*
X173617229Y-108171906D01*
X173543591Y-108178607D01*
X173543590Y-108178607D01*
X173537450Y-108179166D01*
X173339066Y-108237554D01*
X173333601Y-108240411D01*
X173161261Y-108330508D01*
X173161257Y-108330511D01*
X173155801Y-108333363D01*
X172994635Y-108462943D01*
X172861708Y-108621360D01*
X172762082Y-108802578D01*
X172699553Y-108999696D01*
X172676501Y-109205206D01*
X172339500Y-109205206D01*
X172339500Y-101585206D01*
X172676501Y-101585206D01*
X172693806Y-101791278D01*
X172750807Y-101990066D01*
X172753625Y-101995548D01*
X172753626Y-101995552D01*
X172842514Y-102168509D01*
X172842517Y-102168513D01*
X172845334Y-102173995D01*
X172973786Y-102336061D01*
X172978479Y-102340055D01*
X172978480Y-102340056D01*
X173125938Y-102465552D01*
X173131271Y-102470091D01*
X173311789Y-102570980D01*
X173508466Y-102634884D01*
X173713809Y-102659370D01*
X173719944Y-102658898D01*
X173719946Y-102658898D01*
X173913856Y-102643977D01*
X173913860Y-102643976D01*
X173919998Y-102643504D01*
X174119178Y-102587892D01*
X174124682Y-102585112D01*
X174124684Y-102585111D01*
X174298262Y-102497431D01*
X174298264Y-102497430D01*
X174303763Y-102494652D01*
X174466722Y-102367334D01*
X174470748Y-102362670D01*
X174470751Y-102362667D01*
X174597819Y-102215457D01*
X174597820Y-102215455D01*
X174601848Y-102210789D01*
X174690887Y-102054053D01*
X174700950Y-102036340D01*
X174700952Y-102036336D01*
X174703995Y-102030979D01*
X174736632Y-101932866D01*
X174758702Y-101866522D01*
X176263273Y-101866522D01*
X176310764Y-102043761D01*
X176314510Y-102054053D01*
X176406586Y-102251511D01*
X176412069Y-102261007D01*
X176537028Y-102439467D01*
X176544084Y-102447875D01*
X176698125Y-102601916D01*
X176706533Y-102608972D01*
X176884993Y-102733931D01*
X176894489Y-102739414D01*
X177091947Y-102831490D01*
X177102239Y-102835236D01*
X177274503Y-102881394D01*
X177288599Y-102881058D01*
X177292000Y-102873116D01*
X177292000Y-102867967D01*
X177800000Y-102867967D01*
X177803973Y-102881498D01*
X177812522Y-102882727D01*
X177989761Y-102835236D01*
X178000053Y-102831490D01*
X178197511Y-102739414D01*
X178207007Y-102733931D01*
X178385467Y-102608972D01*
X178393875Y-102601916D01*
X178547916Y-102447875D01*
X178554972Y-102439467D01*
X178679931Y-102261007D01*
X178685414Y-102251511D01*
X178777490Y-102054053D01*
X178781236Y-102043761D01*
X178827394Y-101871497D01*
X178827058Y-101857401D01*
X178819116Y-101854000D01*
X177818115Y-101854000D01*
X177802876Y-101858475D01*
X177801671Y-101859865D01*
X177800000Y-101867548D01*
X177800000Y-102867967D01*
X177292000Y-102867967D01*
X177292000Y-101872115D01*
X177287525Y-101856876D01*
X177286135Y-101855671D01*
X177278452Y-101854000D01*
X176278033Y-101854000D01*
X176264502Y-101857973D01*
X176263273Y-101866522D01*
X174758702Y-101866522D01*
X174767325Y-101840601D01*
X174767326Y-101840598D01*
X174769270Y-101834753D01*
X174795189Y-101629586D01*
X174795602Y-101600000D01*
X174775422Y-101394189D01*
X174755590Y-101328503D01*
X176264606Y-101328503D01*
X176264942Y-101342599D01*
X176272884Y-101346000D01*
X177273885Y-101346000D01*
X177289124Y-101341525D01*
X177290329Y-101340135D01*
X177292000Y-101332452D01*
X177292000Y-101327885D01*
X177800000Y-101327885D01*
X177804475Y-101343124D01*
X177805865Y-101344329D01*
X177813548Y-101346000D01*
X178813967Y-101346000D01*
X178827498Y-101342027D01*
X178828727Y-101333478D01*
X178781236Y-101156239D01*
X178777490Y-101145947D01*
X178685414Y-100948489D01*
X178679931Y-100938993D01*
X178554972Y-100760533D01*
X178547916Y-100752125D01*
X178393875Y-100598084D01*
X178385467Y-100591028D01*
X178207007Y-100466069D01*
X178197511Y-100460586D01*
X178000053Y-100368510D01*
X177989761Y-100364764D01*
X177817497Y-100318606D01*
X177803401Y-100318942D01*
X177800000Y-100326884D01*
X177800000Y-101327885D01*
X177292000Y-101327885D01*
X177292000Y-100332033D01*
X177288027Y-100318502D01*
X177279478Y-100317273D01*
X177102239Y-100364764D01*
X177091947Y-100368510D01*
X176894489Y-100460586D01*
X176884993Y-100466069D01*
X176706533Y-100591028D01*
X176698125Y-100598084D01*
X176544084Y-100752125D01*
X176537028Y-100760533D01*
X176412069Y-100938993D01*
X176406586Y-100948489D01*
X176314510Y-101145947D01*
X176310764Y-101156239D01*
X176264606Y-101328503D01*
X174755590Y-101328503D01*
X174715651Y-101196217D01*
X174618565Y-101013625D01*
X174614674Y-101008855D01*
X174614672Y-101008851D01*
X174491758Y-100858143D01*
X174491755Y-100858140D01*
X174487863Y-100853368D01*
X174480966Y-100847662D01*
X174333271Y-100725478D01*
X174333266Y-100725475D01*
X174328522Y-100721550D01*
X174323103Y-100718620D01*
X174323100Y-100718618D01*
X174152032Y-100626122D01*
X174152027Y-100626120D01*
X174146612Y-100623192D01*
X173949063Y-100562040D01*
X173942938Y-100561396D01*
X173942937Y-100561396D01*
X173749526Y-100541068D01*
X173749524Y-100541068D01*
X173743397Y-100540424D01*
X173617229Y-100551906D01*
X173543591Y-100558607D01*
X173543590Y-100558607D01*
X173537450Y-100559166D01*
X173339066Y-100617554D01*
X173333601Y-100620411D01*
X173161261Y-100710508D01*
X173161257Y-100710511D01*
X173155801Y-100713363D01*
X172994635Y-100842943D01*
X172861708Y-101001360D01*
X172762082Y-101182578D01*
X172699553Y-101379696D01*
X172698867Y-101385813D01*
X172698866Y-101385817D01*
X172695905Y-101412217D01*
X172676501Y-101585206D01*
X172339500Y-101585206D01*
X172339500Y-79556140D01*
X172342087Y-79531824D01*
X172342154Y-79530401D01*
X172344346Y-79520220D01*
X172340373Y-79486652D01*
X172340021Y-79480678D01*
X172339928Y-79480686D01*
X172339500Y-79475508D01*
X172339500Y-79470308D01*
X172338646Y-79465176D01*
X172336314Y-79451165D01*
X172335477Y-79445286D01*
X172330642Y-79404433D01*
X172330642Y-79404432D01*
X172329418Y-79394093D01*
X172325433Y-79385794D01*
X172323922Y-79376717D01*
X172299442Y-79331349D01*
X172296761Y-79326086D01*
X172277869Y-79286743D01*
X172274440Y-79279602D01*
X172270831Y-79275308D01*
X172268905Y-79273382D01*
X172267109Y-79271424D01*
X172267079Y-79271367D01*
X172267208Y-79271249D01*
X172266710Y-79270684D01*
X172263612Y-79264943D01*
X172223804Y-79228145D01*
X172220239Y-79224716D01*
X165408044Y-72412521D01*
X165392685Y-72393505D01*
X165391719Y-72392444D01*
X165386071Y-72383696D01*
X165359528Y-72362771D01*
X165355053Y-72358794D01*
X165354992Y-72358865D01*
X165351035Y-72355512D01*
X165347352Y-72351829D01*
X165331561Y-72340545D01*
X165326815Y-72336982D01*
X165294507Y-72311512D01*
X165294506Y-72311511D01*
X165286330Y-72305066D01*
X165277643Y-72302015D01*
X165270157Y-72296666D01*
X165260181Y-72293683D01*
X165260180Y-72293682D01*
X165220789Y-72281902D01*
X165215157Y-72280072D01*
X165166498Y-72262984D01*
X165160909Y-72262500D01*
X165158198Y-72262500D01*
X165155531Y-72262385D01*
X165155468Y-72262366D01*
X165155475Y-72262192D01*
X165154729Y-72262145D01*
X165148476Y-72260275D01*
X165099692Y-72262192D01*
X165094322Y-72262403D01*
X165089375Y-72262500D01*
X163078499Y-72262500D01*
X163010378Y-72242498D01*
X162963885Y-72188842D01*
X162952499Y-72136500D01*
X162952499Y-71718934D01*
X162937734Y-71644699D01*
X162881484Y-71560516D01*
X162797301Y-71504266D01*
X162723067Y-71489500D01*
X161798150Y-71489500D01*
X160872934Y-71489501D01*
X160837182Y-71496612D01*
X160810874Y-71501844D01*
X160810872Y-71501845D01*
X160798699Y-71504266D01*
X160788379Y-71511161D01*
X160788378Y-71511162D01*
X160732315Y-71548623D01*
X160714516Y-71560516D01*
X160658266Y-71644699D01*
X160643500Y-71718933D01*
X160643500Y-72131500D01*
X160623498Y-72199621D01*
X160569842Y-72246114D01*
X160517500Y-72257500D01*
X149362499Y-72257500D01*
X149294378Y-72237498D01*
X149247885Y-72183842D01*
X149236499Y-72131500D01*
X149236499Y-71713934D01*
X149221734Y-71639699D01*
X149165484Y-71555516D01*
X149081301Y-71499266D01*
X149007067Y-71484500D01*
X148082150Y-71484500D01*
X147156934Y-71484501D01*
X147125732Y-71490707D01*
X147094874Y-71496844D01*
X147094872Y-71496845D01*
X147082699Y-71499266D01*
X147072379Y-71506161D01*
X147072378Y-71506162D01*
X147011985Y-71546516D01*
X146998516Y-71555516D01*
X146942266Y-71639699D01*
X146927500Y-71713933D01*
X146927501Y-73564066D01*
X146942266Y-73638301D01*
X146998516Y-73722484D01*
X147082699Y-73778734D01*
X147156933Y-73793500D01*
X147850089Y-73793500D01*
X147918210Y-73813502D01*
X147964703Y-73867158D01*
X147974807Y-73937432D01*
X147945313Y-74002012D01*
X147885587Y-74040396D01*
X147871432Y-74043679D01*
X147781913Y-74059061D01*
X147582846Y-74132501D01*
X147577885Y-74135453D01*
X147577884Y-74135453D01*
X147405463Y-74238032D01*
X147405460Y-74238034D01*
X147400495Y-74240988D01*
X147396155Y-74244794D01*
X147396151Y-74244797D01*
X147369615Y-74268069D01*
X147240968Y-74380890D01*
X147109607Y-74547520D01*
X147010812Y-74735299D01*
X146947891Y-74937938D01*
X146922951Y-75148649D01*
X127254500Y-75148649D01*
X127254500Y-45989312D01*
X147059738Y-45989312D01*
X147096317Y-46271576D01*
X147168870Y-46546799D01*
X147170398Y-46550553D01*
X147170400Y-46550558D01*
X147274662Y-46806654D01*
X147276193Y-46810414D01*
X147416505Y-47058050D01*
X147587479Y-47285600D01*
X147786280Y-47489289D01*
X148009611Y-47665739D01*
X148013086Y-47667821D01*
X148250287Y-47809940D01*
X148250292Y-47809943D01*
X148253766Y-47812024D01*
X148514697Y-47925716D01*
X148784886Y-48004008D01*
X148787980Y-48005367D01*
X148800382Y-48005631D01*
X148800384Y-48005631D01*
X148815837Y-48005959D01*
X148816377Y-48005991D01*
X148818933Y-48006500D01*
X148839912Y-48006500D01*
X148842590Y-48006528D01*
X148889204Y-48007519D01*
X148891731Y-48006535D01*
X148892127Y-48006500D01*
X158955873Y-48006500D01*
X158956269Y-48006535D01*
X158958796Y-48007519D01*
X159005410Y-48006528D01*
X159008088Y-48006500D01*
X159029067Y-48006500D01*
X159031623Y-48005991D01*
X159032163Y-48005959D01*
X159047616Y-48005631D01*
X159047618Y-48005631D01*
X159060020Y-48005367D01*
X159063114Y-48004008D01*
X159075649Y-48000376D01*
X159170529Y-47972883D01*
X159333303Y-47925716D01*
X159594234Y-47812024D01*
X159597708Y-47809943D01*
X159597713Y-47809940D01*
X159834914Y-47667821D01*
X159838389Y-47665739D01*
X160061720Y-47489289D01*
X160260521Y-47285600D01*
X160431495Y-47058050D01*
X160571807Y-46810414D01*
X160573338Y-46806654D01*
X160677600Y-46550558D01*
X160677602Y-46550553D01*
X160679130Y-46546799D01*
X160751683Y-46271576D01*
X160788262Y-45989312D01*
X160788262Y-45704688D01*
X160751683Y-45422424D01*
X160679130Y-45147201D01*
X160633784Y-45035817D01*
X160573338Y-44887346D01*
X160573337Y-44887343D01*
X160571807Y-44883586D01*
X160431495Y-44635950D01*
X160260521Y-44408400D01*
X160061720Y-44204711D01*
X159838389Y-44028261D01*
X159815178Y-44014354D01*
X159597713Y-43884060D01*
X159597708Y-43884057D01*
X159594234Y-43881976D01*
X159333303Y-43768284D01*
X159063114Y-43689992D01*
X159060020Y-43688633D01*
X159047618Y-43688369D01*
X159047616Y-43688369D01*
X159032163Y-43688041D01*
X159031623Y-43688009D01*
X159029067Y-43687500D01*
X159008088Y-43687500D01*
X159005410Y-43687472D01*
X159005305Y-43687470D01*
X158958796Y-43686481D01*
X158956269Y-43687465D01*
X158955873Y-43687500D01*
X148892127Y-43687500D01*
X148891731Y-43687465D01*
X148889204Y-43686481D01*
X148842695Y-43687470D01*
X148842590Y-43687472D01*
X148839912Y-43687500D01*
X148818933Y-43687500D01*
X148816377Y-43688009D01*
X148815837Y-43688041D01*
X148800384Y-43688369D01*
X148800382Y-43688369D01*
X148787980Y-43688633D01*
X148784886Y-43689992D01*
X148773825Y-43693197D01*
X148677471Y-43721117D01*
X148514697Y-43768284D01*
X148253766Y-43881976D01*
X148250292Y-43884057D01*
X148250287Y-43884060D01*
X148032822Y-44014354D01*
X148009611Y-44028261D01*
X147786280Y-44204711D01*
X147587479Y-44408400D01*
X147416505Y-44635950D01*
X147276193Y-44883586D01*
X147274663Y-44887343D01*
X147274662Y-44887346D01*
X147214217Y-45035817D01*
X147168870Y-45147201D01*
X147096317Y-45422424D01*
X147059738Y-45704688D01*
X147059738Y-45989312D01*
X127254500Y-45989312D01*
X127254500Y-41782500D01*
X127274502Y-41714379D01*
X127328158Y-41667886D01*
X127380500Y-41656500D01*
X180467500Y-41656500D01*
X180535621Y-41676502D01*
G37*
%TD.AperFunction*%
%TD*%
M02*
