%TF.GenerationSoftware,KiCad,Pcbnew,(6.0.6)*%
%TF.CreationDate,2022-11-23T01:26:38+07:00*%
%TF.ProjectId,555_Badge,3535355f-4261-4646-9765-2e6b69636164,v01*%
%TF.SameCoordinates,Original*%
%TF.FileFunction,Copper,L2,Bot*%
%TF.FilePolarity,Positive*%
%FSLAX46Y46*%
G04 Gerber Fmt 4.6, Leading zero omitted, Abs format (unit mm)*
G04 Created by KiCad (PCBNEW (6.0.6)) date 2022-11-23 01:26:38*
%MOMM*%
%LPD*%
G01*
G04 APERTURE LIST*
%ADD10C,0.300000*%
%TA.AperFunction,NonConductor*%
%ADD11C,0.300000*%
%TD*%
%TA.AperFunction,ComponentPad*%
%ADD12C,1.600000*%
%TD*%
%TA.AperFunction,ComponentPad*%
%ADD13O,1.600000X1.600000*%
%TD*%
%TA.AperFunction,ComponentPad*%
%ADD14C,1.524000*%
%TD*%
%TA.AperFunction,ComponentPad*%
%ADD15R,1.800000X1.800000*%
%TD*%
%TA.AperFunction,ComponentPad*%
%ADD16C,1.800000*%
%TD*%
%TA.AperFunction,ComponentPad*%
%ADD17R,1.900000X1.900000*%
%TD*%
%TA.AperFunction,ComponentPad*%
%ADD18C,1.900000*%
%TD*%
%TA.AperFunction,ComponentPad*%
%ADD19R,2.170000X2.170000*%
%TD*%
%TA.AperFunction,ComponentPad*%
%ADD20C,2.500000*%
%TD*%
%TA.AperFunction,ComponentPad*%
%ADD21R,1.600000X1.600000*%
%TD*%
%TA.AperFunction,ComponentPad*%
%ADD22O,1.397000X1.016000*%
%TD*%
%TA.AperFunction,ComponentPad*%
%ADD23R,1.397000X1.016000*%
%TD*%
%TA.AperFunction,Conductor*%
%ADD24C,0.254000*%
%TD*%
G04 APERTURE END LIST*
D10*
D11*
X177720285Y-45906571D02*
X177363142Y-46906571D01*
X177006000Y-45906571D01*
X176434571Y-46335142D02*
X175291714Y-46335142D01*
X174291714Y-45406571D02*
X174148857Y-45406571D01*
X174006000Y-45478000D01*
X173934571Y-45549428D01*
X173863142Y-45692285D01*
X173791714Y-45978000D01*
X173791714Y-46335142D01*
X173863142Y-46620857D01*
X173934571Y-46763714D01*
X174006000Y-46835142D01*
X174148857Y-46906571D01*
X174291714Y-46906571D01*
X174434571Y-46835142D01*
X174506000Y-46763714D01*
X174577428Y-46620857D01*
X174648857Y-46335142D01*
X174648857Y-45978000D01*
X174577428Y-45692285D01*
X174506000Y-45549428D01*
X174434571Y-45478000D01*
X174291714Y-45406571D01*
X172363142Y-46906571D02*
X173220285Y-46906571D01*
X172791714Y-46906571D02*
X172791714Y-45406571D01*
X172934571Y-45620857D01*
X173077428Y-45763714D01*
X173220285Y-45835142D01*
D12*
%TO.P,R7,1*%
%TO.N,VCC*%
X169926000Y-109220000D03*
D13*
%TO.P,R7,2*%
%TO.N,Net-(D2-Pad2)*%
X169926000Y-101600000D03*
%TD*%
D14*
%TO.P,U1,1,GND*%
%TO.N,GND*%
X152654000Y-123698000D03*
%TO.P,U1,2,~{TRIG}*%
%TO.N,Net-(C1-Pad1)*%
X155194000Y-123698000D03*
%TO.P,U1,3,OUT*%
%TO.N,Net-(R3-Pad1)*%
X157734000Y-123698000D03*
%TO.P,U1,4,~{RST}*%
%TO.N,VCC*%
X160274000Y-123698000D03*
%TO.P,U1,5,CV*%
%TO.N,unconnected-(U1-Pad5)*%
X160274000Y-116078000D03*
%TO.P,U1,6,THRESH*%
%TO.N,Net-(C1-Pad1)*%
X157734000Y-116078000D03*
%TO.P,U1,7,DIS*%
%TO.N,Net-(U1-Pad7)*%
X155194000Y-116078000D03*
%TO.P,U1,8,VDD*%
%TO.N,VCC*%
X152654000Y-116078000D03*
%TD*%
D12*
%TO.P,R2,1*%
%TO.N,Net-(U1-Pad7)*%
X162306000Y-109220000D03*
D13*
%TO.P,R2,2*%
%TO.N,Net-(C1-Pad1)*%
X162306000Y-101600000D03*
%TD*%
D15*
%TO.P,D1,1,K*%
%TO.N,Net-(D1-Pad1)*%
X148082000Y-72639000D03*
D16*
%TO.P,D1,2,A*%
%TO.N,Net-(D1-Pad2)*%
X148082000Y-75179000D03*
%TD*%
D15*
%TO.P,D2,1,K*%
%TO.N,Net-(D1-Pad1)*%
X161798000Y-72644000D03*
D16*
%TO.P,D2,2,A*%
%TO.N,Net-(D2-Pad2)*%
X161798000Y-75184000D03*
%TD*%
D12*
%TO.P,R6,1*%
%TO.N,VCC*%
X166116000Y-109220000D03*
D13*
%TO.P,R6,2*%
%TO.N,Net-(D1-Pad2)*%
X166116000Y-101600000D03*
%TD*%
D17*
%TO.P,S1,1*%
%TO.N,unconnected-(S1-Pad1)*%
X153416000Y-108552000D03*
D18*
%TO.P,S1,2*%
%TO.N,VCC*%
X153416000Y-106052000D03*
%TO.P,S1,3*%
%TO.N,Net-(BAT1-PadPos)*%
X153416000Y-103552000D03*
%TD*%
D19*
%TO.P,BAT1,Neg*%
%TO.N,GND*%
X138430000Y-121805700D03*
D20*
%TO.P,BAT1,Pos*%
%TO.N,Net-(BAT1-PadPos)*%
X138430000Y-101805700D03*
%TD*%
D12*
%TO.P,R5,1*%
%TO.N,Net-(C2-Pad1)*%
X178562000Y-114300000D03*
D13*
%TO.P,R5,2*%
%TO.N,Net-(Q1-Pad2)*%
X170942000Y-114300000D03*
%TD*%
%TO.P,R4,2*%
%TO.N,GND*%
X177546000Y-101600000D03*
D12*
%TO.P,R4,1*%
%TO.N,Net-(C2-Pad1)*%
X177546000Y-109220000D03*
%TD*%
%TO.P,C1,2*%
%TO.N,GND*%
X166370000Y-121948888D03*
D21*
%TO.P,C1,1*%
%TO.N,Net-(C1-Pad1)*%
X166370000Y-119948888D03*
%TD*%
D12*
%TO.P,R1,1*%
%TO.N,VCC*%
X158750000Y-101600000D03*
D13*
%TO.P,R1,2*%
%TO.N,Net-(U1-Pad7)*%
X158750000Y-109220000D03*
%TD*%
%TO.P,R3,2*%
%TO.N,Net-(C2-Pad1)*%
X173736000Y-109220000D03*
D12*
%TO.P,R3,1*%
%TO.N,Net-(R3-Pad1)*%
X173736000Y-101600000D03*
%TD*%
D22*
%TO.P,Q1,3,C*%
%TO.N,Net-(D1-Pad1)*%
X165968000Y-113030000D03*
%TO.P,Q1,2,B*%
%TO.N,Net-(Q1-Pad2)*%
X165968000Y-114300000D03*
D23*
%TO.P,Q1,1,E*%
%TO.N,GND*%
X165968000Y-115570000D03*
%TD*%
D21*
%TO.P,C2,1*%
%TO.N,Net-(C2-Pad1)*%
X175768000Y-119721621D03*
D12*
%TO.P,C2,2*%
%TO.N,GND*%
X175768000Y-122221621D03*
%TD*%
D24*
%TO.N,GND*%
X163096888Y-125222000D02*
X166370000Y-121948888D01*
X152908000Y-125222000D02*
X163096888Y-125222000D01*
X152654000Y-124968000D02*
X152908000Y-125222000D01*
X152654000Y-123698000D02*
X152654000Y-124968000D01*
%TO.N,Net-(R3-Pad1)*%
X162052000Y-119380000D02*
X157734000Y-123698000D01*
X162052000Y-111760000D02*
X162052000Y-119380000D01*
X172212000Y-109982000D02*
X171196000Y-110998000D01*
X162814000Y-110998000D02*
X162052000Y-111760000D01*
X172212000Y-103124000D02*
X172212000Y-109982000D01*
X171196000Y-110998000D02*
X162814000Y-110998000D01*
X173736000Y-101600000D02*
X172212000Y-103124000D01*
%TO.N,Net-(C1-Pad1)*%
X160528000Y-103378000D02*
X162306000Y-101600000D01*
X157734000Y-113284000D02*
X160528000Y-110490000D01*
X157734000Y-116078000D02*
X157734000Y-113284000D01*
X160528000Y-110490000D02*
X160528000Y-103378000D01*
X157734000Y-118872000D02*
X157734000Y-116078000D01*
X155194000Y-121412000D02*
X157734000Y-118872000D01*
X155194000Y-123698000D02*
X155194000Y-121412000D01*
%TD*%
%TA.AperFunction,Conductor*%
%TO.N,VCC*%
G36*
X180281621Y-41930502D02*
G01*
X180328114Y-41984158D01*
X180339500Y-42036500D01*
X180339500Y-126365500D01*
X180319498Y-126433621D01*
X180265842Y-126480114D01*
X180213500Y-126491500D01*
X127634500Y-126491500D01*
X127566379Y-126471498D01*
X127519886Y-126417842D01*
X127508500Y-126365500D01*
X127508500Y-123698000D01*
X151378647Y-123698000D01*
X151398022Y-123919463D01*
X151455560Y-124134196D01*
X151457882Y-124139177D01*
X151457883Y-124139178D01*
X151547186Y-124330689D01*
X151547189Y-124330694D01*
X151549512Y-124335676D01*
X151552668Y-124340183D01*
X151552669Y-124340185D01*
X151673565Y-124512842D01*
X151677023Y-124517781D01*
X151834219Y-124674977D01*
X151838727Y-124678134D01*
X151838730Y-124678136D01*
X151964771Y-124766391D01*
X152009099Y-124821848D01*
X152018500Y-124869604D01*
X152018500Y-124888980D01*
X152017970Y-124900214D01*
X152016292Y-124907719D01*
X152016541Y-124915638D01*
X152018438Y-124976012D01*
X152018500Y-124979969D01*
X152018500Y-125007983D01*
X152018996Y-125011908D01*
X152018996Y-125011909D01*
X152019008Y-125012004D01*
X152019941Y-125023849D01*
X152021335Y-125068205D01*
X152023547Y-125075817D01*
X152027013Y-125087748D01*
X152031023Y-125107112D01*
X152033573Y-125127299D01*
X152036489Y-125134663D01*
X152036490Y-125134668D01*
X152049907Y-125168556D01*
X152053752Y-125179785D01*
X152066131Y-125222393D01*
X152070169Y-125229220D01*
X152070170Y-125229223D01*
X152076488Y-125239906D01*
X152085188Y-125257664D01*
X152089761Y-125269215D01*
X152089765Y-125269221D01*
X152092681Y-125276588D01*
X152097339Y-125282999D01*
X152097340Y-125283001D01*
X152118764Y-125312488D01*
X152125281Y-125322410D01*
X152143826Y-125353768D01*
X152143829Y-125353772D01*
X152147866Y-125360598D01*
X152162250Y-125374982D01*
X152175091Y-125390016D01*
X152187058Y-125406487D01*
X152193166Y-125411540D01*
X152221255Y-125434777D01*
X152230035Y-125442767D01*
X152402745Y-125615477D01*
X152410322Y-125623803D01*
X152414447Y-125630303D01*
X152420225Y-125635729D01*
X152420226Y-125635730D01*
X152464281Y-125677100D01*
X152467123Y-125679855D01*
X152486906Y-125699638D01*
X152490114Y-125702126D01*
X152499143Y-125709837D01*
X152531494Y-125740217D01*
X152538443Y-125744037D01*
X152549329Y-125750022D01*
X152565853Y-125760876D01*
X152581933Y-125773349D01*
X152589210Y-125776498D01*
X152622650Y-125790969D01*
X152633311Y-125796192D01*
X152665247Y-125813749D01*
X152665252Y-125813751D01*
X152672197Y-125817569D01*
X152679871Y-125819539D01*
X152679878Y-125819542D01*
X152691913Y-125822632D01*
X152710618Y-125829036D01*
X152722013Y-125833967D01*
X152729292Y-125837117D01*
X152744401Y-125839510D01*
X152773127Y-125844060D01*
X152784740Y-125846465D01*
X152827718Y-125857500D01*
X152848065Y-125857500D01*
X152867777Y-125859051D01*
X152887879Y-125862235D01*
X152895771Y-125861489D01*
X152932056Y-125858059D01*
X152943914Y-125857500D01*
X163017868Y-125857500D01*
X163029102Y-125858030D01*
X163036607Y-125859708D01*
X163104900Y-125857562D01*
X163108857Y-125857500D01*
X163136871Y-125857500D01*
X163140796Y-125857004D01*
X163140797Y-125857004D01*
X163140892Y-125856992D01*
X163152737Y-125856059D01*
X163182558Y-125855122D01*
X163189170Y-125854914D01*
X163189171Y-125854914D01*
X163197093Y-125854665D01*
X163216637Y-125848987D01*
X163236000Y-125844977D01*
X163248328Y-125843420D01*
X163248330Y-125843420D01*
X163256187Y-125842427D01*
X163263551Y-125839511D01*
X163263556Y-125839510D01*
X163297444Y-125826093D01*
X163308673Y-125822248D01*
X163325353Y-125817402D01*
X163351281Y-125809869D01*
X163358108Y-125805831D01*
X163358111Y-125805830D01*
X163368794Y-125799512D01*
X163386552Y-125790812D01*
X163398103Y-125786239D01*
X163398109Y-125786235D01*
X163405476Y-125783319D01*
X163414865Y-125776498D01*
X163441376Y-125757236D01*
X163451298Y-125750719D01*
X163482656Y-125732174D01*
X163482660Y-125732171D01*
X163489486Y-125728134D01*
X163503870Y-125713750D01*
X163518904Y-125700909D01*
X163528961Y-125693602D01*
X163535375Y-125688942D01*
X163563666Y-125654744D01*
X163571655Y-125645965D01*
X165958982Y-123258638D01*
X166021294Y-123224612D01*
X166080688Y-123226026D01*
X166136598Y-123241007D01*
X166136600Y-123241007D01*
X166141913Y-123242431D01*
X166370000Y-123262386D01*
X166598087Y-123242431D01*
X166603400Y-123241007D01*
X166603402Y-123241007D01*
X166813933Y-123184595D01*
X166813935Y-123184594D01*
X166819243Y-123183172D01*
X166901981Y-123144591D01*
X167021762Y-123088737D01*
X167021767Y-123088734D01*
X167026749Y-123086411D01*
X167159925Y-122993160D01*
X167209789Y-122958245D01*
X167209792Y-122958243D01*
X167214300Y-122955086D01*
X167376198Y-122793188D01*
X167507523Y-122605637D01*
X167509846Y-122600655D01*
X167509849Y-122600650D01*
X167601961Y-122403113D01*
X167601961Y-122403112D01*
X167604284Y-122398131D01*
X167649687Y-122228688D01*
X167651581Y-122221621D01*
X174454502Y-122221621D01*
X174474457Y-122449708D01*
X174475881Y-122455021D01*
X174475881Y-122455023D01*
X174528393Y-122650997D01*
X174533716Y-122670864D01*
X174536039Y-122675845D01*
X174536039Y-122675846D01*
X174628151Y-122873383D01*
X174628154Y-122873388D01*
X174630477Y-122878370D01*
X174675193Y-122942231D01*
X174754726Y-123055815D01*
X174761802Y-123065921D01*
X174923700Y-123227819D01*
X174928208Y-123230976D01*
X174928211Y-123230978D01*
X174979819Y-123267114D01*
X175111251Y-123359144D01*
X175116233Y-123361467D01*
X175116238Y-123361470D01*
X175313775Y-123453582D01*
X175318757Y-123455905D01*
X175324065Y-123457327D01*
X175324067Y-123457328D01*
X175534598Y-123513740D01*
X175534600Y-123513740D01*
X175539913Y-123515164D01*
X175768000Y-123535119D01*
X175996087Y-123515164D01*
X176001400Y-123513740D01*
X176001402Y-123513740D01*
X176211933Y-123457328D01*
X176211935Y-123457327D01*
X176217243Y-123455905D01*
X176222225Y-123453582D01*
X176419762Y-123361470D01*
X176419767Y-123361467D01*
X176424749Y-123359144D01*
X176556181Y-123267114D01*
X176607789Y-123230978D01*
X176607792Y-123230976D01*
X176612300Y-123227819D01*
X176774198Y-123065921D01*
X176781275Y-123055815D01*
X176860807Y-122942231D01*
X176905523Y-122878370D01*
X176907846Y-122873388D01*
X176907849Y-122873383D01*
X176999961Y-122675846D01*
X176999961Y-122675845D01*
X177002284Y-122670864D01*
X177007608Y-122650997D01*
X177060119Y-122455023D01*
X177060119Y-122455021D01*
X177061543Y-122449708D01*
X177081498Y-122221621D01*
X177061543Y-121993534D01*
X177002284Y-121772378D01*
X176980789Y-121726281D01*
X176907849Y-121569859D01*
X176907846Y-121569854D01*
X176905523Y-121564872D01*
X176774198Y-121377321D01*
X176628498Y-121231621D01*
X176594472Y-121169309D01*
X176599537Y-121098494D01*
X176642084Y-121041658D01*
X176678737Y-121024489D01*
X176678316Y-121023366D01*
X176806297Y-120975388D01*
X176814705Y-120972236D01*
X176931261Y-120884882D01*
X177018615Y-120768326D01*
X177069745Y-120631937D01*
X177076500Y-120569755D01*
X177076500Y-118873487D01*
X177069745Y-118811305D01*
X177018615Y-118674916D01*
X176931261Y-118558360D01*
X176814705Y-118471006D01*
X176678316Y-118419876D01*
X176616134Y-118413121D01*
X174919866Y-118413121D01*
X174857684Y-118419876D01*
X174721295Y-118471006D01*
X174604739Y-118558360D01*
X174517385Y-118674916D01*
X174466255Y-118811305D01*
X174459500Y-118873487D01*
X174459500Y-120569755D01*
X174466255Y-120631937D01*
X174517385Y-120768326D01*
X174604739Y-120884882D01*
X174721295Y-120972236D01*
X174729703Y-120975388D01*
X174857684Y-121023366D01*
X174856954Y-121025312D01*
X174909205Y-121055166D01*
X174942021Y-121118124D01*
X174935591Y-121188828D01*
X174907502Y-121231621D01*
X174761802Y-121377321D01*
X174630477Y-121564872D01*
X174628154Y-121569854D01*
X174628151Y-121569859D01*
X174555211Y-121726281D01*
X174533716Y-121772378D01*
X174474457Y-121993534D01*
X174454502Y-122221621D01*
X167651581Y-122221621D01*
X167662119Y-122182290D01*
X167662119Y-122182288D01*
X167663543Y-122176975D01*
X167683498Y-121948888D01*
X167663543Y-121720801D01*
X167604284Y-121499645D01*
X167580162Y-121447914D01*
X167509849Y-121297126D01*
X167509846Y-121297121D01*
X167507523Y-121292139D01*
X167503705Y-121286686D01*
X167503541Y-121286202D01*
X167501617Y-121282869D01*
X167502287Y-121282482D01*
X167481012Y-121219414D01*
X167498293Y-121150553D01*
X167521002Y-121125151D01*
X167519731Y-121123880D01*
X167526081Y-121117530D01*
X167533261Y-121112149D01*
X167620615Y-120995593D01*
X167671745Y-120859204D01*
X167678500Y-120797022D01*
X167678500Y-119100754D01*
X167671745Y-119038572D01*
X167620615Y-118902183D01*
X167533261Y-118785627D01*
X167416705Y-118698273D01*
X167280316Y-118647143D01*
X167218134Y-118640388D01*
X165521866Y-118640388D01*
X165459684Y-118647143D01*
X165323295Y-118698273D01*
X165206739Y-118785627D01*
X165119385Y-118902183D01*
X165068255Y-119038572D01*
X165061500Y-119100754D01*
X165061500Y-120797022D01*
X165068255Y-120859204D01*
X165119385Y-120995593D01*
X165206739Y-121112149D01*
X165213919Y-121117530D01*
X165220269Y-121123880D01*
X165218029Y-121126120D01*
X165251171Y-121170453D01*
X165256190Y-121241272D01*
X165238051Y-121282678D01*
X165238383Y-121282869D01*
X165236661Y-121285852D01*
X165236296Y-121286685D01*
X165232477Y-121292139D01*
X165230154Y-121297121D01*
X165230151Y-121297126D01*
X165159838Y-121447914D01*
X165135716Y-121499645D01*
X165076457Y-121720801D01*
X165056502Y-121948888D01*
X165076457Y-122176975D01*
X165077880Y-122182286D01*
X165077882Y-122182297D01*
X165092861Y-122238198D01*
X165091172Y-122309175D01*
X165060250Y-122359905D01*
X162870560Y-124549595D01*
X162808248Y-124583621D01*
X162781465Y-124586500D01*
X161444292Y-124586500D01*
X161376171Y-124566498D01*
X161329678Y-124512842D01*
X161319574Y-124442568D01*
X161341078Y-124388230D01*
X161374903Y-124339922D01*
X161380376Y-124330444D01*
X161469645Y-124139007D01*
X161473391Y-124128715D01*
X161528059Y-123924691D01*
X161529962Y-123913896D01*
X161548372Y-123703475D01*
X161548372Y-123692525D01*
X161529962Y-123482104D01*
X161528059Y-123471309D01*
X161473391Y-123267285D01*
X161469645Y-123256993D01*
X161380377Y-123065559D01*
X161374897Y-123056068D01*
X161344206Y-123012235D01*
X161333729Y-123003860D01*
X161320282Y-123010928D01*
X160363095Y-123968115D01*
X160300783Y-124002141D01*
X160229968Y-123997076D01*
X160184905Y-123968115D01*
X160003885Y-123787095D01*
X159969859Y-123724783D01*
X159974924Y-123653968D01*
X160003885Y-123608905D01*
X160961793Y-122650997D01*
X160968223Y-122639223D01*
X160958926Y-122627207D01*
X160915931Y-122597102D01*
X160906445Y-122591624D01*
X160715007Y-122502355D01*
X160704715Y-122498609D01*
X160500691Y-122443941D01*
X160489896Y-122442038D01*
X160279475Y-122423628D01*
X160268524Y-122423628D01*
X160217316Y-122428108D01*
X160147712Y-122414119D01*
X160096719Y-122364719D01*
X160080529Y-122295593D01*
X160104282Y-122228688D01*
X160117240Y-122213492D01*
X162445477Y-119885255D01*
X162453803Y-119877678D01*
X162460303Y-119873553D01*
X162507101Y-119823718D01*
X162509855Y-119820877D01*
X162529638Y-119801094D01*
X162532129Y-119797883D01*
X162539838Y-119788856D01*
X162564789Y-119762286D01*
X162570217Y-119756506D01*
X162580022Y-119738671D01*
X162590876Y-119722147D01*
X162598491Y-119712330D01*
X162598492Y-119712329D01*
X162603349Y-119706067D01*
X162620969Y-119665350D01*
X162626192Y-119654689D01*
X162643749Y-119622753D01*
X162643751Y-119622748D01*
X162647569Y-119615803D01*
X162649539Y-119608129D01*
X162649542Y-119608122D01*
X162652632Y-119596087D01*
X162659036Y-119577382D01*
X162663967Y-119565987D01*
X162667117Y-119558708D01*
X162674060Y-119514873D01*
X162676467Y-119503251D01*
X162687500Y-119460282D01*
X162687500Y-119439935D01*
X162689051Y-119420224D01*
X162690995Y-119407950D01*
X162692235Y-119400121D01*
X162691489Y-119392229D01*
X162688059Y-119355944D01*
X162687500Y-119344086D01*
X162687500Y-114292869D01*
X164756107Y-114292869D01*
X164774174Y-114491395D01*
X164775915Y-114497309D01*
X164775915Y-114497311D01*
X164783360Y-114522607D01*
X164830458Y-114682630D01*
X164833319Y-114688102D01*
X164835029Y-114692335D01*
X164842002Y-114762988D01*
X164826144Y-114798907D01*
X164828579Y-114800240D01*
X164824271Y-114808109D01*
X164818885Y-114815295D01*
X164767755Y-114951684D01*
X164761000Y-115013866D01*
X164761000Y-116126134D01*
X164767755Y-116188316D01*
X164818885Y-116324705D01*
X164906239Y-116441261D01*
X165022795Y-116528615D01*
X165159184Y-116579745D01*
X165221366Y-116586500D01*
X166714634Y-116586500D01*
X166776816Y-116579745D01*
X166913205Y-116528615D01*
X167029761Y-116441261D01*
X167117115Y-116324705D01*
X167168245Y-116188316D01*
X167175000Y-116126134D01*
X167175000Y-115013866D01*
X167168245Y-114951684D01*
X167141207Y-114879560D01*
X167120266Y-114823699D01*
X167120264Y-114823696D01*
X167117115Y-114815295D01*
X167111733Y-114808113D01*
X167107422Y-114800240D01*
X167110734Y-114798427D01*
X167092100Y-114748605D01*
X167100738Y-114696010D01*
X167100108Y-114695815D01*
X167101519Y-114691257D01*
X167159056Y-114505385D01*
X167159905Y-114497311D01*
X167179249Y-114313260D01*
X167179249Y-114313258D01*
X167179893Y-114307131D01*
X167179244Y-114300000D01*
X169628502Y-114300000D01*
X169648457Y-114528087D01*
X169649881Y-114533400D01*
X169649881Y-114533402D01*
X169692179Y-114691257D01*
X169707716Y-114749243D01*
X169710039Y-114754224D01*
X169710039Y-114754225D01*
X169802151Y-114951762D01*
X169802154Y-114951767D01*
X169804477Y-114956749D01*
X169935802Y-115144300D01*
X170097700Y-115306198D01*
X170102208Y-115309355D01*
X170102211Y-115309357D01*
X170180389Y-115364098D01*
X170285251Y-115437523D01*
X170290233Y-115439846D01*
X170290238Y-115439849D01*
X170487775Y-115531961D01*
X170492757Y-115534284D01*
X170498065Y-115535706D01*
X170498067Y-115535707D01*
X170708598Y-115592119D01*
X170708600Y-115592119D01*
X170713913Y-115593543D01*
X170942000Y-115613498D01*
X171170087Y-115593543D01*
X171175400Y-115592119D01*
X171175402Y-115592119D01*
X171385933Y-115535707D01*
X171385935Y-115535706D01*
X171391243Y-115534284D01*
X171396225Y-115531961D01*
X171593762Y-115439849D01*
X171593767Y-115439846D01*
X171598749Y-115437523D01*
X171703611Y-115364098D01*
X171781789Y-115309357D01*
X171781792Y-115309355D01*
X171786300Y-115306198D01*
X171948198Y-115144300D01*
X172079523Y-114956749D01*
X172081846Y-114951767D01*
X172081849Y-114951762D01*
X172173961Y-114754225D01*
X172173961Y-114754224D01*
X172176284Y-114749243D01*
X172191822Y-114691257D01*
X172234119Y-114533402D01*
X172234119Y-114533400D01*
X172235543Y-114528087D01*
X172255498Y-114300000D01*
X177248502Y-114300000D01*
X177268457Y-114528087D01*
X177269881Y-114533400D01*
X177269881Y-114533402D01*
X177312179Y-114691257D01*
X177327716Y-114749243D01*
X177330039Y-114754224D01*
X177330039Y-114754225D01*
X177422151Y-114951762D01*
X177422154Y-114951767D01*
X177424477Y-114956749D01*
X177555802Y-115144300D01*
X177717700Y-115306198D01*
X177722208Y-115309355D01*
X177722211Y-115309357D01*
X177800389Y-115364098D01*
X177905251Y-115437523D01*
X177910233Y-115439846D01*
X177910238Y-115439849D01*
X178107775Y-115531961D01*
X178112757Y-115534284D01*
X178118065Y-115535706D01*
X178118067Y-115535707D01*
X178328598Y-115592119D01*
X178328600Y-115592119D01*
X178333913Y-115593543D01*
X178562000Y-115613498D01*
X178790087Y-115593543D01*
X178795400Y-115592119D01*
X178795402Y-115592119D01*
X179005933Y-115535707D01*
X179005935Y-115535706D01*
X179011243Y-115534284D01*
X179016225Y-115531961D01*
X179213762Y-115439849D01*
X179213767Y-115439846D01*
X179218749Y-115437523D01*
X179323611Y-115364098D01*
X179401789Y-115309357D01*
X179401792Y-115309355D01*
X179406300Y-115306198D01*
X179568198Y-115144300D01*
X179699523Y-114956749D01*
X179701846Y-114951767D01*
X179701849Y-114951762D01*
X179793961Y-114754225D01*
X179793961Y-114754224D01*
X179796284Y-114749243D01*
X179811822Y-114691257D01*
X179854119Y-114533402D01*
X179854119Y-114533400D01*
X179855543Y-114528087D01*
X179875498Y-114300000D01*
X179855543Y-114071913D01*
X179810600Y-113904185D01*
X179797707Y-113856067D01*
X179797706Y-113856065D01*
X179796284Y-113850757D01*
X179744968Y-113740709D01*
X179701849Y-113648238D01*
X179701846Y-113648233D01*
X179699523Y-113643251D01*
X179568198Y-113455700D01*
X179406300Y-113293802D01*
X179401792Y-113290645D01*
X179401789Y-113290643D01*
X179311341Y-113227311D01*
X179218749Y-113162477D01*
X179213767Y-113160154D01*
X179213762Y-113160151D01*
X179016225Y-113068039D01*
X179016224Y-113068039D01*
X179011243Y-113065716D01*
X179005935Y-113064294D01*
X179005933Y-113064293D01*
X178795402Y-113007881D01*
X178795400Y-113007881D01*
X178790087Y-113006457D01*
X178562000Y-112986502D01*
X178333913Y-113006457D01*
X178328600Y-113007881D01*
X178328598Y-113007881D01*
X178118067Y-113064293D01*
X178118065Y-113064294D01*
X178112757Y-113065716D01*
X178107776Y-113068039D01*
X178107775Y-113068039D01*
X177910238Y-113160151D01*
X177910233Y-113160154D01*
X177905251Y-113162477D01*
X177812659Y-113227311D01*
X177722211Y-113290643D01*
X177722208Y-113290645D01*
X177717700Y-113293802D01*
X177555802Y-113455700D01*
X177424477Y-113643251D01*
X177422154Y-113648233D01*
X177422151Y-113648238D01*
X177379032Y-113740709D01*
X177327716Y-113850757D01*
X177326294Y-113856065D01*
X177326293Y-113856067D01*
X177313400Y-113904185D01*
X177268457Y-114071913D01*
X177248502Y-114300000D01*
X172255498Y-114300000D01*
X172235543Y-114071913D01*
X172190600Y-113904185D01*
X172177707Y-113856067D01*
X172177706Y-113856065D01*
X172176284Y-113850757D01*
X172124968Y-113740709D01*
X172081849Y-113648238D01*
X172081846Y-113648233D01*
X172079523Y-113643251D01*
X171948198Y-113455700D01*
X171786300Y-113293802D01*
X171781792Y-113290645D01*
X171781789Y-113290643D01*
X171691341Y-113227311D01*
X171598749Y-113162477D01*
X171593767Y-113160154D01*
X171593762Y-113160151D01*
X171396225Y-113068039D01*
X171396224Y-113068039D01*
X171391243Y-113065716D01*
X171385935Y-113064294D01*
X171385933Y-113064293D01*
X171175402Y-113007881D01*
X171175400Y-113007881D01*
X171170087Y-113006457D01*
X170942000Y-112986502D01*
X170713913Y-113006457D01*
X170708600Y-113007881D01*
X170708598Y-113007881D01*
X170498067Y-113064293D01*
X170498065Y-113064294D01*
X170492757Y-113065716D01*
X170487776Y-113068039D01*
X170487775Y-113068039D01*
X170290238Y-113160151D01*
X170290233Y-113160154D01*
X170285251Y-113162477D01*
X170192659Y-113227311D01*
X170102211Y-113290643D01*
X170102208Y-113290645D01*
X170097700Y-113293802D01*
X169935802Y-113455700D01*
X169804477Y-113643251D01*
X169802154Y-113648233D01*
X169802151Y-113648238D01*
X169759032Y-113740709D01*
X169707716Y-113850757D01*
X169706294Y-113856065D01*
X169706293Y-113856067D01*
X169693400Y-113904185D01*
X169648457Y-114071913D01*
X169628502Y-114300000D01*
X167179244Y-114300000D01*
X167161826Y-114108605D01*
X167159512Y-114100741D01*
X167107284Y-113923289D01*
X167105542Y-113917370D01*
X167013186Y-113740709D01*
X167009316Y-113735896D01*
X167008072Y-113733995D01*
X166987505Y-113666042D01*
X167006802Y-113601985D01*
X167005294Y-113601170D01*
X167043072Y-113531301D01*
X167100108Y-113425815D01*
X167159056Y-113235385D01*
X167160246Y-113224065D01*
X167179249Y-113043260D01*
X167179249Y-113043258D01*
X167179893Y-113037131D01*
X167161826Y-112838605D01*
X167159512Y-112830741D01*
X167107284Y-112653289D01*
X167105542Y-112647370D01*
X167013186Y-112470709D01*
X166888275Y-112315351D01*
X166735567Y-112187214D01*
X166560879Y-112091179D01*
X166555012Y-112089318D01*
X166555010Y-112089317D01*
X166376742Y-112032766D01*
X166376739Y-112032765D01*
X166370865Y-112030902D01*
X166215716Y-112013500D01*
X165727343Y-112013500D01*
X165724287Y-112013800D01*
X165724280Y-112013800D01*
X165665259Y-112019587D01*
X165579106Y-112028035D01*
X165573207Y-112029816D01*
X165573202Y-112029817D01*
X165422148Y-112075423D01*
X165388268Y-112085652D01*
X165300262Y-112132445D01*
X165217698Y-112176345D01*
X165217695Y-112176347D01*
X165212256Y-112179239D01*
X165207486Y-112183129D01*
X165207482Y-112183132D01*
X165062549Y-112301337D01*
X165062546Y-112301340D01*
X165057774Y-112305232D01*
X164930706Y-112458830D01*
X164835892Y-112634185D01*
X164776944Y-112824615D01*
X164776300Y-112830740D01*
X164776300Y-112830741D01*
X164757532Y-113009314D01*
X164756107Y-113022869D01*
X164774174Y-113221395D01*
X164775915Y-113227309D01*
X164775915Y-113227311D01*
X164794555Y-113290643D01*
X164830458Y-113412630D01*
X164833315Y-113418095D01*
X164892498Y-113531301D01*
X164922814Y-113589291D01*
X164926684Y-113594104D01*
X164927928Y-113596005D01*
X164948495Y-113663958D01*
X164929198Y-113728015D01*
X164930706Y-113728830D01*
X164835892Y-113904185D01*
X164776944Y-114094615D01*
X164776300Y-114100740D01*
X164776300Y-114100741D01*
X164775474Y-114108605D01*
X164756107Y-114292869D01*
X162687500Y-114292869D01*
X162687500Y-112075423D01*
X162707502Y-112007302D01*
X162724405Y-111986327D01*
X163040329Y-111670404D01*
X163102641Y-111636379D01*
X163129424Y-111633500D01*
X171116980Y-111633500D01*
X171128214Y-111634030D01*
X171135719Y-111635708D01*
X171204012Y-111633562D01*
X171207969Y-111633500D01*
X171235983Y-111633500D01*
X171239908Y-111633004D01*
X171239909Y-111633004D01*
X171240004Y-111632992D01*
X171251849Y-111632059D01*
X171281670Y-111631122D01*
X171288282Y-111630914D01*
X171288283Y-111630914D01*
X171296205Y-111630665D01*
X171315749Y-111624987D01*
X171335112Y-111620977D01*
X171347440Y-111619420D01*
X171347442Y-111619420D01*
X171355299Y-111618427D01*
X171362663Y-111615511D01*
X171362668Y-111615510D01*
X171396556Y-111602093D01*
X171407785Y-111598248D01*
X171424465Y-111593402D01*
X171450393Y-111585869D01*
X171457220Y-111581831D01*
X171457223Y-111581830D01*
X171467906Y-111575512D01*
X171485664Y-111566812D01*
X171497215Y-111562239D01*
X171497221Y-111562235D01*
X171504588Y-111559319D01*
X171512580Y-111553513D01*
X171540488Y-111533236D01*
X171550410Y-111526719D01*
X171581768Y-111508174D01*
X171581772Y-111508171D01*
X171588598Y-111504134D01*
X171602982Y-111489750D01*
X171618016Y-111476909D01*
X171628073Y-111469602D01*
X171634487Y-111464942D01*
X171662773Y-111430750D01*
X171670763Y-111421969D01*
X172605488Y-110487245D01*
X172613807Y-110479675D01*
X172620303Y-110475553D01*
X172629327Y-110465944D01*
X172667085Y-110425735D01*
X172669840Y-110422893D01*
X172689639Y-110403094D01*
X172692063Y-110399969D01*
X172692071Y-110399960D01*
X172692137Y-110399874D01*
X172699845Y-110390849D01*
X172724790Y-110364285D01*
X172730217Y-110358506D01*
X172735424Y-110349036D01*
X172740022Y-110340671D01*
X172750873Y-110324153D01*
X172763350Y-110308067D01*
X172765726Y-110302576D01*
X172816984Y-110254714D01*
X172886834Y-110242008D01*
X172945818Y-110264092D01*
X173079251Y-110357523D01*
X173084233Y-110359846D01*
X173084238Y-110359849D01*
X173225533Y-110425735D01*
X173286757Y-110454284D01*
X173292065Y-110455706D01*
X173292067Y-110455707D01*
X173502598Y-110512119D01*
X173502600Y-110512119D01*
X173507913Y-110513543D01*
X173736000Y-110533498D01*
X173964087Y-110513543D01*
X173969400Y-110512119D01*
X173969402Y-110512119D01*
X174179933Y-110455707D01*
X174179935Y-110455706D01*
X174185243Y-110454284D01*
X174246467Y-110425735D01*
X174387762Y-110359849D01*
X174387767Y-110359846D01*
X174392749Y-110357523D01*
X174557721Y-110242008D01*
X174575789Y-110229357D01*
X174575792Y-110229355D01*
X174580300Y-110226198D01*
X174742198Y-110064300D01*
X174756023Y-110044557D01*
X174834688Y-109932211D01*
X174873523Y-109876749D01*
X174875846Y-109871767D01*
X174875849Y-109871762D01*
X174967961Y-109674225D01*
X174967961Y-109674224D01*
X174970284Y-109669243D01*
X174990976Y-109592022D01*
X175028119Y-109453402D01*
X175028119Y-109453400D01*
X175029543Y-109448087D01*
X175049498Y-109220000D01*
X176232502Y-109220000D01*
X176252457Y-109448087D01*
X176253881Y-109453400D01*
X176253881Y-109453402D01*
X176291025Y-109592022D01*
X176311716Y-109669243D01*
X176314039Y-109674224D01*
X176314039Y-109674225D01*
X176406151Y-109871762D01*
X176406154Y-109871767D01*
X176408477Y-109876749D01*
X176447312Y-109932211D01*
X176525978Y-110044557D01*
X176539802Y-110064300D01*
X176701700Y-110226198D01*
X176706208Y-110229355D01*
X176706211Y-110229357D01*
X176724279Y-110242008D01*
X176889251Y-110357523D01*
X176894233Y-110359846D01*
X176894238Y-110359849D01*
X177035533Y-110425735D01*
X177096757Y-110454284D01*
X177102065Y-110455706D01*
X177102067Y-110455707D01*
X177312598Y-110512119D01*
X177312600Y-110512119D01*
X177317913Y-110513543D01*
X177546000Y-110533498D01*
X177774087Y-110513543D01*
X177779400Y-110512119D01*
X177779402Y-110512119D01*
X177989933Y-110455707D01*
X177989935Y-110455706D01*
X177995243Y-110454284D01*
X178056467Y-110425735D01*
X178197762Y-110359849D01*
X178197767Y-110359846D01*
X178202749Y-110357523D01*
X178367721Y-110242008D01*
X178385789Y-110229357D01*
X178385792Y-110229355D01*
X178390300Y-110226198D01*
X178552198Y-110064300D01*
X178566023Y-110044557D01*
X178644688Y-109932211D01*
X178683523Y-109876749D01*
X178685846Y-109871767D01*
X178685849Y-109871762D01*
X178777961Y-109674225D01*
X178777961Y-109674224D01*
X178780284Y-109669243D01*
X178800976Y-109592022D01*
X178838119Y-109453402D01*
X178838119Y-109453400D01*
X178839543Y-109448087D01*
X178859498Y-109220000D01*
X178839543Y-108991913D01*
X178802981Y-108855461D01*
X178781707Y-108776067D01*
X178781706Y-108776065D01*
X178780284Y-108770757D01*
X178685966Y-108568489D01*
X178685849Y-108568238D01*
X178685846Y-108568233D01*
X178683523Y-108563251D01*
X178552198Y-108375700D01*
X178390300Y-108213802D01*
X178385792Y-108210645D01*
X178385789Y-108210643D01*
X178274886Y-108132988D01*
X178202749Y-108082477D01*
X178197767Y-108080154D01*
X178197762Y-108080151D01*
X178000225Y-107988039D01*
X178000224Y-107988039D01*
X177995243Y-107985716D01*
X177989935Y-107984294D01*
X177989933Y-107984293D01*
X177779402Y-107927881D01*
X177779400Y-107927881D01*
X177774087Y-107926457D01*
X177546000Y-107906502D01*
X177317913Y-107926457D01*
X177312600Y-107927881D01*
X177312598Y-107927881D01*
X177102067Y-107984293D01*
X177102065Y-107984294D01*
X177096757Y-107985716D01*
X177091776Y-107988039D01*
X177091775Y-107988039D01*
X176894238Y-108080151D01*
X176894233Y-108080154D01*
X176889251Y-108082477D01*
X176817114Y-108132988D01*
X176706211Y-108210643D01*
X176706208Y-108210645D01*
X176701700Y-108213802D01*
X176539802Y-108375700D01*
X176408477Y-108563251D01*
X176406154Y-108568233D01*
X176406151Y-108568238D01*
X176406034Y-108568489D01*
X176311716Y-108770757D01*
X176310294Y-108776065D01*
X176310293Y-108776067D01*
X176289019Y-108855461D01*
X176252457Y-108991913D01*
X176232502Y-109220000D01*
X175049498Y-109220000D01*
X175029543Y-108991913D01*
X174992981Y-108855461D01*
X174971707Y-108776067D01*
X174971706Y-108776065D01*
X174970284Y-108770757D01*
X174875966Y-108568489D01*
X174875849Y-108568238D01*
X174875846Y-108568233D01*
X174873523Y-108563251D01*
X174742198Y-108375700D01*
X174580300Y-108213802D01*
X174575792Y-108210645D01*
X174575789Y-108210643D01*
X174464886Y-108132988D01*
X174392749Y-108082477D01*
X174387767Y-108080154D01*
X174387762Y-108080151D01*
X174190225Y-107988039D01*
X174190224Y-107988039D01*
X174185243Y-107985716D01*
X174179935Y-107984294D01*
X174179933Y-107984293D01*
X173969402Y-107927881D01*
X173969400Y-107927881D01*
X173964087Y-107926457D01*
X173736000Y-107906502D01*
X173507913Y-107926457D01*
X173502600Y-107927881D01*
X173502598Y-107927881D01*
X173292067Y-107984293D01*
X173292065Y-107984294D01*
X173286757Y-107985716D01*
X173281776Y-107988039D01*
X173281775Y-107988039D01*
X173084238Y-108080151D01*
X173084233Y-108080154D01*
X173079251Y-108082477D01*
X173046725Y-108105252D01*
X173045771Y-108105920D01*
X172978497Y-108128608D01*
X172909636Y-108111323D01*
X172861052Y-108059553D01*
X172847500Y-108002707D01*
X172847500Y-103439422D01*
X172867502Y-103371301D01*
X172884405Y-103350327D01*
X173324982Y-102909750D01*
X173387294Y-102875724D01*
X173446688Y-102877138D01*
X173502598Y-102892119D01*
X173502600Y-102892119D01*
X173507913Y-102893543D01*
X173736000Y-102913498D01*
X173964087Y-102893543D01*
X173969400Y-102892119D01*
X173969402Y-102892119D01*
X174179933Y-102835707D01*
X174179935Y-102835706D01*
X174185243Y-102834284D01*
X174247595Y-102805209D01*
X174387762Y-102739849D01*
X174387767Y-102739846D01*
X174392749Y-102737523D01*
X174527919Y-102642876D01*
X174575789Y-102609357D01*
X174575792Y-102609355D01*
X174580300Y-102606198D01*
X174742198Y-102444300D01*
X174764050Y-102413093D01*
X174817872Y-102336226D01*
X174873523Y-102256749D01*
X174875846Y-102251767D01*
X174875849Y-102251762D01*
X174967961Y-102054225D01*
X174967961Y-102054224D01*
X174970284Y-102049243D01*
X174976728Y-102025196D01*
X175028119Y-101833402D01*
X175028119Y-101833400D01*
X175029543Y-101828087D01*
X175049498Y-101600000D01*
X176232502Y-101600000D01*
X176252457Y-101828087D01*
X176253881Y-101833400D01*
X176253881Y-101833402D01*
X176305273Y-102025196D01*
X176311716Y-102049243D01*
X176314039Y-102054224D01*
X176314039Y-102054225D01*
X176406151Y-102251762D01*
X176406154Y-102251767D01*
X176408477Y-102256749D01*
X176464128Y-102336226D01*
X176517951Y-102413093D01*
X176539802Y-102444300D01*
X176701700Y-102606198D01*
X176706208Y-102609355D01*
X176706211Y-102609357D01*
X176754081Y-102642876D01*
X176889251Y-102737523D01*
X176894233Y-102739846D01*
X176894238Y-102739849D01*
X177034405Y-102805209D01*
X177096757Y-102834284D01*
X177102065Y-102835706D01*
X177102067Y-102835707D01*
X177312598Y-102892119D01*
X177312600Y-102892119D01*
X177317913Y-102893543D01*
X177546000Y-102913498D01*
X177774087Y-102893543D01*
X177779400Y-102892119D01*
X177779402Y-102892119D01*
X177989933Y-102835707D01*
X177989935Y-102835706D01*
X177995243Y-102834284D01*
X178057595Y-102805209D01*
X178197762Y-102739849D01*
X178197767Y-102739846D01*
X178202749Y-102737523D01*
X178337919Y-102642876D01*
X178385789Y-102609357D01*
X178385792Y-102609355D01*
X178390300Y-102606198D01*
X178552198Y-102444300D01*
X178574050Y-102413093D01*
X178627872Y-102336226D01*
X178683523Y-102256749D01*
X178685846Y-102251767D01*
X178685849Y-102251762D01*
X178777961Y-102054225D01*
X178777961Y-102054224D01*
X178780284Y-102049243D01*
X178786728Y-102025196D01*
X178838119Y-101833402D01*
X178838119Y-101833400D01*
X178839543Y-101828087D01*
X178859498Y-101600000D01*
X178839543Y-101371913D01*
X178816461Y-101285769D01*
X178781707Y-101156067D01*
X178781706Y-101156065D01*
X178780284Y-101150757D01*
X178733709Y-101050876D01*
X178685849Y-100948238D01*
X178685846Y-100948233D01*
X178683523Y-100943251D01*
X178596943Y-100819602D01*
X178555357Y-100760211D01*
X178555355Y-100760208D01*
X178552198Y-100755700D01*
X178390300Y-100593802D01*
X178385792Y-100590645D01*
X178385789Y-100590643D01*
X178259920Y-100502509D01*
X178202749Y-100462477D01*
X178197767Y-100460154D01*
X178197762Y-100460151D01*
X178000225Y-100368039D01*
X178000224Y-100368039D01*
X177995243Y-100365716D01*
X177989935Y-100364294D01*
X177989933Y-100364293D01*
X177779402Y-100307881D01*
X177779400Y-100307881D01*
X177774087Y-100306457D01*
X177546000Y-100286502D01*
X177317913Y-100306457D01*
X177312600Y-100307881D01*
X177312598Y-100307881D01*
X177102067Y-100364293D01*
X177102065Y-100364294D01*
X177096757Y-100365716D01*
X177091776Y-100368039D01*
X177091775Y-100368039D01*
X176894238Y-100460151D01*
X176894233Y-100460154D01*
X176889251Y-100462477D01*
X176832080Y-100502509D01*
X176706211Y-100590643D01*
X176706208Y-100590645D01*
X176701700Y-100593802D01*
X176539802Y-100755700D01*
X176536645Y-100760208D01*
X176536643Y-100760211D01*
X176495057Y-100819602D01*
X176408477Y-100943251D01*
X176406154Y-100948233D01*
X176406151Y-100948238D01*
X176358291Y-101050876D01*
X176311716Y-101150757D01*
X176310294Y-101156065D01*
X176310293Y-101156067D01*
X176275539Y-101285769D01*
X176252457Y-101371913D01*
X176232502Y-101600000D01*
X175049498Y-101600000D01*
X175029543Y-101371913D01*
X175006461Y-101285769D01*
X174971707Y-101156067D01*
X174971706Y-101156065D01*
X174970284Y-101150757D01*
X174923709Y-101050876D01*
X174875849Y-100948238D01*
X174875846Y-100948233D01*
X174873523Y-100943251D01*
X174786943Y-100819602D01*
X174745357Y-100760211D01*
X174745355Y-100760208D01*
X174742198Y-100755700D01*
X174580300Y-100593802D01*
X174575792Y-100590645D01*
X174575789Y-100590643D01*
X174449920Y-100502509D01*
X174392749Y-100462477D01*
X174387767Y-100460154D01*
X174387762Y-100460151D01*
X174190225Y-100368039D01*
X174190224Y-100368039D01*
X174185243Y-100365716D01*
X174179935Y-100364294D01*
X174179933Y-100364293D01*
X173969402Y-100307881D01*
X173969400Y-100307881D01*
X173964087Y-100306457D01*
X173736000Y-100286502D01*
X173507913Y-100306457D01*
X173502600Y-100307881D01*
X173502598Y-100307881D01*
X173292067Y-100364293D01*
X173292065Y-100364294D01*
X173286757Y-100365716D01*
X173281776Y-100368039D01*
X173281775Y-100368039D01*
X173084238Y-100460151D01*
X173084233Y-100460154D01*
X173079251Y-100462477D01*
X173022080Y-100502509D01*
X172896211Y-100590643D01*
X172896208Y-100590645D01*
X172891700Y-100593802D01*
X172729802Y-100755700D01*
X172726645Y-100760208D01*
X172726643Y-100760211D01*
X172685057Y-100819602D01*
X172598477Y-100943251D01*
X172596154Y-100948233D01*
X172596151Y-100948238D01*
X172548291Y-101050876D01*
X172501716Y-101150757D01*
X172500294Y-101156065D01*
X172500293Y-101156067D01*
X172465539Y-101285769D01*
X172442457Y-101371913D01*
X172422502Y-101600000D01*
X172442457Y-101828087D01*
X172443880Y-101833398D01*
X172443882Y-101833409D01*
X172458861Y-101889310D01*
X172457172Y-101960287D01*
X172426250Y-102011017D01*
X171818517Y-102618750D01*
X171810191Y-102626326D01*
X171803697Y-102630447D01*
X171798274Y-102636222D01*
X171756915Y-102680265D01*
X171754160Y-102683107D01*
X171734361Y-102702906D01*
X171731937Y-102706031D01*
X171731929Y-102706040D01*
X171731863Y-102706126D01*
X171724155Y-102715151D01*
X171693783Y-102747494D01*
X171689965Y-102754438D01*
X171689964Y-102754440D01*
X171683978Y-102765329D01*
X171673127Y-102781847D01*
X171660650Y-102797933D01*
X171643024Y-102838666D01*
X171637807Y-102849314D01*
X171616431Y-102888197D01*
X171614460Y-102895872D01*
X171614458Y-102895878D01*
X171611369Y-102907911D01*
X171604966Y-102926613D01*
X171596883Y-102945292D01*
X171593790Y-102964819D01*
X171589940Y-102989127D01*
X171587535Y-103000740D01*
X171576500Y-103043718D01*
X171576500Y-103064065D01*
X171574949Y-103083776D01*
X171571765Y-103103879D01*
X171572511Y-103111771D01*
X171575941Y-103148056D01*
X171576500Y-103159914D01*
X171576500Y-109666577D01*
X171556498Y-109734698D01*
X171539595Y-109755672D01*
X171250710Y-110044557D01*
X171188398Y-110078583D01*
X171117583Y-110073518D01*
X171060747Y-110030971D01*
X171035936Y-109964451D01*
X171051027Y-109895077D01*
X171058398Y-109883196D01*
X171059932Y-109881005D01*
X171065414Y-109871511D01*
X171157490Y-109674053D01*
X171161236Y-109663761D01*
X171217625Y-109453312D01*
X171219528Y-109442519D01*
X171238517Y-109225475D01*
X171238517Y-109214525D01*
X171219528Y-108997481D01*
X171217625Y-108986688D01*
X171161236Y-108776239D01*
X171157490Y-108765947D01*
X171065414Y-108568489D01*
X171059931Y-108558994D01*
X171023491Y-108506952D01*
X171013012Y-108498576D01*
X170999566Y-108505644D01*
X169210920Y-110294290D01*
X169209502Y-110296887D01*
X169159299Y-110347089D01*
X169098916Y-110362500D01*
X166942706Y-110362500D01*
X166874585Y-110342498D01*
X166831175Y-110295124D01*
X166830356Y-110293566D01*
X166128812Y-109592022D01*
X166114868Y-109584408D01*
X166113035Y-109584539D01*
X166106420Y-109588790D01*
X165400920Y-110294290D01*
X165399502Y-110296887D01*
X165349299Y-110347089D01*
X165288916Y-110362500D01*
X163318188Y-110362500D01*
X163250067Y-110342498D01*
X163203574Y-110288842D01*
X163193470Y-110218568D01*
X163222964Y-110153988D01*
X163229093Y-110147405D01*
X163312198Y-110064300D01*
X163326023Y-110044557D01*
X163404688Y-109932211D01*
X163443523Y-109876749D01*
X163445846Y-109871767D01*
X163445849Y-109871762D01*
X163537961Y-109674225D01*
X163537961Y-109674224D01*
X163540284Y-109669243D01*
X163560976Y-109592022D01*
X163598119Y-109453402D01*
X163598119Y-109453400D01*
X163599543Y-109448087D01*
X163619019Y-109225475D01*
X164803483Y-109225475D01*
X164822472Y-109442519D01*
X164824375Y-109453312D01*
X164880764Y-109663761D01*
X164884510Y-109674053D01*
X164976586Y-109871511D01*
X164982069Y-109881006D01*
X165018509Y-109933048D01*
X165028988Y-109941424D01*
X165042434Y-109934356D01*
X165743978Y-109232812D01*
X165750356Y-109221132D01*
X166480408Y-109221132D01*
X166480539Y-109222965D01*
X166484790Y-109229580D01*
X167190287Y-109935077D01*
X167202062Y-109941507D01*
X167214077Y-109932211D01*
X167249931Y-109881006D01*
X167255414Y-109871511D01*
X167347490Y-109674053D01*
X167351236Y-109663761D01*
X167407625Y-109453312D01*
X167409528Y-109442519D01*
X167428517Y-109225475D01*
X168613483Y-109225475D01*
X168632472Y-109442519D01*
X168634375Y-109453312D01*
X168690764Y-109663761D01*
X168694510Y-109674053D01*
X168786586Y-109871511D01*
X168792069Y-109881006D01*
X168828509Y-109933048D01*
X168838988Y-109941424D01*
X168852434Y-109934356D01*
X169553978Y-109232812D01*
X169561592Y-109218868D01*
X169561461Y-109217035D01*
X169557210Y-109210420D01*
X168851713Y-108504923D01*
X168839938Y-108498493D01*
X168827923Y-108507789D01*
X168792069Y-108558994D01*
X168786586Y-108568489D01*
X168694510Y-108765947D01*
X168690764Y-108776239D01*
X168634375Y-108986688D01*
X168632472Y-108997481D01*
X168613483Y-109214525D01*
X168613483Y-109225475D01*
X167428517Y-109225475D01*
X167428517Y-109214525D01*
X167409528Y-108997481D01*
X167407625Y-108986688D01*
X167351236Y-108776239D01*
X167347490Y-108765947D01*
X167255414Y-108568489D01*
X167249931Y-108558994D01*
X167213491Y-108506952D01*
X167203012Y-108498576D01*
X167189566Y-108505644D01*
X166488022Y-109207188D01*
X166480408Y-109221132D01*
X165750356Y-109221132D01*
X165751592Y-109218868D01*
X165751461Y-109217035D01*
X165747210Y-109210420D01*
X165041713Y-108504923D01*
X165029938Y-108498493D01*
X165017923Y-108507789D01*
X164982069Y-108558994D01*
X164976586Y-108568489D01*
X164884510Y-108765947D01*
X164880764Y-108776239D01*
X164824375Y-108986688D01*
X164822472Y-108997481D01*
X164803483Y-109214525D01*
X164803483Y-109225475D01*
X163619019Y-109225475D01*
X163619498Y-109220000D01*
X163599543Y-108991913D01*
X163562981Y-108855461D01*
X163541707Y-108776067D01*
X163541706Y-108776065D01*
X163540284Y-108770757D01*
X163445966Y-108568489D01*
X163445849Y-108568238D01*
X163445846Y-108568233D01*
X163443523Y-108563251D01*
X163312198Y-108375700D01*
X163150300Y-108213802D01*
X163145792Y-108210645D01*
X163145789Y-108210643D01*
X163034886Y-108132988D01*
X165394576Y-108132988D01*
X165401644Y-108146434D01*
X166103188Y-108847978D01*
X166117132Y-108855592D01*
X166118965Y-108855461D01*
X166125580Y-108851210D01*
X166831077Y-108145713D01*
X166837507Y-108133938D01*
X166836772Y-108132988D01*
X169204576Y-108132988D01*
X169211644Y-108146434D01*
X169913188Y-108847978D01*
X169927132Y-108855592D01*
X169928965Y-108855461D01*
X169935580Y-108851210D01*
X170641077Y-108145713D01*
X170647507Y-108133938D01*
X170638211Y-108121923D01*
X170587006Y-108086069D01*
X170577511Y-108080586D01*
X170380053Y-107988510D01*
X170369761Y-107984764D01*
X170159312Y-107928375D01*
X170148519Y-107926472D01*
X169931475Y-107907483D01*
X169920525Y-107907483D01*
X169703481Y-107926472D01*
X169692688Y-107928375D01*
X169482239Y-107984764D01*
X169471947Y-107988510D01*
X169274489Y-108080586D01*
X169264994Y-108086069D01*
X169212952Y-108122509D01*
X169204576Y-108132988D01*
X166836772Y-108132988D01*
X166828211Y-108121923D01*
X166777006Y-108086069D01*
X166767511Y-108080586D01*
X166570053Y-107988510D01*
X166559761Y-107984764D01*
X166349312Y-107928375D01*
X166338519Y-107926472D01*
X166121475Y-107907483D01*
X166110525Y-107907483D01*
X165893481Y-107926472D01*
X165882688Y-107928375D01*
X165672239Y-107984764D01*
X165661947Y-107988510D01*
X165464489Y-108080586D01*
X165454994Y-108086069D01*
X165402952Y-108122509D01*
X165394576Y-108132988D01*
X163034886Y-108132988D01*
X162962749Y-108082477D01*
X162957767Y-108080154D01*
X162957762Y-108080151D01*
X162760225Y-107988039D01*
X162760224Y-107988039D01*
X162755243Y-107985716D01*
X162749935Y-107984294D01*
X162749933Y-107984293D01*
X162539402Y-107927881D01*
X162539400Y-107927881D01*
X162534087Y-107926457D01*
X162306000Y-107906502D01*
X162077913Y-107926457D01*
X162072600Y-107927881D01*
X162072598Y-107927881D01*
X161862067Y-107984293D01*
X161862065Y-107984294D01*
X161856757Y-107985716D01*
X161851776Y-107988039D01*
X161851775Y-107988039D01*
X161654238Y-108080151D01*
X161654233Y-108080154D01*
X161649251Y-108082477D01*
X161577114Y-108132988D01*
X161466211Y-108210643D01*
X161466208Y-108210645D01*
X161461700Y-108213802D01*
X161378595Y-108296907D01*
X161316283Y-108330933D01*
X161245468Y-108325868D01*
X161188632Y-108283321D01*
X161163821Y-108216801D01*
X161163500Y-108207812D01*
X161163500Y-103693423D01*
X161183502Y-103625302D01*
X161200405Y-103604327D01*
X161894984Y-102909749D01*
X161957296Y-102875724D01*
X162016691Y-102877139D01*
X162072591Y-102892118D01*
X162072602Y-102892120D01*
X162077913Y-102893543D01*
X162306000Y-102913498D01*
X162534087Y-102893543D01*
X162539400Y-102892119D01*
X162539402Y-102892119D01*
X162749933Y-102835707D01*
X162749935Y-102835706D01*
X162755243Y-102834284D01*
X162817595Y-102805209D01*
X162957762Y-102739849D01*
X162957767Y-102739846D01*
X162962749Y-102737523D01*
X163097919Y-102642876D01*
X163145789Y-102609357D01*
X163145792Y-102609355D01*
X163150300Y-102606198D01*
X163312198Y-102444300D01*
X163334050Y-102413093D01*
X163387872Y-102336226D01*
X163443523Y-102256749D01*
X163445846Y-102251767D01*
X163445849Y-102251762D01*
X163537961Y-102054225D01*
X163537961Y-102054224D01*
X163540284Y-102049243D01*
X163546728Y-102025196D01*
X163598119Y-101833402D01*
X163598119Y-101833400D01*
X163599543Y-101828087D01*
X163619498Y-101600000D01*
X164802502Y-101600000D01*
X164822457Y-101828087D01*
X164823881Y-101833400D01*
X164823881Y-101833402D01*
X164875273Y-102025196D01*
X164881716Y-102049243D01*
X164884039Y-102054224D01*
X164884039Y-102054225D01*
X164976151Y-102251762D01*
X164976154Y-102251767D01*
X164978477Y-102256749D01*
X165034128Y-102336226D01*
X165087951Y-102413093D01*
X165109802Y-102444300D01*
X165271700Y-102606198D01*
X165276208Y-102609355D01*
X165276211Y-102609357D01*
X165324081Y-102642876D01*
X165459251Y-102737523D01*
X165464233Y-102739846D01*
X165464238Y-102739849D01*
X165604405Y-102805209D01*
X165666757Y-102834284D01*
X165672065Y-102835706D01*
X165672067Y-102835707D01*
X165882598Y-102892119D01*
X165882600Y-102892119D01*
X165887913Y-102893543D01*
X166116000Y-102913498D01*
X166344087Y-102893543D01*
X166349400Y-102892119D01*
X166349402Y-102892119D01*
X166559933Y-102835707D01*
X166559935Y-102835706D01*
X166565243Y-102834284D01*
X166627595Y-102805209D01*
X166767762Y-102739849D01*
X166767767Y-102739846D01*
X166772749Y-102737523D01*
X166907919Y-102642876D01*
X166955789Y-102609357D01*
X166955792Y-102609355D01*
X166960300Y-102606198D01*
X167122198Y-102444300D01*
X167144050Y-102413093D01*
X167197872Y-102336226D01*
X167253523Y-102256749D01*
X167255846Y-102251767D01*
X167255849Y-102251762D01*
X167347961Y-102054225D01*
X167347961Y-102054224D01*
X167350284Y-102049243D01*
X167356728Y-102025196D01*
X167408119Y-101833402D01*
X167408119Y-101833400D01*
X167409543Y-101828087D01*
X167429498Y-101600000D01*
X168612502Y-101600000D01*
X168632457Y-101828087D01*
X168633881Y-101833400D01*
X168633881Y-101833402D01*
X168685273Y-102025196D01*
X168691716Y-102049243D01*
X168694039Y-102054224D01*
X168694039Y-102054225D01*
X168786151Y-102251762D01*
X168786154Y-102251767D01*
X168788477Y-102256749D01*
X168844128Y-102336226D01*
X168897951Y-102413093D01*
X168919802Y-102444300D01*
X169081700Y-102606198D01*
X169086208Y-102609355D01*
X169086211Y-102609357D01*
X169134081Y-102642876D01*
X169269251Y-102737523D01*
X169274233Y-102739846D01*
X169274238Y-102739849D01*
X169414405Y-102805209D01*
X169476757Y-102834284D01*
X169482065Y-102835706D01*
X169482067Y-102835707D01*
X169692598Y-102892119D01*
X169692600Y-102892119D01*
X169697913Y-102893543D01*
X169926000Y-102913498D01*
X170154087Y-102893543D01*
X170159400Y-102892119D01*
X170159402Y-102892119D01*
X170369933Y-102835707D01*
X170369935Y-102835706D01*
X170375243Y-102834284D01*
X170437595Y-102805209D01*
X170577762Y-102739849D01*
X170577767Y-102739846D01*
X170582749Y-102737523D01*
X170717919Y-102642876D01*
X170765789Y-102609357D01*
X170765792Y-102609355D01*
X170770300Y-102606198D01*
X170932198Y-102444300D01*
X170954050Y-102413093D01*
X171007872Y-102336226D01*
X171063523Y-102256749D01*
X171065846Y-102251767D01*
X171065849Y-102251762D01*
X171157961Y-102054225D01*
X171157961Y-102054224D01*
X171160284Y-102049243D01*
X171166728Y-102025196D01*
X171218119Y-101833402D01*
X171218119Y-101833400D01*
X171219543Y-101828087D01*
X171239498Y-101600000D01*
X171219543Y-101371913D01*
X171196461Y-101285769D01*
X171161707Y-101156067D01*
X171161706Y-101156065D01*
X171160284Y-101150757D01*
X171113709Y-101050876D01*
X171065849Y-100948238D01*
X171065846Y-100948233D01*
X171063523Y-100943251D01*
X170976943Y-100819602D01*
X170935357Y-100760211D01*
X170935355Y-100760208D01*
X170932198Y-100755700D01*
X170770300Y-100593802D01*
X170765792Y-100590645D01*
X170765789Y-100590643D01*
X170639920Y-100502509D01*
X170582749Y-100462477D01*
X170577767Y-100460154D01*
X170577762Y-100460151D01*
X170380225Y-100368039D01*
X170380224Y-100368039D01*
X170375243Y-100365716D01*
X170369935Y-100364294D01*
X170369933Y-100364293D01*
X170159402Y-100307881D01*
X170159400Y-100307881D01*
X170154087Y-100306457D01*
X169926000Y-100286502D01*
X169697913Y-100306457D01*
X169692600Y-100307881D01*
X169692598Y-100307881D01*
X169482067Y-100364293D01*
X169482065Y-100364294D01*
X169476757Y-100365716D01*
X169471776Y-100368039D01*
X169471775Y-100368039D01*
X169274238Y-100460151D01*
X169274233Y-100460154D01*
X169269251Y-100462477D01*
X169212080Y-100502509D01*
X169086211Y-100590643D01*
X169086208Y-100590645D01*
X169081700Y-100593802D01*
X168919802Y-100755700D01*
X168916645Y-100760208D01*
X168916643Y-100760211D01*
X168875057Y-100819602D01*
X168788477Y-100943251D01*
X168786154Y-100948233D01*
X168786151Y-100948238D01*
X168738291Y-101050876D01*
X168691716Y-101150757D01*
X168690294Y-101156065D01*
X168690293Y-101156067D01*
X168655539Y-101285769D01*
X168632457Y-101371913D01*
X168612502Y-101600000D01*
X167429498Y-101600000D01*
X167409543Y-101371913D01*
X167386461Y-101285769D01*
X167351707Y-101156067D01*
X167351706Y-101156065D01*
X167350284Y-101150757D01*
X167303709Y-101050876D01*
X167255849Y-100948238D01*
X167255846Y-100948233D01*
X167253523Y-100943251D01*
X167166943Y-100819602D01*
X167125357Y-100760211D01*
X167125355Y-100760208D01*
X167122198Y-100755700D01*
X166960300Y-100593802D01*
X166955792Y-100590645D01*
X166955789Y-100590643D01*
X166829920Y-100502509D01*
X166772749Y-100462477D01*
X166767767Y-100460154D01*
X166767762Y-100460151D01*
X166570225Y-100368039D01*
X166570224Y-100368039D01*
X166565243Y-100365716D01*
X166559935Y-100364294D01*
X166559933Y-100364293D01*
X166349402Y-100307881D01*
X166349400Y-100307881D01*
X166344087Y-100306457D01*
X166116000Y-100286502D01*
X165887913Y-100306457D01*
X165882600Y-100307881D01*
X165882598Y-100307881D01*
X165672067Y-100364293D01*
X165672065Y-100364294D01*
X165666757Y-100365716D01*
X165661776Y-100368039D01*
X165661775Y-100368039D01*
X165464238Y-100460151D01*
X165464233Y-100460154D01*
X165459251Y-100462477D01*
X165402080Y-100502509D01*
X165276211Y-100590643D01*
X165276208Y-100590645D01*
X165271700Y-100593802D01*
X165109802Y-100755700D01*
X165106645Y-100760208D01*
X165106643Y-100760211D01*
X165065057Y-100819602D01*
X164978477Y-100943251D01*
X164976154Y-100948233D01*
X164976151Y-100948238D01*
X164928291Y-101050876D01*
X164881716Y-101150757D01*
X164880294Y-101156065D01*
X164880293Y-101156067D01*
X164845539Y-101285769D01*
X164822457Y-101371913D01*
X164802502Y-101600000D01*
X163619498Y-101600000D01*
X163599543Y-101371913D01*
X163576461Y-101285769D01*
X163541707Y-101156067D01*
X163541706Y-101156065D01*
X163540284Y-101150757D01*
X163493709Y-101050876D01*
X163445849Y-100948238D01*
X163445846Y-100948233D01*
X163443523Y-100943251D01*
X163356943Y-100819602D01*
X163315357Y-100760211D01*
X163315355Y-100760208D01*
X163312198Y-100755700D01*
X163150300Y-100593802D01*
X163145792Y-100590645D01*
X163145789Y-100590643D01*
X163019920Y-100502509D01*
X162962749Y-100462477D01*
X162957767Y-100460154D01*
X162957762Y-100460151D01*
X162760225Y-100368039D01*
X162760224Y-100368039D01*
X162755243Y-100365716D01*
X162749935Y-100364294D01*
X162749933Y-100364293D01*
X162539402Y-100307881D01*
X162539400Y-100307881D01*
X162534087Y-100306457D01*
X162306000Y-100286502D01*
X162077913Y-100306457D01*
X162072600Y-100307881D01*
X162072598Y-100307881D01*
X161862067Y-100364293D01*
X161862065Y-100364294D01*
X161856757Y-100365716D01*
X161851776Y-100368039D01*
X161851775Y-100368039D01*
X161654238Y-100460151D01*
X161654233Y-100460154D01*
X161649251Y-100462477D01*
X161592080Y-100502509D01*
X161466211Y-100590643D01*
X161466208Y-100590645D01*
X161461700Y-100593802D01*
X161299802Y-100755700D01*
X161296645Y-100760208D01*
X161296643Y-100760211D01*
X161255057Y-100819602D01*
X161168477Y-100943251D01*
X161166154Y-100948233D01*
X161166151Y-100948238D01*
X161118291Y-101050876D01*
X161071716Y-101150757D01*
X161070294Y-101156065D01*
X161070293Y-101156067D01*
X161035539Y-101285769D01*
X161012457Y-101371913D01*
X160992502Y-101600000D01*
X161012457Y-101828087D01*
X161013880Y-101833398D01*
X161013882Y-101833409D01*
X161028861Y-101889310D01*
X161027172Y-101960287D01*
X160996250Y-102011017D01*
X160134517Y-102872750D01*
X160126191Y-102880326D01*
X160119697Y-102884447D01*
X160112493Y-102892119D01*
X160072915Y-102934265D01*
X160070160Y-102937107D01*
X160050361Y-102956906D01*
X160047937Y-102960031D01*
X160047929Y-102960040D01*
X160047863Y-102960126D01*
X160040155Y-102969151D01*
X160009783Y-103001494D01*
X160005965Y-103008438D01*
X160005964Y-103008440D01*
X159999978Y-103019329D01*
X159989127Y-103035847D01*
X159976650Y-103051933D01*
X159959024Y-103092666D01*
X159953807Y-103103314D01*
X159949158Y-103111771D01*
X159932431Y-103142197D01*
X159930460Y-103149872D01*
X159930458Y-103149878D01*
X159927369Y-103161911D01*
X159920966Y-103180613D01*
X159912883Y-103199292D01*
X159911644Y-103207117D01*
X159905940Y-103243127D01*
X159903535Y-103254740D01*
X159892500Y-103297718D01*
X159892500Y-103318065D01*
X159890949Y-103337776D01*
X159887765Y-103357879D01*
X159888511Y-103365771D01*
X159891941Y-103402056D01*
X159892500Y-103413914D01*
X159892500Y-108207812D01*
X159872498Y-108275933D01*
X159818842Y-108322426D01*
X159748568Y-108332530D01*
X159683988Y-108303036D01*
X159677405Y-108296907D01*
X159594300Y-108213802D01*
X159589792Y-108210645D01*
X159589789Y-108210643D01*
X159478886Y-108132988D01*
X159406749Y-108082477D01*
X159401767Y-108080154D01*
X159401762Y-108080151D01*
X159204225Y-107988039D01*
X159204224Y-107988039D01*
X159199243Y-107985716D01*
X159193935Y-107984294D01*
X159193933Y-107984293D01*
X158983402Y-107927881D01*
X158983400Y-107927881D01*
X158978087Y-107926457D01*
X158750000Y-107906502D01*
X158521913Y-107926457D01*
X158516600Y-107927881D01*
X158516598Y-107927881D01*
X158306067Y-107984293D01*
X158306065Y-107984294D01*
X158300757Y-107985716D01*
X158295776Y-107988039D01*
X158295775Y-107988039D01*
X158098238Y-108080151D01*
X158098233Y-108080154D01*
X158093251Y-108082477D01*
X158021114Y-108132988D01*
X157910211Y-108210643D01*
X157910208Y-108210645D01*
X157905700Y-108213802D01*
X157743802Y-108375700D01*
X157612477Y-108563251D01*
X157610154Y-108568233D01*
X157610151Y-108568238D01*
X157610034Y-108568489D01*
X157515716Y-108770757D01*
X157514294Y-108776065D01*
X157514293Y-108776067D01*
X157493019Y-108855461D01*
X157456457Y-108991913D01*
X157436502Y-109220000D01*
X157456457Y-109448087D01*
X157457881Y-109453400D01*
X157457881Y-109453402D01*
X157495025Y-109592022D01*
X157515716Y-109669243D01*
X157518039Y-109674224D01*
X157518039Y-109674225D01*
X157610151Y-109871762D01*
X157610154Y-109871767D01*
X157612477Y-109876749D01*
X157651312Y-109932211D01*
X157729978Y-110044557D01*
X157743802Y-110064300D01*
X157905700Y-110226198D01*
X157910208Y-110229355D01*
X157910211Y-110229357D01*
X157928279Y-110242008D01*
X158093251Y-110357523D01*
X158098233Y-110359846D01*
X158098238Y-110359849D01*
X158239533Y-110425735D01*
X158300757Y-110454284D01*
X158306065Y-110455706D01*
X158306067Y-110455707D01*
X158516598Y-110512119D01*
X158516600Y-110512119D01*
X158521913Y-110513543D01*
X158750000Y-110533498D01*
X158978087Y-110513543D01*
X158983400Y-110512119D01*
X158983402Y-110512119D01*
X159193933Y-110455707D01*
X159193935Y-110455706D01*
X159199243Y-110454284D01*
X159260467Y-110425735D01*
X159401762Y-110359849D01*
X159401767Y-110359846D01*
X159406749Y-110357523D01*
X159411258Y-110354366D01*
X159416019Y-110351617D01*
X159416589Y-110352605D01*
X159478432Y-110331750D01*
X159547292Y-110349036D01*
X159595875Y-110400807D01*
X159608756Y-110470625D01*
X159581846Y-110536324D01*
X159572521Y-110546746D01*
X157340517Y-112778750D01*
X157332191Y-112786326D01*
X157325697Y-112790447D01*
X157320274Y-112796222D01*
X157278915Y-112840265D01*
X157276160Y-112843107D01*
X157256361Y-112862906D01*
X157253937Y-112866031D01*
X157253929Y-112866040D01*
X157253863Y-112866126D01*
X157246155Y-112875151D01*
X157215783Y-112907494D01*
X157211965Y-112914438D01*
X157211964Y-112914440D01*
X157205978Y-112925329D01*
X157195127Y-112941847D01*
X157182650Y-112957933D01*
X157165024Y-112998666D01*
X157159807Y-113009314D01*
X157138431Y-113048197D01*
X157136460Y-113055872D01*
X157136458Y-113055878D01*
X157133369Y-113067911D01*
X157126966Y-113086613D01*
X157118883Y-113105292D01*
X157117644Y-113113117D01*
X157111940Y-113149127D01*
X157109535Y-113160740D01*
X157098500Y-113203718D01*
X157098500Y-113224065D01*
X157096949Y-113243776D01*
X157093765Y-113263879D01*
X157094511Y-113271771D01*
X157097941Y-113308056D01*
X157098500Y-113319914D01*
X157098500Y-114906397D01*
X157078498Y-114974518D01*
X157044770Y-115009610D01*
X156918735Y-115097860D01*
X156918729Y-115097865D01*
X156914219Y-115101023D01*
X156757023Y-115258219D01*
X156753866Y-115262727D01*
X156753864Y-115262730D01*
X156633684Y-115434366D01*
X156629512Y-115440324D01*
X156627189Y-115445306D01*
X156627186Y-115445311D01*
X156578195Y-115550373D01*
X156531277Y-115603658D01*
X156463000Y-115623119D01*
X156395040Y-115602577D01*
X156349805Y-115550373D01*
X156300814Y-115445311D01*
X156300811Y-115445306D01*
X156298488Y-115440324D01*
X156294316Y-115434366D01*
X156174136Y-115262730D01*
X156174134Y-115262727D01*
X156170977Y-115258219D01*
X156013781Y-115101023D01*
X156009273Y-115097866D01*
X156009270Y-115097864D01*
X155933505Y-115044813D01*
X155831677Y-114973512D01*
X155826695Y-114971189D01*
X155826690Y-114971186D01*
X155635178Y-114881883D01*
X155635177Y-114881882D01*
X155630196Y-114879560D01*
X155624888Y-114878138D01*
X155624886Y-114878137D01*
X155559051Y-114860497D01*
X155415463Y-114822022D01*
X155194000Y-114802647D01*
X154972537Y-114822022D01*
X154828949Y-114860497D01*
X154763114Y-114878137D01*
X154763112Y-114878138D01*
X154757804Y-114879560D01*
X154752823Y-114881882D01*
X154752822Y-114881883D01*
X154561311Y-114971186D01*
X154561306Y-114971189D01*
X154556324Y-114973512D01*
X154551817Y-114976668D01*
X154551815Y-114976669D01*
X154378730Y-115097864D01*
X154378727Y-115097866D01*
X154374219Y-115101023D01*
X154217023Y-115258219D01*
X154213866Y-115262727D01*
X154213864Y-115262730D01*
X154093684Y-115434366D01*
X154089512Y-115440324D01*
X154087189Y-115445306D01*
X154087186Y-115445311D01*
X154037919Y-115550965D01*
X153991001Y-115604250D01*
X153922724Y-115623711D01*
X153854764Y-115603169D01*
X153809529Y-115550965D01*
X153760377Y-115445559D01*
X153754897Y-115436068D01*
X153724206Y-115392235D01*
X153713729Y-115383860D01*
X153700282Y-115390928D01*
X153026022Y-116065188D01*
X153018408Y-116079132D01*
X153018539Y-116080965D01*
X153022790Y-116087580D01*
X153701003Y-116765793D01*
X153712777Y-116772223D01*
X153724793Y-116762926D01*
X153754897Y-116719932D01*
X153760377Y-116710441D01*
X153809529Y-116605035D01*
X153856447Y-116551750D01*
X153924724Y-116532289D01*
X153992684Y-116552831D01*
X154037919Y-116605035D01*
X154087186Y-116710689D01*
X154087189Y-116710694D01*
X154089512Y-116715676D01*
X154092668Y-116720183D01*
X154092669Y-116720185D01*
X154129107Y-116772223D01*
X154217023Y-116897781D01*
X154374219Y-117054977D01*
X154378727Y-117058134D01*
X154378730Y-117058136D01*
X154454495Y-117111187D01*
X154556323Y-117182488D01*
X154561305Y-117184811D01*
X154561310Y-117184814D01*
X154751810Y-117273645D01*
X154757804Y-117276440D01*
X154763112Y-117277862D01*
X154763114Y-117277863D01*
X154828949Y-117295503D01*
X154972537Y-117333978D01*
X155194000Y-117353353D01*
X155415463Y-117333978D01*
X155559051Y-117295503D01*
X155624886Y-117277863D01*
X155624888Y-117277862D01*
X155630196Y-117276440D01*
X155636190Y-117273645D01*
X155826690Y-117184814D01*
X155826695Y-117184811D01*
X155831677Y-117182488D01*
X155933505Y-117111187D01*
X156009270Y-117058136D01*
X156009273Y-117058134D01*
X156013781Y-117054977D01*
X156170977Y-116897781D01*
X156258894Y-116772223D01*
X156295331Y-116720185D01*
X156295332Y-116720183D01*
X156298488Y-116715676D01*
X156300811Y-116710694D01*
X156300814Y-116710689D01*
X156349805Y-116605627D01*
X156396723Y-116552342D01*
X156465000Y-116532881D01*
X156532960Y-116553423D01*
X156578195Y-116605627D01*
X156627186Y-116710689D01*
X156627189Y-116710694D01*
X156629512Y-116715676D01*
X156632668Y-116720183D01*
X156632669Y-116720185D01*
X156669107Y-116772223D01*
X156757023Y-116897781D01*
X156914219Y-117054977D01*
X156918727Y-117058134D01*
X156918730Y-117058136D01*
X157044771Y-117146391D01*
X157089099Y-117201848D01*
X157098500Y-117249604D01*
X157098500Y-118556577D01*
X157078498Y-118624698D01*
X157061595Y-118645672D01*
X154800517Y-120906750D01*
X154792191Y-120914326D01*
X154785697Y-120918447D01*
X154780274Y-120924222D01*
X154738915Y-120968265D01*
X154736160Y-120971107D01*
X154716361Y-120990906D01*
X154713937Y-120994031D01*
X154713929Y-120994040D01*
X154713863Y-120994126D01*
X154706155Y-121003151D01*
X154675783Y-121035494D01*
X154671965Y-121042438D01*
X154671964Y-121042440D01*
X154665978Y-121053329D01*
X154655127Y-121069847D01*
X154642650Y-121085933D01*
X154625024Y-121126666D01*
X154619807Y-121137314D01*
X154598431Y-121176197D01*
X154596460Y-121183872D01*
X154596458Y-121183878D01*
X154593369Y-121195911D01*
X154586966Y-121214613D01*
X154578883Y-121233292D01*
X154577644Y-121241117D01*
X154571940Y-121277127D01*
X154569535Y-121288740D01*
X154558500Y-121331718D01*
X154558500Y-121352065D01*
X154556949Y-121371776D01*
X154553765Y-121391879D01*
X154554511Y-121399771D01*
X154557941Y-121436056D01*
X154558500Y-121447914D01*
X154558500Y-122526397D01*
X154538498Y-122594518D01*
X154504770Y-122629610D01*
X154378735Y-122717860D01*
X154378729Y-122717865D01*
X154374219Y-122721023D01*
X154217023Y-122878219D01*
X154213866Y-122882727D01*
X154213864Y-122882730D01*
X154131040Y-123001016D01*
X154089512Y-123060324D01*
X154087189Y-123065306D01*
X154087186Y-123065311D01*
X154038195Y-123170373D01*
X153991277Y-123223658D01*
X153923000Y-123243119D01*
X153855040Y-123222577D01*
X153809805Y-123170373D01*
X153760814Y-123065311D01*
X153760811Y-123065306D01*
X153758488Y-123060324D01*
X153716960Y-123001016D01*
X153634136Y-122882730D01*
X153634134Y-122882727D01*
X153630977Y-122878219D01*
X153473781Y-122721023D01*
X153469273Y-122717866D01*
X153469270Y-122717864D01*
X153343230Y-122629610D01*
X153291677Y-122593512D01*
X153286695Y-122591189D01*
X153286690Y-122591186D01*
X153095178Y-122501883D01*
X153095177Y-122501882D01*
X153090196Y-122499560D01*
X153084888Y-122498138D01*
X153084886Y-122498137D01*
X153019051Y-122480497D01*
X152875463Y-122442022D01*
X152654000Y-122422647D01*
X152432537Y-122442022D01*
X152288949Y-122480497D01*
X152223114Y-122498137D01*
X152223112Y-122498138D01*
X152217804Y-122499560D01*
X152212823Y-122501882D01*
X152212822Y-122501883D01*
X152021311Y-122591186D01*
X152021306Y-122591189D01*
X152016324Y-122593512D01*
X152011817Y-122596668D01*
X152011815Y-122596669D01*
X151838730Y-122717864D01*
X151838727Y-122717866D01*
X151834219Y-122721023D01*
X151677023Y-122878219D01*
X151673866Y-122882727D01*
X151673864Y-122882730D01*
X151591040Y-123001016D01*
X151549512Y-123060324D01*
X151547189Y-123065306D01*
X151547186Y-123065311D01*
X151469934Y-123230978D01*
X151455560Y-123261804D01*
X151398022Y-123476537D01*
X151378647Y-123698000D01*
X127508500Y-123698000D01*
X127508500Y-122938834D01*
X136836500Y-122938834D01*
X136843255Y-123001016D01*
X136894385Y-123137405D01*
X136981739Y-123253961D01*
X137098295Y-123341315D01*
X137234684Y-123392445D01*
X137296866Y-123399200D01*
X139563134Y-123399200D01*
X139625316Y-123392445D01*
X139761705Y-123341315D01*
X139878261Y-123253961D01*
X139965615Y-123137405D01*
X140016745Y-123001016D01*
X140023500Y-122938834D01*
X140023500Y-120672566D01*
X140016745Y-120610384D01*
X139965615Y-120473995D01*
X139878261Y-120357439D01*
X139761705Y-120270085D01*
X139625316Y-120218955D01*
X139563134Y-120212200D01*
X137296866Y-120212200D01*
X137234684Y-120218955D01*
X137098295Y-120270085D01*
X136981739Y-120357439D01*
X136894385Y-120473995D01*
X136843255Y-120610384D01*
X136836500Y-120672566D01*
X136836500Y-122938834D01*
X127508500Y-122938834D01*
X127508500Y-117136777D01*
X151959777Y-117136777D01*
X151969074Y-117148793D01*
X152012069Y-117178898D01*
X152021555Y-117184376D01*
X152212993Y-117273645D01*
X152223285Y-117277391D01*
X152427309Y-117332059D01*
X152438104Y-117333962D01*
X152648525Y-117352372D01*
X152659475Y-117352372D01*
X152869896Y-117333962D01*
X152880691Y-117332059D01*
X153084715Y-117277391D01*
X153095007Y-117273645D01*
X153286445Y-117184376D01*
X153295931Y-117178898D01*
X153339764Y-117148207D01*
X153348139Y-117137729D01*
X153341071Y-117124281D01*
X152666812Y-116450022D01*
X152652868Y-116442408D01*
X152651035Y-116442539D01*
X152644420Y-116446790D01*
X151966207Y-117125003D01*
X151959777Y-117136777D01*
X127508500Y-117136777D01*
X127508500Y-116083475D01*
X151379628Y-116083475D01*
X151398038Y-116293896D01*
X151399941Y-116304691D01*
X151454609Y-116508715D01*
X151458355Y-116519007D01*
X151547623Y-116710441D01*
X151553103Y-116719932D01*
X151583794Y-116763765D01*
X151594271Y-116772140D01*
X151607718Y-116765072D01*
X152281978Y-116090812D01*
X152289592Y-116076868D01*
X152289461Y-116075035D01*
X152285210Y-116068420D01*
X151606997Y-115390207D01*
X151595223Y-115383777D01*
X151583207Y-115393074D01*
X151553103Y-115436068D01*
X151547623Y-115445559D01*
X151458355Y-115636993D01*
X151454609Y-115647285D01*
X151399941Y-115851309D01*
X151398038Y-115862104D01*
X151379628Y-116072525D01*
X151379628Y-116083475D01*
X127508500Y-116083475D01*
X127508500Y-115018271D01*
X151959860Y-115018271D01*
X151966928Y-115031718D01*
X152641188Y-115705978D01*
X152655132Y-115713592D01*
X152656965Y-115713461D01*
X152663580Y-115709210D01*
X153341793Y-115030997D01*
X153348223Y-115019223D01*
X153338926Y-115007207D01*
X153295931Y-114977102D01*
X153286445Y-114971624D01*
X153095007Y-114882355D01*
X153084715Y-114878609D01*
X152880691Y-114823941D01*
X152869896Y-114822038D01*
X152659475Y-114803628D01*
X152648525Y-114803628D01*
X152438104Y-114822038D01*
X152427309Y-114823941D01*
X152223285Y-114878609D01*
X152212993Y-114882355D01*
X152021559Y-114971623D01*
X152012068Y-114977103D01*
X151968235Y-115007794D01*
X151959860Y-115018271D01*
X127508500Y-115018271D01*
X127508500Y-106021412D01*
X151953737Y-106021412D01*
X151966944Y-106250451D01*
X151968377Y-106260653D01*
X152018810Y-106484442D01*
X152021898Y-106494295D01*
X152108204Y-106706840D01*
X152112852Y-106716041D01*
X152232712Y-106911637D01*
X152238810Y-106919969D01*
X152267118Y-106952648D01*
X152296601Y-107017234D01*
X152286487Y-107087506D01*
X152239985Y-107141154D01*
X152232392Y-107145665D01*
X152227699Y-107148235D01*
X152219295Y-107151385D01*
X152102739Y-107238739D01*
X152015385Y-107355295D01*
X151964255Y-107491684D01*
X151957500Y-107553866D01*
X151957500Y-109550134D01*
X151964255Y-109612316D01*
X152015385Y-109748705D01*
X152102739Y-109865261D01*
X152219295Y-109952615D01*
X152355684Y-110003745D01*
X152417866Y-110010500D01*
X154414134Y-110010500D01*
X154476316Y-110003745D01*
X154612705Y-109952615D01*
X154729261Y-109865261D01*
X154816615Y-109748705D01*
X154867745Y-109612316D01*
X154874500Y-109550134D01*
X154874500Y-107553866D01*
X154867745Y-107491684D01*
X154816615Y-107355295D01*
X154729261Y-107238739D01*
X154612705Y-107151385D01*
X154604302Y-107148235D01*
X154599645Y-107145685D01*
X154549500Y-107095425D01*
X154534487Y-107026034D01*
X154557834Y-106961640D01*
X154667014Y-106809700D01*
X154672324Y-106800863D01*
X154773966Y-106595206D01*
X154777765Y-106585611D01*
X154844453Y-106366120D01*
X154846632Y-106356039D01*
X154876813Y-106126789D01*
X154877332Y-106120114D01*
X154878915Y-106055364D01*
X154878721Y-106048647D01*
X154859776Y-105818206D01*
X154858093Y-105808044D01*
X154802204Y-105585539D01*
X154798883Y-105575784D01*
X154707409Y-105365410D01*
X154702531Y-105356312D01*
X154621384Y-105230876D01*
X154610698Y-105221674D01*
X154601133Y-105226077D01*
X153505095Y-106322115D01*
X153442783Y-106356141D01*
X153371968Y-106351076D01*
X153326905Y-106322115D01*
X152233884Y-105229094D01*
X152222348Y-105222794D01*
X152210065Y-105232418D01*
X152146849Y-105325089D01*
X152141756Y-105334053D01*
X152045163Y-105542145D01*
X152041606Y-105551813D01*
X151980299Y-105772879D01*
X151978368Y-105782999D01*
X151953989Y-106011123D01*
X151953737Y-106021412D01*
X127508500Y-106021412D01*
X127508500Y-101759539D01*
X136667173Y-101759539D01*
X136667397Y-101764205D01*
X136667397Y-101764211D01*
X136670721Y-101833402D01*
X136679713Y-102020608D01*
X136730704Y-102276956D01*
X136819026Y-102522952D01*
X136821242Y-102527076D01*
X136922298Y-102715151D01*
X136942737Y-102753191D01*
X136945532Y-102756934D01*
X136945534Y-102756937D01*
X137096330Y-102958877D01*
X137096335Y-102958883D01*
X137099122Y-102962615D01*
X137102431Y-102965895D01*
X137102436Y-102965901D01*
X137241054Y-103103314D01*
X137284743Y-103146623D01*
X137288505Y-103149381D01*
X137288508Y-103149384D01*
X137491750Y-103298407D01*
X137495524Y-103301174D01*
X137499667Y-103303354D01*
X137499669Y-103303355D01*
X137722684Y-103420689D01*
X137722689Y-103420691D01*
X137726834Y-103422872D01*
X137973590Y-103509044D01*
X137978183Y-103509916D01*
X138225785Y-103556924D01*
X138225788Y-103556924D01*
X138230374Y-103557795D01*
X138360958Y-103562926D01*
X138486875Y-103567874D01*
X138486881Y-103567874D01*
X138491543Y-103568057D01*
X138570977Y-103559357D01*
X138746707Y-103540112D01*
X138746712Y-103540111D01*
X138751360Y-103539602D01*
X138755884Y-103538411D01*
X138840081Y-103516244D01*
X151952938Y-103516244D01*
X151953235Y-103521396D01*
X151953235Y-103521400D01*
X151958017Y-103604327D01*
X151966744Y-103755680D01*
X152019470Y-103989646D01*
X152109702Y-104211859D01*
X152235014Y-104416351D01*
X152392043Y-104597630D01*
X152532226Y-104714012D01*
X152541697Y-104721875D01*
X152581332Y-104780777D01*
X152586904Y-104827626D01*
X152584954Y-104855461D01*
X152592540Y-104869330D01*
X153403188Y-105679978D01*
X153417132Y-105687592D01*
X153418965Y-105687461D01*
X153425580Y-105683210D01*
X154240590Y-104868200D01*
X154248204Y-104854256D01*
X154246153Y-104825581D01*
X154261244Y-104756207D01*
X154298663Y-104714014D01*
X154360627Y-104669815D01*
X154530511Y-104500523D01*
X154670463Y-104305758D01*
X154719240Y-104207067D01*
X154774433Y-104095392D01*
X154774434Y-104095390D01*
X154776727Y-104090750D01*
X154846447Y-103861274D01*
X154877752Y-103623492D01*
X154879353Y-103557978D01*
X154879417Y-103555365D01*
X154879417Y-103555361D01*
X154879499Y-103552000D01*
X154867171Y-103402056D01*
X154860271Y-103318124D01*
X154860270Y-103318118D01*
X154859847Y-103312973D01*
X154821903Y-103161911D01*
X154802679Y-103085375D01*
X154802678Y-103085371D01*
X154801420Y-103080364D01*
X154799364Y-103075634D01*
X154799361Y-103075627D01*
X154707847Y-102865159D01*
X154707845Y-102865156D01*
X154705787Y-102860422D01*
X154689494Y-102835236D01*
X154592988Y-102686062D01*
X158028493Y-102686062D01*
X158037789Y-102698077D01*
X158088994Y-102733931D01*
X158098489Y-102739414D01*
X158295947Y-102831490D01*
X158306239Y-102835236D01*
X158516688Y-102891625D01*
X158527481Y-102893528D01*
X158744525Y-102912517D01*
X158755475Y-102912517D01*
X158972519Y-102893528D01*
X158983312Y-102891625D01*
X159193761Y-102835236D01*
X159204053Y-102831490D01*
X159401511Y-102739414D01*
X159411006Y-102733931D01*
X159463048Y-102697491D01*
X159471424Y-102687012D01*
X159464356Y-102673566D01*
X158762812Y-101972022D01*
X158748868Y-101964408D01*
X158747035Y-101964539D01*
X158740420Y-101968790D01*
X158034923Y-102674287D01*
X158028493Y-102686062D01*
X154592988Y-102686062D01*
X154578325Y-102663396D01*
X154578323Y-102663393D01*
X154575515Y-102659053D01*
X154568249Y-102651067D01*
X154417582Y-102485487D01*
X154417580Y-102485486D01*
X154414104Y-102481665D01*
X154410053Y-102478466D01*
X154410049Y-102478462D01*
X154229946Y-102336226D01*
X154225888Y-102333021D01*
X154015922Y-102217113D01*
X153859655Y-102161776D01*
X153794720Y-102138781D01*
X153794716Y-102138780D01*
X153789845Y-102137055D01*
X153784752Y-102136148D01*
X153784749Y-102136147D01*
X153558816Y-102095902D01*
X153558810Y-102095901D01*
X153553727Y-102094996D01*
X153466460Y-102093930D01*
X153319081Y-102092129D01*
X153319079Y-102092129D01*
X153313911Y-102092066D01*
X153076837Y-102128343D01*
X152848871Y-102202854D01*
X152844279Y-102205244D01*
X152844280Y-102205244D01*
X152706523Y-102276956D01*
X152636136Y-102313597D01*
X152632003Y-102316700D01*
X152632000Y-102316702D01*
X152448480Y-102454493D01*
X152444345Y-102457598D01*
X152278648Y-102630990D01*
X152143495Y-102829117D01*
X152141316Y-102833811D01*
X152141315Y-102833813D01*
X152063480Y-103001494D01*
X152042516Y-103046656D01*
X152007891Y-103171513D01*
X151986406Y-103248987D01*
X151978424Y-103277768D01*
X151952938Y-103516244D01*
X138840081Y-103516244D01*
X138999594Y-103474248D01*
X138999596Y-103474247D01*
X139004117Y-103473057D01*
X139244262Y-103369882D01*
X139327903Y-103318124D01*
X139462547Y-103234804D01*
X139462548Y-103234804D01*
X139466519Y-103232346D01*
X139470082Y-103229329D01*
X139470087Y-103229326D01*
X139662439Y-103066487D01*
X139662440Y-103066486D01*
X139666005Y-103063468D01*
X139726061Y-102994987D01*
X139835257Y-102870474D01*
X139835261Y-102870469D01*
X139838339Y-102866959D01*
X139860851Y-102831961D01*
X139958424Y-102680265D01*
X139979733Y-102647137D01*
X140087083Y-102408829D01*
X140113727Y-102314356D01*
X140156760Y-102161776D01*
X140156761Y-102161773D01*
X140158030Y-102157272D01*
X140174832Y-102025196D01*
X140190616Y-101901121D01*
X140190616Y-101901117D01*
X140191014Y-101897991D01*
X140191242Y-101889310D01*
X140192705Y-101833409D01*
X140193431Y-101805700D01*
X140178552Y-101605475D01*
X157437483Y-101605475D01*
X157456472Y-101822519D01*
X157458375Y-101833312D01*
X157514764Y-102043761D01*
X157518510Y-102054053D01*
X157610586Y-102251511D01*
X157616069Y-102261006D01*
X157652509Y-102313048D01*
X157662988Y-102321424D01*
X157676434Y-102314356D01*
X158377978Y-101612812D01*
X158384356Y-101601132D01*
X159114408Y-101601132D01*
X159114539Y-101602965D01*
X159118790Y-101609580D01*
X159824287Y-102315077D01*
X159836062Y-102321507D01*
X159848077Y-102312211D01*
X159883931Y-102261006D01*
X159889414Y-102251511D01*
X159981490Y-102054053D01*
X159985236Y-102043761D01*
X160041625Y-101833312D01*
X160043528Y-101822519D01*
X160062517Y-101605475D01*
X160062517Y-101594525D01*
X160043528Y-101377481D01*
X160041625Y-101366688D01*
X159985236Y-101156239D01*
X159981490Y-101145947D01*
X159889414Y-100948489D01*
X159883931Y-100938994D01*
X159847491Y-100886952D01*
X159837012Y-100878576D01*
X159823566Y-100885644D01*
X159122022Y-101587188D01*
X159114408Y-101601132D01*
X158384356Y-101601132D01*
X158385592Y-101598868D01*
X158385461Y-101597035D01*
X158381210Y-101590420D01*
X157675713Y-100884923D01*
X157663938Y-100878493D01*
X157651923Y-100887789D01*
X157616069Y-100938994D01*
X157610586Y-100948489D01*
X157518510Y-101145947D01*
X157514764Y-101156239D01*
X157458375Y-101366688D01*
X157456472Y-101377481D01*
X157437483Y-101594525D01*
X157437483Y-101605475D01*
X140178552Y-101605475D01*
X140178061Y-101598868D01*
X140174407Y-101549700D01*
X140174406Y-101549696D01*
X140174061Y-101545048D01*
X140162725Y-101494948D01*
X140117408Y-101294680D01*
X140116377Y-101290123D01*
X140093467Y-101231210D01*
X140023340Y-101050876D01*
X140023339Y-101050873D01*
X140021647Y-101046523D01*
X139891951Y-100819602D01*
X139730138Y-100614343D01*
X139622394Y-100512988D01*
X158028576Y-100512988D01*
X158035644Y-100526434D01*
X158737188Y-101227978D01*
X158751132Y-101235592D01*
X158752965Y-101235461D01*
X158759580Y-101231210D01*
X159465077Y-100525713D01*
X159471507Y-100513938D01*
X159462211Y-100501923D01*
X159411006Y-100466069D01*
X159401511Y-100460586D01*
X159204053Y-100368510D01*
X159193761Y-100364764D01*
X158983312Y-100308375D01*
X158972519Y-100306472D01*
X158755475Y-100287483D01*
X158744525Y-100287483D01*
X158527481Y-100306472D01*
X158516688Y-100308375D01*
X158306239Y-100364764D01*
X158295947Y-100368510D01*
X158098489Y-100460586D01*
X158088994Y-100466069D01*
X158036952Y-100502509D01*
X158028576Y-100512988D01*
X139622394Y-100512988D01*
X139539763Y-100435257D01*
X139387437Y-100329584D01*
X139328851Y-100288941D01*
X139328848Y-100288939D01*
X139325009Y-100286276D01*
X139320816Y-100284208D01*
X139094781Y-100172740D01*
X139094778Y-100172739D01*
X139090593Y-100170675D01*
X139044449Y-100155904D01*
X138846123Y-100092420D01*
X138841665Y-100090993D01*
X138583693Y-100048979D01*
X138469942Y-100047490D01*
X138327022Y-100045619D01*
X138327019Y-100045619D01*
X138322345Y-100045558D01*
X138063362Y-100080804D01*
X137812433Y-100153943D01*
X137808180Y-100155903D01*
X137808179Y-100155904D01*
X137771659Y-100172740D01*
X137575072Y-100263368D01*
X137539787Y-100286502D01*
X137360404Y-100404110D01*
X137360399Y-100404114D01*
X137356491Y-100406676D01*
X137161494Y-100580718D01*
X136994363Y-100781670D01*
X136991934Y-100785673D01*
X136898897Y-100938994D01*
X136858771Y-101005119D01*
X136757697Y-101246155D01*
X136693359Y-101499483D01*
X136667173Y-101759539D01*
X127508500Y-101759539D01*
X127508500Y-75144469D01*
X146669095Y-75144469D01*
X146669392Y-75149622D01*
X146669392Y-75149625D01*
X146675067Y-75248041D01*
X146682427Y-75375697D01*
X146683564Y-75380743D01*
X146683565Y-75380749D01*
X146706535Y-75482671D01*
X146733346Y-75601642D01*
X146735288Y-75606424D01*
X146735289Y-75606428D01*
X146775023Y-75704280D01*
X146820484Y-75816237D01*
X146941501Y-76013719D01*
X147093147Y-76188784D01*
X147271349Y-76336730D01*
X147471322Y-76453584D01*
X147476147Y-76455426D01*
X147476148Y-76455427D01*
X147489242Y-76460427D01*
X147687694Y-76536209D01*
X147692760Y-76537240D01*
X147692761Y-76537240D01*
X147717337Y-76542240D01*
X147914656Y-76582385D01*
X148045324Y-76587176D01*
X148140949Y-76590683D01*
X148140953Y-76590683D01*
X148146113Y-76590872D01*
X148151233Y-76590216D01*
X148151235Y-76590216D01*
X148224270Y-76580860D01*
X148375847Y-76561442D01*
X148380795Y-76559957D01*
X148380802Y-76559956D01*
X148592747Y-76496369D01*
X148597690Y-76494886D01*
X148671792Y-76458584D01*
X148801049Y-76395262D01*
X148801052Y-76395260D01*
X148805684Y-76392991D01*
X148994243Y-76258494D01*
X149158303Y-76095005D01*
X149293458Y-75906917D01*
X149335804Y-75821237D01*
X149393784Y-75703922D01*
X149393785Y-75703920D01*
X149396078Y-75699280D01*
X149463408Y-75477671D01*
X149493640Y-75248041D01*
X149495327Y-75179000D01*
X149492899Y-75149469D01*
X160385095Y-75149469D01*
X160385392Y-75154622D01*
X160385392Y-75154625D01*
X160390970Y-75251359D01*
X160398427Y-75380697D01*
X160399564Y-75385743D01*
X160399565Y-75385749D01*
X160431741Y-75528523D01*
X160449346Y-75606642D01*
X160451288Y-75611424D01*
X160451289Y-75611428D01*
X160532510Y-75811450D01*
X160536484Y-75821237D01*
X160657501Y-76018719D01*
X160809147Y-76193784D01*
X160961785Y-76320507D01*
X160977346Y-76333425D01*
X160987349Y-76341730D01*
X161187322Y-76458584D01*
X161403694Y-76541209D01*
X161408760Y-76542240D01*
X161408761Y-76542240D01*
X161461846Y-76553040D01*
X161630656Y-76587385D01*
X161761324Y-76592176D01*
X161856949Y-76595683D01*
X161856953Y-76595683D01*
X161862113Y-76595872D01*
X161867233Y-76595216D01*
X161867235Y-76595216D01*
X161940270Y-76585860D01*
X162091847Y-76566442D01*
X162096795Y-76564957D01*
X162096802Y-76564956D01*
X162308747Y-76501369D01*
X162313690Y-76499886D01*
X162320869Y-76496369D01*
X162517049Y-76400262D01*
X162517052Y-76400260D01*
X162521684Y-76397991D01*
X162710243Y-76263494D01*
X162874303Y-76100005D01*
X163009458Y-75911917D01*
X163056641Y-75816450D01*
X163109784Y-75708922D01*
X163109785Y-75708920D01*
X163112078Y-75704280D01*
X163179408Y-75482671D01*
X163209640Y-75253041D01*
X163211327Y-75184000D01*
X163205032Y-75107434D01*
X163192773Y-74958318D01*
X163192772Y-74958312D01*
X163192349Y-74953167D01*
X163135925Y-74728533D01*
X163131692Y-74718797D01*
X163045630Y-74520868D01*
X163045628Y-74520865D01*
X163043570Y-74516131D01*
X162917764Y-74321665D01*
X162914282Y-74317838D01*
X162827848Y-74222848D01*
X162796796Y-74159002D01*
X162805192Y-74088504D01*
X162850369Y-74033736D01*
X162876812Y-74020067D01*
X162936297Y-73997767D01*
X162944705Y-73994615D01*
X163061261Y-73907261D01*
X163148615Y-73790705D01*
X163199745Y-73654316D01*
X163206500Y-73592134D01*
X163206500Y-71695866D01*
X163199745Y-71633684D01*
X163148615Y-71497295D01*
X163061261Y-71380739D01*
X162944705Y-71293385D01*
X162808316Y-71242255D01*
X162746134Y-71235500D01*
X160849866Y-71235500D01*
X160787684Y-71242255D01*
X160651295Y-71293385D01*
X160534739Y-71380739D01*
X160447385Y-71497295D01*
X160396255Y-71633684D01*
X160389500Y-71695866D01*
X160389500Y-73592134D01*
X160396255Y-73654316D01*
X160447385Y-73790705D01*
X160534739Y-73907261D01*
X160651295Y-73994615D01*
X160659704Y-73997767D01*
X160659705Y-73997768D01*
X160719164Y-74020058D01*
X160775929Y-74062699D01*
X160800629Y-74129261D01*
X160785422Y-74198609D01*
X160766029Y-74225091D01*
X160699639Y-74294564D01*
X160696725Y-74298836D01*
X160696724Y-74298837D01*
X160681599Y-74321009D01*
X160569119Y-74485899D01*
X160471602Y-74695981D01*
X160409707Y-74919169D01*
X160385095Y-75149469D01*
X149492899Y-75149469D01*
X149477184Y-74958318D01*
X149476773Y-74953318D01*
X149476772Y-74953312D01*
X149476349Y-74948167D01*
X149419925Y-74723533D01*
X149417866Y-74718797D01*
X149329630Y-74515868D01*
X149329628Y-74515865D01*
X149327570Y-74511131D01*
X149201764Y-74316665D01*
X149180992Y-74293837D01*
X149111848Y-74217848D01*
X149080796Y-74154002D01*
X149089192Y-74083504D01*
X149134369Y-74028736D01*
X149160812Y-74015067D01*
X149206960Y-73997767D01*
X149228705Y-73989615D01*
X149345261Y-73902261D01*
X149432615Y-73785705D01*
X149483745Y-73649316D01*
X149490500Y-73587134D01*
X149490500Y-71690866D01*
X149483745Y-71628684D01*
X149432615Y-71492295D01*
X149345261Y-71375739D01*
X149228705Y-71288385D01*
X149092316Y-71237255D01*
X149030134Y-71230500D01*
X147133866Y-71230500D01*
X147071684Y-71237255D01*
X146935295Y-71288385D01*
X146818739Y-71375739D01*
X146731385Y-71492295D01*
X146680255Y-71628684D01*
X146673500Y-71690866D01*
X146673500Y-73587134D01*
X146680255Y-73649316D01*
X146731385Y-73785705D01*
X146818739Y-73902261D01*
X146935295Y-73989615D01*
X146943704Y-73992767D01*
X146943705Y-73992768D01*
X147003164Y-74015058D01*
X147059929Y-74057699D01*
X147084629Y-74124261D01*
X147069422Y-74193609D01*
X147050029Y-74220091D01*
X146983639Y-74289564D01*
X146980725Y-74293836D01*
X146980724Y-74293837D01*
X146965152Y-74316665D01*
X146853119Y-74480899D01*
X146755602Y-74690981D01*
X146693707Y-74914169D01*
X146669095Y-75144469D01*
X127508500Y-75144469D01*
X127508500Y-45847000D01*
X146801018Y-45847000D01*
X146819640Y-46149374D01*
X146875225Y-46447178D01*
X146966933Y-46735910D01*
X147093377Y-47011208D01*
X147252647Y-47268909D01*
X147255067Y-47271922D01*
X147255073Y-47271931D01*
X147439911Y-47502100D01*
X147439916Y-47502105D01*
X147442336Y-47505119D01*
X147659575Y-47716268D01*
X147901083Y-47899164D01*
X148163208Y-48051043D01*
X148166762Y-48052555D01*
X148166767Y-48052557D01*
X148438429Y-48168096D01*
X148441989Y-48169610D01*
X148445709Y-48170676D01*
X148683652Y-48238869D01*
X148685682Y-48239470D01*
X148693800Y-48243281D01*
X148702667Y-48244662D01*
X148710230Y-48246974D01*
X148711703Y-48247495D01*
X148711715Y-48247458D01*
X148716351Y-48248928D01*
X148720869Y-48250755D01*
X148733092Y-48253614D01*
X148753847Y-48255181D01*
X148780676Y-48257207D01*
X148790573Y-48258349D01*
X148799575Y-48259751D01*
X148799578Y-48259751D01*
X148804386Y-48260500D01*
X148819543Y-48260500D01*
X148829031Y-48260858D01*
X148878337Y-48264581D01*
X148887121Y-48262717D01*
X148894161Y-48262245D01*
X148910787Y-48260500D01*
X158931613Y-48260500D01*
X158943104Y-48261025D01*
X158948418Y-48261512D01*
X158957150Y-48263589D01*
X159014561Y-48260663D01*
X159020974Y-48260500D01*
X159040513Y-48260500D01*
X159047384Y-48259516D01*
X159058820Y-48258408D01*
X159087467Y-48256947D01*
X159097756Y-48256423D01*
X159097757Y-48256423D01*
X159102619Y-48256175D01*
X159114908Y-48253614D01*
X159119460Y-48251902D01*
X159122703Y-48250960D01*
X159126222Y-48249797D01*
X159128874Y-48249037D01*
X159133541Y-48248038D01*
X159139306Y-48246352D01*
X159148187Y-48245080D01*
X159156354Y-48241367D01*
X159164593Y-48238958D01*
X159166534Y-48238243D01*
X159402291Y-48170676D01*
X159406011Y-48169610D01*
X159409571Y-48168096D01*
X159681233Y-48052557D01*
X159681238Y-48052555D01*
X159684792Y-48051043D01*
X159946917Y-47899164D01*
X160188425Y-47716268D01*
X160405664Y-47505119D01*
X160408084Y-47502105D01*
X160408089Y-47502100D01*
X160592927Y-47271931D01*
X160592933Y-47271922D01*
X160595353Y-47268909D01*
X160754623Y-47011208D01*
X160881067Y-46735910D01*
X160972775Y-46447178D01*
X161028360Y-46149374D01*
X161046982Y-45847000D01*
X161028360Y-45544626D01*
X160972775Y-45246822D01*
X160881067Y-44958090D01*
X160754623Y-44682792D01*
X160595353Y-44425091D01*
X160592933Y-44422078D01*
X160592927Y-44422069D01*
X160408089Y-44191900D01*
X160408084Y-44191895D01*
X160405664Y-44188881D01*
X160188425Y-43977732D01*
X159946917Y-43794836D01*
X159684792Y-43642957D01*
X159681238Y-43641445D01*
X159681233Y-43641443D01*
X159409571Y-43525904D01*
X159409570Y-43525904D01*
X159406011Y-43524390D01*
X159164348Y-43455131D01*
X159162318Y-43454530D01*
X159154200Y-43450719D01*
X159145333Y-43449338D01*
X159137770Y-43447026D01*
X159136297Y-43446505D01*
X159136285Y-43446542D01*
X159131649Y-43445072D01*
X159127131Y-43443245D01*
X159114908Y-43440386D01*
X159093212Y-43438748D01*
X159067324Y-43436793D01*
X159057427Y-43435651D01*
X159048425Y-43434249D01*
X159048422Y-43434249D01*
X159043614Y-43433500D01*
X159028457Y-43433500D01*
X159018970Y-43433142D01*
X158978616Y-43430095D01*
X158969663Y-43429419D01*
X158960879Y-43431283D01*
X158953839Y-43431755D01*
X158937213Y-43433500D01*
X148916387Y-43433500D01*
X148904896Y-43432975D01*
X148899582Y-43432488D01*
X148890850Y-43430411D01*
X148840542Y-43432975D01*
X148833439Y-43433337D01*
X148827026Y-43433500D01*
X148807487Y-43433500D01*
X148800616Y-43434484D01*
X148789180Y-43435592D01*
X148760533Y-43437053D01*
X148750244Y-43437577D01*
X148750243Y-43437577D01*
X148745381Y-43437825D01*
X148733092Y-43440386D01*
X148728540Y-43442098D01*
X148725297Y-43443040D01*
X148721778Y-43444203D01*
X148719126Y-43444963D01*
X148714459Y-43445962D01*
X148708694Y-43447648D01*
X148699813Y-43448920D01*
X148691646Y-43452633D01*
X148683407Y-43455042D01*
X148681466Y-43455757D01*
X148441989Y-43524390D01*
X148438430Y-43525904D01*
X148438429Y-43525904D01*
X148166767Y-43641443D01*
X148166762Y-43641445D01*
X148163208Y-43642957D01*
X147901083Y-43794836D01*
X147659575Y-43977732D01*
X147442336Y-44188881D01*
X147439916Y-44191895D01*
X147439911Y-44191900D01*
X147255073Y-44422069D01*
X147255067Y-44422078D01*
X147252647Y-44425091D01*
X147093377Y-44682792D01*
X146966933Y-44958090D01*
X146875225Y-45246822D01*
X146819640Y-45544626D01*
X146801018Y-45847000D01*
X127508500Y-45847000D01*
X127508500Y-42036500D01*
X127528502Y-41968379D01*
X127582158Y-41921886D01*
X127634500Y-41910500D01*
X180213500Y-41910500D01*
X180281621Y-41930502D01*
G37*
%TD.AperFunction*%
%TD*%
M02*
