%TF.GenerationSoftware,KiCad,Pcbnew,(6.0.6)*%
%TF.CreationDate,2022-11-23T01:26:38+07:00*%
%TF.ProjectId,555_Badge,3535355f-4261-4646-9765-2e6b69636164,v01*%
%TF.SameCoordinates,Original*%
%TF.FileFunction,Legend,Bot*%
%TF.FilePolarity,Positive*%
%FSLAX46Y46*%
G04 Gerber Fmt 4.6, Leading zero omitted, Abs format (unit mm)*
G04 Created by KiCad (PCBNEW (6.0.6)) date 2022-11-23 01:26:38*
%MOMM*%
%LPD*%
G01*
G04 APERTURE LIST*
%ADD10C,0.508000*%
G04 APERTURE END LIST*
D10*
X162511619Y-51949047D02*
X163721142Y-51949047D01*
X163842095Y-53158571D01*
X163721142Y-53037619D01*
X163479238Y-52916666D01*
X162874476Y-52916666D01*
X162632571Y-53037619D01*
X162511619Y-53158571D01*
X162390666Y-53400476D01*
X162390666Y-54005238D01*
X162511619Y-54247142D01*
X162632571Y-54368095D01*
X162874476Y-54489047D01*
X163479238Y-54489047D01*
X163721142Y-54368095D01*
X163842095Y-54247142D01*
X160092571Y-51949047D02*
X161302095Y-51949047D01*
X161423047Y-53158571D01*
X161302095Y-53037619D01*
X161060190Y-52916666D01*
X160455428Y-52916666D01*
X160213523Y-53037619D01*
X160092571Y-53158571D01*
X159971619Y-53400476D01*
X159971619Y-54005238D01*
X160092571Y-54247142D01*
X160213523Y-54368095D01*
X160455428Y-54489047D01*
X161060190Y-54489047D01*
X161302095Y-54368095D01*
X161423047Y-54247142D01*
X157673523Y-51949047D02*
X158883047Y-51949047D01*
X159004000Y-53158571D01*
X158883047Y-53037619D01*
X158641142Y-52916666D01*
X158036380Y-52916666D01*
X157794476Y-53037619D01*
X157673523Y-53158571D01*
X157552571Y-53400476D01*
X157552571Y-54005238D01*
X157673523Y-54247142D01*
X157794476Y-54368095D01*
X158036380Y-54489047D01*
X158641142Y-54489047D01*
X158883047Y-54368095D01*
X159004000Y-54247142D01*
X153682095Y-53158571D02*
X153319238Y-53279523D01*
X153198285Y-53400476D01*
X153077333Y-53642380D01*
X153077333Y-54005238D01*
X153198285Y-54247142D01*
X153319238Y-54368095D01*
X153561142Y-54489047D01*
X154528761Y-54489047D01*
X154528761Y-51949047D01*
X153682095Y-51949047D01*
X153440190Y-52070000D01*
X153319238Y-52190952D01*
X153198285Y-52432857D01*
X153198285Y-52674761D01*
X153319238Y-52916666D01*
X153440190Y-53037619D01*
X153682095Y-53158571D01*
X154528761Y-53158571D01*
X150900190Y-54489047D02*
X150900190Y-53158571D01*
X151021142Y-52916666D01*
X151263047Y-52795714D01*
X151746857Y-52795714D01*
X151988761Y-52916666D01*
X150900190Y-54368095D02*
X151142095Y-54489047D01*
X151746857Y-54489047D01*
X151988761Y-54368095D01*
X152109714Y-54126190D01*
X152109714Y-53884285D01*
X151988761Y-53642380D01*
X151746857Y-53521428D01*
X151142095Y-53521428D01*
X150900190Y-53400476D01*
X148602095Y-54489047D02*
X148602095Y-51949047D01*
X148602095Y-54368095D02*
X148844000Y-54489047D01*
X149327809Y-54489047D01*
X149569714Y-54368095D01*
X149690666Y-54247142D01*
X149811619Y-54005238D01*
X149811619Y-53279523D01*
X149690666Y-53037619D01*
X149569714Y-52916666D01*
X149327809Y-52795714D01*
X148844000Y-52795714D01*
X148602095Y-52916666D01*
X146304000Y-52795714D02*
X146304000Y-54851904D01*
X146424952Y-55093809D01*
X146545904Y-55214761D01*
X146787809Y-55335714D01*
X147150666Y-55335714D01*
X147392571Y-55214761D01*
X146304000Y-54368095D02*
X146545904Y-54489047D01*
X147029714Y-54489047D01*
X147271619Y-54368095D01*
X147392571Y-54247142D01*
X147513523Y-54005238D01*
X147513523Y-53279523D01*
X147392571Y-53037619D01*
X147271619Y-52916666D01*
X147029714Y-52795714D01*
X146545904Y-52795714D01*
X146304000Y-52916666D01*
X144126857Y-54368095D02*
X144368761Y-54489047D01*
X144852571Y-54489047D01*
X145094476Y-54368095D01*
X145215428Y-54126190D01*
X145215428Y-53158571D01*
X145094476Y-52916666D01*
X144852571Y-52795714D01*
X144368761Y-52795714D01*
X144126857Y-52916666D01*
X144005904Y-53158571D01*
X144005904Y-53400476D01*
X145215428Y-53642380D01*
M02*
