%TF.GenerationSoftware,KiCad,Pcbnew,(6.0.6)*%
%TF.CreationDate,2022-11-23T01:26:38+07:00*%
%TF.ProjectId,555_Badge,3535355f-4261-4646-9765-2e6b69636164,v01*%
%TF.SameCoordinates,Original*%
%TF.FileFunction,Legend,Top*%
%TF.FilePolarity,Positive*%
%FSLAX46Y46*%
G04 Gerber Fmt 4.6, Leading zero omitted, Abs format (unit mm)*
G04 Created by KiCad (PCBNEW (6.0.6)) date 2022-11-23 01:26:38*
%MOMM*%
%LPD*%
G01*
G04 APERTURE LIST*
%ADD10C,0.150000*%
%ADD11C,0.120000*%
%ADD12C,0.203200*%
%ADD13C,0.100000*%
G04 APERTURE END LIST*
D10*
X132207047Y-121948428D02*
X132968952Y-121948428D01*
X150241047Y-103957428D02*
X151002952Y-103957428D01*
X150622000Y-104338380D02*
X150622000Y-103576476D01*
X132207047Y-101925428D02*
X132968952Y-101925428D01*
X132588000Y-102306380D02*
X132588000Y-101544476D01*
%TO.C,R7*%
X170378380Y-104560666D02*
X169902190Y-104894000D01*
X170378380Y-105132095D02*
X169378380Y-105132095D01*
X169378380Y-104751142D01*
X169426000Y-104655904D01*
X169473619Y-104608285D01*
X169568857Y-104560666D01*
X169711714Y-104560666D01*
X169806952Y-104608285D01*
X169854571Y-104655904D01*
X169902190Y-104751142D01*
X169902190Y-105132095D01*
X169378380Y-104227333D02*
X169378380Y-103560666D01*
X170378380Y-103989238D01*
%TO.C,U1*%
X157988095Y-113498380D02*
X157988095Y-114307904D01*
X158035714Y-114403142D01*
X158083333Y-114450761D01*
X158178571Y-114498380D01*
X158369047Y-114498380D01*
X158464285Y-114450761D01*
X158511904Y-114403142D01*
X158559523Y-114307904D01*
X158559523Y-113498380D01*
X159559523Y-114498380D02*
X158988095Y-114498380D01*
X159273809Y-114498380D02*
X159273809Y-113498380D01*
X159178571Y-113641238D01*
X159083333Y-113736476D01*
X158988095Y-113784095D01*
%TO.C,R2*%
X162758380Y-104560666D02*
X162282190Y-104894000D01*
X162758380Y-105132095D02*
X161758380Y-105132095D01*
X161758380Y-104751142D01*
X161806000Y-104655904D01*
X161853619Y-104608285D01*
X161948857Y-104560666D01*
X162091714Y-104560666D01*
X162186952Y-104608285D01*
X162234571Y-104655904D01*
X162282190Y-104751142D01*
X162282190Y-105132095D01*
X161853619Y-104179714D02*
X161806000Y-104132095D01*
X161758380Y-104036857D01*
X161758380Y-103798761D01*
X161806000Y-103703523D01*
X161853619Y-103655904D01*
X161948857Y-103608285D01*
X162044095Y-103608285D01*
X162186952Y-103655904D01*
X162758380Y-104227333D01*
X162758380Y-103608285D01*
%TO.C,D1*%
X151494380Y-74647095D02*
X150494380Y-74647095D01*
X150494380Y-74409000D01*
X150542000Y-74266142D01*
X150637238Y-74170904D01*
X150732476Y-74123285D01*
X150922952Y-74075666D01*
X151065809Y-74075666D01*
X151256285Y-74123285D01*
X151351523Y-74170904D01*
X151446761Y-74266142D01*
X151494380Y-74409000D01*
X151494380Y-74647095D01*
X151494380Y-73123285D02*
X151494380Y-73694714D01*
X151494380Y-73409000D02*
X150494380Y-73409000D01*
X150637238Y-73504238D01*
X150732476Y-73599476D01*
X150780095Y-73694714D01*
%TO.C,D2*%
X165210380Y-74652095D02*
X164210380Y-74652095D01*
X164210380Y-74414000D01*
X164258000Y-74271142D01*
X164353238Y-74175904D01*
X164448476Y-74128285D01*
X164638952Y-74080666D01*
X164781809Y-74080666D01*
X164972285Y-74128285D01*
X165067523Y-74175904D01*
X165162761Y-74271142D01*
X165210380Y-74414000D01*
X165210380Y-74652095D01*
X164305619Y-73699714D02*
X164258000Y-73652095D01*
X164210380Y-73556857D01*
X164210380Y-73318761D01*
X164258000Y-73223523D01*
X164305619Y-73175904D01*
X164400857Y-73128285D01*
X164496095Y-73128285D01*
X164638952Y-73175904D01*
X165210380Y-73747333D01*
X165210380Y-73128285D01*
%TO.C,R6*%
X166568380Y-104560666D02*
X166092190Y-104894000D01*
X166568380Y-105132095D02*
X165568380Y-105132095D01*
X165568380Y-104751142D01*
X165616000Y-104655904D01*
X165663619Y-104608285D01*
X165758857Y-104560666D01*
X165901714Y-104560666D01*
X165996952Y-104608285D01*
X166044571Y-104655904D01*
X166092190Y-104751142D01*
X166092190Y-105132095D01*
X165568380Y-103703523D02*
X165568380Y-103894000D01*
X165616000Y-103989238D01*
X165663619Y-104036857D01*
X165806476Y-104132095D01*
X165996952Y-104179714D01*
X166377904Y-104179714D01*
X166473142Y-104132095D01*
X166520761Y-104084476D01*
X166568380Y-103989238D01*
X166568380Y-103798761D01*
X166520761Y-103703523D01*
X166473142Y-103655904D01*
X166377904Y-103608285D01*
X166139809Y-103608285D01*
X166044571Y-103655904D01*
X165996952Y-103703523D01*
X165949333Y-103798761D01*
X165949333Y-103989238D01*
X165996952Y-104084476D01*
X166044571Y-104132095D01*
X166139809Y-104179714D01*
%TO.C,S1*%
X152654095Y-113688761D02*
X152796952Y-113736380D01*
X153035047Y-113736380D01*
X153130285Y-113688761D01*
X153177904Y-113641142D01*
X153225523Y-113545904D01*
X153225523Y-113450666D01*
X153177904Y-113355428D01*
X153130285Y-113307809D01*
X153035047Y-113260190D01*
X152844571Y-113212571D01*
X152749333Y-113164952D01*
X152701714Y-113117333D01*
X152654095Y-113022095D01*
X152654095Y-112926857D01*
X152701714Y-112831619D01*
X152749333Y-112784000D01*
X152844571Y-112736380D01*
X153082666Y-112736380D01*
X153225523Y-112784000D01*
X154177904Y-113736380D02*
X153606476Y-113736380D01*
X153892190Y-113736380D02*
X153892190Y-112736380D01*
X153796952Y-112879238D01*
X153701714Y-112974476D01*
X153606476Y-113022095D01*
%TO.C,BAT1*%
X127944571Y-103830285D02*
X127992190Y-103687428D01*
X128039809Y-103639809D01*
X128135047Y-103592190D01*
X128277904Y-103592190D01*
X128373142Y-103639809D01*
X128420761Y-103687428D01*
X128468380Y-103782666D01*
X128468380Y-104163619D01*
X127468380Y-104163619D01*
X127468380Y-103830285D01*
X127516000Y-103735047D01*
X127563619Y-103687428D01*
X127658857Y-103639809D01*
X127754095Y-103639809D01*
X127849333Y-103687428D01*
X127896952Y-103735047D01*
X127944571Y-103830285D01*
X127944571Y-104163619D01*
X128182666Y-103211238D02*
X128182666Y-102735047D01*
X128468380Y-103306476D02*
X127468380Y-102973142D01*
X128468380Y-102639809D01*
X127468380Y-102449333D02*
X127468380Y-101877904D01*
X128468380Y-102163619D02*
X127468380Y-102163619D01*
X128468380Y-101020761D02*
X128468380Y-101592190D01*
X128468380Y-101306476D02*
X127468380Y-101306476D01*
X127611238Y-101401714D01*
X127706476Y-101496952D01*
X127754095Y-101592190D01*
%TO.C,R5*%
X174585333Y-117122380D02*
X174252000Y-116646190D01*
X174013904Y-117122380D02*
X174013904Y-116122380D01*
X174394857Y-116122380D01*
X174490095Y-116170000D01*
X174537714Y-116217619D01*
X174585333Y-116312857D01*
X174585333Y-116455714D01*
X174537714Y-116550952D01*
X174490095Y-116598571D01*
X174394857Y-116646190D01*
X174013904Y-116646190D01*
X175490095Y-116122380D02*
X175013904Y-116122380D01*
X174966285Y-116598571D01*
X175013904Y-116550952D01*
X175109142Y-116503333D01*
X175347238Y-116503333D01*
X175442476Y-116550952D01*
X175490095Y-116598571D01*
X175537714Y-116693809D01*
X175537714Y-116931904D01*
X175490095Y-117027142D01*
X175442476Y-117074761D01*
X175347238Y-117122380D01*
X175109142Y-117122380D01*
X175013904Y-117074761D01*
X174966285Y-117027142D01*
%TO.C,R4*%
X178252380Y-107354666D02*
X177776190Y-107688000D01*
X178252380Y-107926095D02*
X177252380Y-107926095D01*
X177252380Y-107545142D01*
X177300000Y-107449904D01*
X177347619Y-107402285D01*
X177442857Y-107354666D01*
X177585714Y-107354666D01*
X177680952Y-107402285D01*
X177728571Y-107449904D01*
X177776190Y-107545142D01*
X177776190Y-107926095D01*
X177585714Y-106497523D02*
X178252380Y-106497523D01*
X177204761Y-106735619D02*
X177919047Y-106973714D01*
X177919047Y-106354666D01*
%TO.C,C1*%
X163409333Y-118721142D02*
X163361714Y-118768761D01*
X163218857Y-118816380D01*
X163123619Y-118816380D01*
X162980761Y-118768761D01*
X162885523Y-118673523D01*
X162837904Y-118578285D01*
X162790285Y-118387809D01*
X162790285Y-118244952D01*
X162837904Y-118054476D01*
X162885523Y-117959238D01*
X162980761Y-117864000D01*
X163123619Y-117816380D01*
X163218857Y-117816380D01*
X163361714Y-117864000D01*
X163409333Y-117911619D01*
X164361714Y-118816380D02*
X163790285Y-118816380D01*
X164076000Y-118816380D02*
X164076000Y-117816380D01*
X163980761Y-117959238D01*
X163885523Y-118054476D01*
X163790285Y-118102095D01*
%TO.C,R1*%
X159202380Y-107100666D02*
X158726190Y-107434000D01*
X159202380Y-107672095D02*
X158202380Y-107672095D01*
X158202380Y-107291142D01*
X158250000Y-107195904D01*
X158297619Y-107148285D01*
X158392857Y-107100666D01*
X158535714Y-107100666D01*
X158630952Y-107148285D01*
X158678571Y-107195904D01*
X158726190Y-107291142D01*
X158726190Y-107672095D01*
X159202380Y-106148285D02*
X159202380Y-106719714D01*
X159202380Y-106434000D02*
X158202380Y-106434000D01*
X158345238Y-106529238D01*
X158440476Y-106624476D01*
X158488095Y-106719714D01*
%TO.C,R3*%
X174188380Y-104560666D02*
X173712190Y-104894000D01*
X174188380Y-105132095D02*
X173188380Y-105132095D01*
X173188380Y-104751142D01*
X173236000Y-104655904D01*
X173283619Y-104608285D01*
X173378857Y-104560666D01*
X173521714Y-104560666D01*
X173616952Y-104608285D01*
X173664571Y-104655904D01*
X173712190Y-104751142D01*
X173712190Y-105132095D01*
X173188380Y-104227333D02*
X173188380Y-103608285D01*
X173569333Y-103941619D01*
X173569333Y-103798761D01*
X173616952Y-103703523D01*
X173664571Y-103655904D01*
X173759809Y-103608285D01*
X173997904Y-103608285D01*
X174093142Y-103655904D01*
X174140761Y-103703523D01*
X174188380Y-103798761D01*
X174188380Y-104084476D01*
X174140761Y-104179714D01*
X174093142Y-104227333D01*
%TO.C,Q1*%
X166020761Y-111545619D02*
X165925523Y-111498000D01*
X165830285Y-111402761D01*
X165687428Y-111259904D01*
X165592190Y-111212285D01*
X165496952Y-111212285D01*
X165544571Y-111450380D02*
X165449333Y-111402761D01*
X165354095Y-111307523D01*
X165306476Y-111117047D01*
X165306476Y-110783714D01*
X165354095Y-110593238D01*
X165449333Y-110498000D01*
X165544571Y-110450380D01*
X165735047Y-110450380D01*
X165830285Y-110498000D01*
X165925523Y-110593238D01*
X165973142Y-110783714D01*
X165973142Y-111117047D01*
X165925523Y-111307523D01*
X165830285Y-111402761D01*
X165735047Y-111450380D01*
X165544571Y-111450380D01*
X166925523Y-111450380D02*
X166354095Y-111450380D01*
X166639809Y-111450380D02*
X166639809Y-110450380D01*
X166544571Y-110593238D01*
X166449333Y-110688476D01*
X166354095Y-110736095D01*
%TO.C,C2*%
X171029333Y-118975142D02*
X170981714Y-119022761D01*
X170838857Y-119070380D01*
X170743619Y-119070380D01*
X170600761Y-119022761D01*
X170505523Y-118927523D01*
X170457904Y-118832285D01*
X170410285Y-118641809D01*
X170410285Y-118498952D01*
X170457904Y-118308476D01*
X170505523Y-118213238D01*
X170600761Y-118118000D01*
X170743619Y-118070380D01*
X170838857Y-118070380D01*
X170981714Y-118118000D01*
X171029333Y-118165619D01*
X171410285Y-118165619D02*
X171457904Y-118118000D01*
X171553142Y-118070380D01*
X171791238Y-118070380D01*
X171886476Y-118118000D01*
X171934095Y-118165619D01*
X171981714Y-118260857D01*
X171981714Y-118356095D01*
X171934095Y-118498952D01*
X171362666Y-119070380D01*
X171981714Y-119070380D01*
D11*
%TO.C,R7*%
X168556000Y-108680000D02*
X168556000Y-102140000D01*
X168886000Y-108680000D02*
X168556000Y-108680000D01*
X170966000Y-108680000D02*
X171296000Y-108680000D01*
X171296000Y-102140000D02*
X170966000Y-102140000D01*
X171296000Y-108680000D02*
X171296000Y-102140000D01*
X168556000Y-102140000D02*
X168886000Y-102140000D01*
D12*
%TO.C,U1*%
X151384000Y-116332000D02*
X151384000Y-123444000D01*
X161544000Y-116332000D02*
X161544000Y-123444000D01*
X151384000Y-123952000D02*
G75*
G03*
X151384000Y-123952000I-254000J0D01*
G01*
D11*
%TO.C,R2*%
X163676000Y-108680000D02*
X163676000Y-102140000D01*
X160936000Y-102140000D02*
X161266000Y-102140000D01*
X163346000Y-108680000D02*
X163676000Y-108680000D01*
X161266000Y-108680000D02*
X160936000Y-108680000D01*
X160936000Y-108680000D02*
X160936000Y-102140000D01*
X163676000Y-102140000D02*
X163346000Y-102140000D01*
%TO.C,D1*%
X147002000Y-72349000D02*
X146846000Y-72349000D01*
X149318000Y-72349000D02*
X149162000Y-72349000D01*
X149161837Y-74950130D02*
G75*
G03*
X149162000Y-72868039I-1079837J1041130D01*
G01*
X149160608Y-75581335D02*
G75*
G03*
X149317516Y-72349000I-1078608J1672335D01*
G01*
X146846484Y-72349000D02*
G75*
G03*
X147003392Y-75581335I1235516J-1560000D01*
G01*
X147002000Y-72868039D02*
G75*
G03*
X147002163Y-74950130I1080000J-1040961D01*
G01*
%TO.C,D2*%
X160718000Y-72354000D02*
X160562000Y-72354000D01*
X163034000Y-72354000D02*
X162878000Y-72354000D01*
X162877837Y-74955130D02*
G75*
G03*
X162878000Y-72873039I-1079837J1041130D01*
G01*
X160718000Y-72873039D02*
G75*
G03*
X160718163Y-74955130I1080000J-1040961D01*
G01*
X162876608Y-75586335D02*
G75*
G03*
X163033516Y-72354000I-1078608J1672335D01*
G01*
X160562484Y-72354000D02*
G75*
G03*
X160719392Y-75586335I1235516J-1560000D01*
G01*
%TO.C,R6*%
X165076000Y-108680000D02*
X164746000Y-108680000D01*
X167156000Y-108680000D02*
X167486000Y-108680000D01*
X167486000Y-102140000D02*
X167156000Y-102140000D01*
X164746000Y-102140000D02*
X165076000Y-102140000D01*
X167486000Y-108680000D02*
X167486000Y-102140000D01*
X164746000Y-108680000D02*
X164746000Y-102140000D01*
D13*
%TO.C,S1*%
X151316000Y-100252000D02*
X151816000Y-100252000D01*
X155516000Y-100252000D02*
X155016000Y-100252000D01*
X151316000Y-100252000D02*
X151316000Y-100752000D01*
X151316000Y-112152000D02*
X151816000Y-112152000D01*
X155516000Y-112152000D02*
X155516000Y-111652000D01*
X155516000Y-112152000D02*
X155016000Y-112152000D01*
X151316000Y-112152000D02*
X151316000Y-111652000D01*
X155516000Y-100252000D02*
X155516000Y-100752000D01*
%TO.C,BAT1*%
X142341600Y-103771700D02*
X142341600Y-101028500D01*
X134518400Y-103771700D02*
X134518400Y-101028500D01*
X142341600Y-101028500D02*
X139496800Y-101028500D01*
X134518400Y-101028500D02*
X137363200Y-101028500D01*
X149656800Y-114338100D02*
G75*
G03*
X149656800Y-114338100I-11226800J0D01*
G01*
D11*
%TO.C,R5*%
X178022000Y-115670000D02*
X171482000Y-115670000D01*
X178022000Y-112930000D02*
X171482000Y-112930000D01*
X178022000Y-113260000D02*
X178022000Y-112930000D01*
X171482000Y-115670000D02*
X171482000Y-115340000D01*
X171482000Y-112930000D02*
X171482000Y-113260000D01*
X178022000Y-115340000D02*
X178022000Y-115670000D01*
%TO.C,R4*%
X178916000Y-108680000D02*
X178916000Y-102140000D01*
X176176000Y-102140000D02*
X176506000Y-102140000D01*
X176176000Y-108680000D02*
X176176000Y-102140000D01*
X178916000Y-102140000D02*
X178586000Y-102140000D01*
X178586000Y-108680000D02*
X178916000Y-108680000D01*
X176506000Y-108680000D02*
X176176000Y-108680000D01*
%TO.C,C1*%
X168990000Y-120948888D02*
G75*
G03*
X168990000Y-120948888I-2620000J0D01*
G01*
X165330000Y-121308888D02*
X163814000Y-121308888D01*
X168234000Y-122749888D02*
X167410000Y-122749888D01*
X167381000Y-123349888D02*
X165359000Y-123349888D01*
X165330000Y-121108888D02*
X163794000Y-121108888D01*
X168023000Y-122949888D02*
X167410000Y-122949888D01*
X165330000Y-122829888D02*
X164585000Y-122829888D01*
X168935000Y-121228888D02*
X167410000Y-121228888D01*
X167621000Y-123229888D02*
X165119000Y-123229888D01*
X168898000Y-121468888D02*
X167410000Y-121468888D01*
X168069000Y-122909888D02*
X167410000Y-122909888D01*
X168931000Y-121268888D02*
X167410000Y-121268888D01*
X168881000Y-121548888D02*
X167410000Y-121548888D01*
X165330000Y-121789888D02*
X163928000Y-121789888D01*
X167175000Y-123429888D02*
X165565000Y-123429888D01*
X165330000Y-121028888D02*
X163791000Y-121028888D01*
X165330000Y-122269888D02*
X164146000Y-122269888D01*
X167285000Y-123389888D02*
X165455000Y-123389888D01*
X168950000Y-120988888D02*
X167410000Y-120988888D01*
X165330000Y-121548888D02*
X163859000Y-121548888D01*
X165330000Y-122509888D02*
X164305000Y-122509888D01*
X168155000Y-122829888D02*
X167410000Y-122829888D01*
X168307000Y-122669888D02*
X167410000Y-122669888D01*
X168718000Y-122029888D02*
X167410000Y-122029888D01*
X165330000Y-121268888D02*
X163809000Y-121268888D01*
X167047000Y-123469888D02*
X165693000Y-123469888D01*
X165330000Y-121749888D02*
X163915000Y-121749888D01*
X168913000Y-121388888D02*
X167410000Y-121388888D01*
X168570000Y-122309888D02*
X167410000Y-122309888D01*
X165330000Y-122909888D02*
X164671000Y-122909888D01*
X165330000Y-122469888D02*
X164275000Y-122469888D01*
X165330000Y-122189888D02*
X164102000Y-122189888D01*
X165330000Y-121588888D02*
X163869000Y-121588888D01*
X165330000Y-122029888D02*
X164022000Y-122029888D01*
X165330000Y-121709888D02*
X163902000Y-121709888D01*
X168594000Y-122269888D02*
X167410000Y-122269888D01*
X167548000Y-123269888D02*
X165192000Y-123269888D01*
X168950000Y-120948888D02*
X167410000Y-120948888D01*
X165330000Y-122549888D02*
X164335000Y-122549888D01*
X167975000Y-122989888D02*
X164765000Y-122989888D01*
X165330000Y-121669888D02*
X163890000Y-121669888D01*
X167689000Y-123189888D02*
X165051000Y-123189888D01*
X168906000Y-121428888D02*
X167410000Y-121428888D01*
X168699000Y-122069888D02*
X167410000Y-122069888D01*
X168784000Y-121869888D02*
X167410000Y-121869888D01*
X165330000Y-122309888D02*
X164170000Y-122309888D01*
X165330000Y-122669888D02*
X164433000Y-122669888D01*
X165330000Y-120988888D02*
X163790000Y-120988888D01*
X165330000Y-121468888D02*
X163842000Y-121468888D01*
X168660000Y-122149888D02*
X167410000Y-122149888D01*
X168752000Y-121949888D02*
X167410000Y-121949888D01*
X168680000Y-122109888D02*
X167410000Y-122109888D01*
X168374000Y-122589888D02*
X167410000Y-122589888D01*
X165330000Y-122629888D02*
X164399000Y-122629888D01*
X165330000Y-122109888D02*
X164060000Y-122109888D01*
X167813000Y-123109888D02*
X164927000Y-123109888D01*
X165330000Y-121068888D02*
X163792000Y-121068888D01*
X168850000Y-121669888D02*
X167410000Y-121669888D01*
X167468000Y-123309888D02*
X165272000Y-123309888D01*
X168838000Y-121709888D02*
X167410000Y-121709888D01*
X165330000Y-121909888D02*
X163972000Y-121909888D01*
X165330000Y-122869888D02*
X164627000Y-122869888D01*
X165330000Y-121148888D02*
X163797000Y-121148888D01*
X165330000Y-121628888D02*
X163879000Y-121628888D01*
X168465000Y-122469888D02*
X167410000Y-122469888D01*
X167924000Y-123029888D02*
X164816000Y-123029888D01*
X165330000Y-122749888D02*
X164506000Y-122749888D01*
X168196000Y-122789888D02*
X167410000Y-122789888D01*
X168341000Y-122629888D02*
X167410000Y-122629888D01*
X168926000Y-121308888D02*
X167410000Y-121308888D01*
X168617000Y-122229888D02*
X167410000Y-122229888D01*
X168943000Y-121148888D02*
X167410000Y-121148888D01*
X165330000Y-122589888D02*
X164366000Y-122589888D01*
X168871000Y-121588888D02*
X167410000Y-121588888D01*
X168825000Y-121749888D02*
X167410000Y-121749888D01*
X167870000Y-123069888D02*
X164870000Y-123069888D01*
X165330000Y-121989888D02*
X164005000Y-121989888D01*
X165330000Y-122149888D02*
X164080000Y-122149888D01*
X165330000Y-121949888D02*
X163988000Y-121949888D01*
X168949000Y-121028888D02*
X167410000Y-121028888D01*
X165330000Y-121348888D02*
X163820000Y-121348888D01*
X165330000Y-122389888D02*
X164221000Y-122389888D01*
X165330000Y-122429888D02*
X164248000Y-122429888D01*
X165330000Y-122709888D02*
X164469000Y-122709888D01*
X168946000Y-121108888D02*
X167410000Y-121108888D01*
X165330000Y-121508888D02*
X163850000Y-121508888D01*
X167845000Y-118144113D02*
X167845000Y-118644113D01*
X168405000Y-122549888D02*
X167410000Y-122549888D01*
X168890000Y-121508888D02*
X167410000Y-121508888D01*
X165330000Y-121188888D02*
X163801000Y-121188888D01*
X168861000Y-121628888D02*
X167410000Y-121628888D01*
X168095000Y-118394113D02*
X167595000Y-118394113D01*
X165330000Y-120948888D02*
X163790000Y-120948888D01*
X168735000Y-121989888D02*
X167410000Y-121989888D01*
X168271000Y-122709888D02*
X167410000Y-122709888D01*
X168545000Y-122349888D02*
X167410000Y-122349888D01*
X165330000Y-121869888D02*
X163956000Y-121869888D01*
X168812000Y-121789888D02*
X167410000Y-121789888D01*
X168798000Y-121829888D02*
X167410000Y-121829888D01*
X168519000Y-122389888D02*
X167410000Y-122389888D01*
X165330000Y-121228888D02*
X163805000Y-121228888D01*
X168638000Y-122189888D02*
X167410000Y-122189888D01*
X165330000Y-121829888D02*
X163942000Y-121829888D01*
X168920000Y-121348888D02*
X167410000Y-121348888D01*
X168435000Y-122509888D02*
X167410000Y-122509888D01*
X168939000Y-121188888D02*
X167410000Y-121188888D01*
X167753000Y-123149888D02*
X164987000Y-123149888D01*
X168113000Y-122869888D02*
X167410000Y-122869888D01*
X165330000Y-122349888D02*
X164195000Y-122349888D01*
X165330000Y-122069888D02*
X164041000Y-122069888D01*
X166888000Y-123509888D02*
X165852000Y-123509888D01*
X165330000Y-122229888D02*
X164123000Y-122229888D01*
X165330000Y-122789888D02*
X164544000Y-122789888D01*
X168768000Y-121909888D02*
X167410000Y-121909888D01*
X168492000Y-122429888D02*
X167410000Y-122429888D01*
X166654000Y-123549888D02*
X166086000Y-123549888D01*
X165330000Y-121388888D02*
X163827000Y-121388888D01*
X165330000Y-121428888D02*
X163834000Y-121428888D01*
X168948000Y-121068888D02*
X167410000Y-121068888D01*
X165330000Y-122949888D02*
X164717000Y-122949888D01*
%TO.C,R1*%
X159790000Y-102140000D02*
X160120000Y-102140000D01*
X160120000Y-102140000D02*
X160120000Y-108680000D01*
X160120000Y-108680000D02*
X159790000Y-108680000D01*
X157710000Y-102140000D02*
X157380000Y-102140000D01*
X157380000Y-108680000D02*
X157710000Y-108680000D01*
X157380000Y-102140000D02*
X157380000Y-108680000D01*
%TO.C,R3*%
X175106000Y-108680000D02*
X174776000Y-108680000D01*
X174776000Y-102140000D02*
X175106000Y-102140000D01*
X172366000Y-108680000D02*
X172696000Y-108680000D01*
X175106000Y-102140000D02*
X175106000Y-108680000D01*
X172366000Y-102140000D02*
X172366000Y-108680000D01*
X172696000Y-102140000D02*
X172366000Y-102140000D01*
%TO.C,Q1*%
X163367999Y-114300000D02*
G75*
G03*
X167806478Y-116138478I2600001J0D01*
G01*
X167806478Y-112461522D02*
G75*
G03*
X163368000Y-114300000I-1838478J-1838478D01*
G01*
X167818000Y-116100000D02*
X167818000Y-112500000D01*
%TO.C,C2*%
X178974000Y-121371621D02*
X176808000Y-121371621D01*
X174728000Y-122292621D02*
X172816000Y-122292621D01*
X176570000Y-124132621D02*
X174966000Y-124132621D01*
X178111000Y-123212621D02*
X176808000Y-123212621D01*
X174728000Y-121411621D02*
X172567000Y-121411621D01*
X178998000Y-120971621D02*
X172538000Y-120971621D01*
X178484000Y-122732621D02*
X176808000Y-122732621D01*
X174728000Y-122532621D02*
X172934000Y-122532621D01*
X174728000Y-123052621D02*
X173284000Y-123052621D01*
X178738000Y-122252621D02*
X176808000Y-122252621D01*
X174728000Y-122572621D02*
X172956000Y-122572621D01*
X178935000Y-121611621D02*
X176808000Y-121611621D01*
X177482000Y-123732621D02*
X174054000Y-123732621D01*
X177607000Y-117471380D02*
X177607000Y-118101380D01*
X178375000Y-122892621D02*
X176808000Y-122892621D01*
X178963000Y-121451621D02*
X176808000Y-121451621D01*
X174728000Y-122732621D02*
X173052000Y-122732621D01*
X174728000Y-122052621D02*
X172721000Y-122052621D01*
X177200000Y-123892621D02*
X174336000Y-123892621D01*
X178996000Y-121091621D02*
X172540000Y-121091621D01*
X174728000Y-122652621D02*
X173002000Y-122652621D01*
X176827000Y-124052621D02*
X174709000Y-124052621D01*
X178316000Y-122972621D02*
X176808000Y-122972621D01*
X176708000Y-124092621D02*
X174828000Y-124092621D01*
X178770000Y-122172621D02*
X176808000Y-122172621D01*
X178624000Y-122492621D02*
X176808000Y-122492621D01*
X174728000Y-121611621D02*
X172601000Y-121611621D01*
X178927000Y-121651621D02*
X176808000Y-121651621D01*
X174728000Y-121211621D02*
X172546000Y-121211621D01*
X174728000Y-123132621D02*
X173352000Y-123132621D01*
X178992000Y-121171621D02*
X172544000Y-121171621D01*
X177950000Y-123372621D02*
X173586000Y-123372621D01*
X178909000Y-121732621D02*
X176808000Y-121732621D01*
X177905000Y-123412621D02*
X173631000Y-123412621D01*
X178073000Y-123252621D02*
X176808000Y-123252621D01*
X177602000Y-123652621D02*
X173934000Y-123652621D01*
X174728000Y-121892621D02*
X172670000Y-121892621D01*
X174728000Y-122852621D02*
X173132000Y-122852621D01*
X174728000Y-122092621D02*
X172735000Y-122092621D01*
X178957000Y-121491621D02*
X176808000Y-121491621D01*
X174728000Y-122932621D02*
X173190000Y-122932621D01*
X178842000Y-121972621D02*
X176808000Y-121972621D01*
X174728000Y-121451621D02*
X172573000Y-121451621D01*
X177544000Y-123692621D02*
X173992000Y-123692621D01*
X174728000Y-121732621D02*
X172627000Y-121732621D01*
X177812000Y-123492621D02*
X173724000Y-123492621D01*
X174728000Y-122452621D02*
X172892000Y-122452621D01*
X178284000Y-123012621D02*
X176808000Y-123012621D01*
X178998000Y-121011621D02*
X172538000Y-121011621D01*
X174728000Y-122372621D02*
X172852000Y-122372621D01*
X178534000Y-122652621D02*
X176808000Y-122652621D01*
X174728000Y-122172621D02*
X172766000Y-122172621D01*
X178995000Y-121131621D02*
X172541000Y-121131621D01*
X177030000Y-123972621D02*
X174506000Y-123972621D01*
X174728000Y-122012621D02*
X172707000Y-122012621D01*
X174728000Y-121932621D02*
X172682000Y-121932621D01*
X174728000Y-123092621D02*
X173318000Y-123092621D01*
X174728000Y-122692621D02*
X173026000Y-122692621D01*
X174728000Y-123212621D02*
X173425000Y-123212621D01*
X178878000Y-121852621D02*
X176808000Y-121852621D01*
X177712000Y-123572621D02*
X173824000Y-123572621D01*
X178801000Y-122092621D02*
X176808000Y-122092621D01*
X174728000Y-122492621D02*
X172912000Y-122492621D01*
X178998000Y-121051621D02*
X172538000Y-121051621D01*
X178580000Y-122572621D02*
X176808000Y-122572621D01*
X178558000Y-122612621D02*
X176808000Y-122612621D01*
X178458000Y-122772621D02*
X176808000Y-122772621D01*
X177277000Y-123852621D02*
X174259000Y-123852621D01*
X174728000Y-121692621D02*
X172618000Y-121692621D01*
X174728000Y-122212621D02*
X172782000Y-122212621D01*
X174728000Y-122252621D02*
X172798000Y-122252621D01*
X178866000Y-121892621D02*
X176808000Y-121892621D01*
X174728000Y-121251621D02*
X172550000Y-121251621D01*
X178218000Y-123092621D02*
X176808000Y-123092621D01*
X174728000Y-121852621D02*
X172658000Y-121852621D01*
X174728000Y-121772621D02*
X172637000Y-121772621D01*
X178754000Y-122212621D02*
X176808000Y-122212621D01*
X178889000Y-121812621D02*
X176808000Y-121812621D01*
X174728000Y-123172621D02*
X173388000Y-123172621D01*
X174728000Y-122132621D02*
X172750000Y-122132621D01*
X178432000Y-122812621D02*
X176808000Y-122812621D01*
X174728000Y-121812621D02*
X172647000Y-121812621D01*
X178684000Y-122372621D02*
X176808000Y-122372621D01*
X178983000Y-121291621D02*
X176808000Y-121291621D01*
X174728000Y-121291621D02*
X172553000Y-121291621D01*
X174728000Y-121531621D02*
X172586000Y-121531621D01*
X178990000Y-121211621D02*
X176808000Y-121211621D01*
X177860000Y-123452621D02*
X173676000Y-123452621D01*
X174728000Y-121651621D02*
X172609000Y-121651621D01*
X178252000Y-123052621D02*
X176808000Y-123052621D01*
X177922000Y-117786380D02*
X177292000Y-117786380D01*
X178510000Y-122692621D02*
X176808000Y-122692621D01*
X178033000Y-123292621D02*
X173503000Y-123292621D01*
X174728000Y-123012621D02*
X173252000Y-123012621D01*
X178969000Y-121411621D02*
X176808000Y-121411621D01*
X174728000Y-122772621D02*
X173078000Y-122772621D01*
X174728000Y-122412621D02*
X172872000Y-122412621D01*
X178786000Y-122132621D02*
X176808000Y-122132621D01*
X174728000Y-122972621D02*
X173220000Y-122972621D01*
X174728000Y-122612621D02*
X172978000Y-122612621D01*
X178184000Y-123132621D02*
X176808000Y-123132621D01*
X178404000Y-122852621D02*
X176808000Y-122852621D01*
X178943000Y-121571621D02*
X176808000Y-121571621D01*
X174728000Y-122892621D02*
X173161000Y-122892621D01*
X174728000Y-121571621D02*
X172593000Y-121571621D01*
X174728000Y-122332621D02*
X172834000Y-122332621D01*
X178720000Y-122292621D02*
X176808000Y-122292621D01*
X178602000Y-122532621D02*
X176808000Y-122532621D01*
X177992000Y-123332621D02*
X173544000Y-123332621D01*
X174728000Y-121972621D02*
X172694000Y-121972621D01*
X178899000Y-121772621D02*
X176808000Y-121772621D01*
X177118000Y-123932621D02*
X174418000Y-123932621D01*
X177349000Y-123812621D02*
X174187000Y-123812621D01*
X178644000Y-122452621D02*
X176808000Y-122452621D01*
X178815000Y-122052621D02*
X176808000Y-122052621D01*
X178986000Y-121251621D02*
X176808000Y-121251621D01*
X178979000Y-121331621D02*
X176808000Y-121331621D01*
X178829000Y-122012621D02*
X176808000Y-122012621D01*
X178950000Y-121531621D02*
X176808000Y-121531621D01*
X178664000Y-122412621D02*
X176808000Y-122412621D01*
X177658000Y-123612621D02*
X173878000Y-123612621D01*
X174728000Y-122812621D02*
X173104000Y-122812621D01*
X174728000Y-123252621D02*
X173463000Y-123252621D01*
X174728000Y-121371621D02*
X172562000Y-121371621D01*
X176401000Y-124172621D02*
X175135000Y-124172621D01*
X176170000Y-124212621D02*
X175366000Y-124212621D01*
X174728000Y-121331621D02*
X172557000Y-121331621D01*
X178148000Y-123172621D02*
X176808000Y-123172621D01*
X177418000Y-123772621D02*
X174118000Y-123772621D01*
X178702000Y-122332621D02*
X176808000Y-122332621D01*
X178854000Y-121932621D02*
X176808000Y-121932621D01*
X178918000Y-121692621D02*
X176808000Y-121692621D01*
X176933000Y-124012621D02*
X174603000Y-124012621D01*
X177763000Y-123532621D02*
X173773000Y-123532621D01*
X174728000Y-121491621D02*
X172579000Y-121491621D01*
X178346000Y-122932621D02*
X176808000Y-122932621D01*
X179038000Y-120971621D02*
G75*
G03*
X179038000Y-120971621I-3270000J0D01*
G01*
%TD*%
G36*
X177996121Y-48788002D02*
G01*
X178042614Y-48841658D01*
X178054000Y-48894000D01*
X178054000Y-96394000D01*
X178033998Y-96462121D01*
X177980342Y-96508614D01*
X177928000Y-96520000D01*
X129666000Y-96520000D01*
X129597879Y-96499998D01*
X129551386Y-96446342D01*
X129540000Y-96394000D01*
X129540000Y-48894000D01*
X129560002Y-48825879D01*
X129613658Y-48779386D01*
X129666000Y-48768000D01*
X177928000Y-48768000D01*
X177996121Y-48788002D01*
G37*
M02*
